{
.appVersion = "3260";
.formatVersion = 3;
DisplayStrings = (
"AaBbCcDdEeFf
GgHhİiJjKkLlMm
NnOoPpQqRrSs
TtUuVvWwXxYyZz
0123456789
.,:;…!¡ ?¿*#///backslash -–—_
(){}[]“”‘’\"'«»‹›@&©®™
|¦†‡¢$€£¥Y¤·•°/.notdef 
+−×÷=≠><≥≤±≈~¬^200%‰ΩƱπ∞∫∏∑√∂/dottedCircledot ◌◊
↑↗→↘↓↙←↖↔↕ÆŒÞẞþßæœðƷʒŊŋƏə
̵̶̷̸̧̨̛̭̣̦̱̈̇̀́̋̂̌̆̊̃̄̒̉/strokeshortcomb.R/strokelongcomb.U/strokeshortcomb.g/strokelongcomb.u 
/dieresiscomb.case/dotaccentcomb.case/gravecomb.case/acutecomb.case/hungarumlautcomb.case/circumflexcomb.case/caroncomb.case/brevecomb.case/ringcomb.case/tildecomb.case/macroncomb.case/cedillacomb.case/strokeshortcomb.case/slashshortcomb.case/slashlongcomb.case/commaaccentcomb.loclMAH 
¨˙`´˝ˆˇ˘˚˜¯¸˛",

glyphs = (
{
glyphname = A;
kernLeft = A;
kernRight = A;
lastChange = "2023-06-23 18:42:56 +0000";
layers = (
{
anchors = (
{
name = bottom;
pos = (394,0);
},
{
name = ogonek;
pos = (721,10);
},
{
name = top;
pos = (389,750);
}
);
layerId = m01;
shapes = (
{
closed = 1;
nodes = (
(590,78,l),
(577,58,o),
(554,47,o),
(508,38,c),
(508,0,l),
(787,0,l),
(793,38,l),
(741,43,o),
(713,60,o),
(703,78,c),
(440,750,l),
(340,750,l),
(69,77,l),
(57,55,o),
(33,41,o),
(-5,38,c),
(-5,0,l),
(249,0,l),
(255,38,l),
(205,45,o),
(173,62,o),
(160,80,c),
(239,280,l),
(511,280,l)
);
},
{
closed = 1;
nodes = (
(374,625,l),
(483,350,l),
(266,350,l)
);
}
);
width = 788;
},
{
anchors = (
{
name = bottom;
pos = (431,0);
},
{
name = ogonek;
pos = (775,10);
},
{
name = top;
pos = (431,750);
}
);
layerId = "C36E42DF-D6E4-4FAF-B5BA-99700BA29EB5";
shapes = (
{
closed = 1;
nodes = (
(530,186,l),
(517,168,o),
(500,154,o),
(463,147,c),
(465,0,l),
(847,0,l),
(861,148,l),
(810,153,o),
(787,200,o),
(780,219,cs),
(579,750,l),
(301,750,l),
(87,215,ls),
(74,183,o),
(43,151,o),
(0,148,c),
(0,0,l),
(357,0,l),
(372,147,l),
(333,153,o),
(306,170,o),
(291,193,c),
(305,230,l),
(514,230,l)
);
},
{
closed = 1;
nodes = (
(414,508,l),
(471,350,l),
(352,350,l)
);
}
);
width = 861;
},
{
anchors = (
{
name = bottom;
pos = (410,0);
},
{
name = ogonek;
pos = (738,10);
},
{
name = top;
pos = (410,750);
}
);
background = {
shapes = (
{
closed = 1;
nodes = (
(685,34,ls),
(695,8,o),
(634,8,o),
(584,8,c),
(584,0,l),
(801,0,l),
(805,8,l),
(755,8,o),
(717,8,o),
(707,34,cs),
(421,750,l),
(399,750,l),
(117,34,ls),
(107,8,o),
(65,8,o),
(15,8,c),
(15,0,l),
(230,0,l),
(234,8,l),
(184,8,o),
(123,8,o),
(133,34,cs),
(407,730,l)
);
}
);
};
layerId = "9E464B93-4987-4E25-B327-76BD95426741";
shapes = (
{
closed = 1;
nodes = (
(685,34,ls),
(695,8,o),
(634,8,o),
(584,8,c),
(584,0,l),
(801,0,l),
(805,8,l),
(755,8,o),
(717,8,o),
(707,34,cs),
(421,750,l),
(399,750,l),
(117,34,ls),
(107,8,o),
(65,8,o),
(15,8,c),
(15,0,l),
(230,0,l),
(234,8,l),
(184,8,o),
(123,8,o),
(133,34,cs),
(241,309,l),
(575,309,l)
);
},
{
closed = 1;
nodes = (
(407,730,l),
(571,320,l),
(246,320,l)
);
}
);
width = 820;
},
{
anchors = (
{
name = bottom;
pos = (338,0);
},
{
name = ogonek;
pos = (649,10);
},
{
name = top;
pos = (338,750);
}
);
layerId = "BABFB3A0-9CFA-45ED-BD0F-DD711F12EEFF";
shapes = (
{
closed = 1;
nodes = (
(521,150,l),
(550,75,o),
(567,30,o),
(579,0,c),
(579,0,l),
(671,0,l),
(671,0,l),
(659,30,o),
(642,75,o),
(613,150,c),
(383,750,l),
(293,750,l),
(63,150,l),
(34,75,o),
(17,30,o),
(5,0,c),
(5,0,l),
(97,0,l),
(97,0,l),
(109,30,o),
(126,75,o),
(155,150,c),
(201,270,l),
(475,270,l)
);
},
{
closed = 1;
nodes = (
(338,630,l),
(445,350,l),
(231,350,l)
);
}
);
width = 676;
},
{
anchors = (
{
name = bottom;
pos = (414,0);
},
{
name = ogonek;
pos = (745,10);
},
{
name = top;
pos = (414,750);
}
);
layerId = "C8CD87A0-2407-4F05-BADA-4D8336545B60";
shapes = (
{
closed = 1;
nodes = (
(526,150,ls),
(551,74,o),
(565,30,o),
(574,0,c),
(574,0,l),
(833,0,l),
(833,0,l),
(824,30,o),
(809,76,o),
(783,150,cs),
(575,750,l),
(253,750,l),
(45,150,ls),
(19,76,o),
(4,30,o),
(-5,0,c),
(-5,0,l),
(254,0,l),
(254,0,l),
(263,30,o),
(277,74,o),
(302,150,cs),
(312,180,l),
(516,180,l)
);
},
{
closed = 1;
nodes = (
(414,531,l),
(472,340,l),
(356,340,l)
);
}
);
width = 828;
},
{
anchors = (
{
name = bottom;
pos = (330,0);
},
{
name = ogonek;
pos = (594,10);
},
{
name = top;
pos = (330,750);
}
);
background = {
shapes = (
{
closed = 1;
nodes = (
(594,60,ls),
(606,30,o),
(614,10,o),
(618,0,c),
(618,0,l),
(635,0,l),
(635,0,l),
(631,10,o),
(623,30,o),
(611,60,cs),
(339,750,l),
(321,750,l),
(49,60,ls),
(37,30,o),
(29,10,o),
(25,0,c),
(25,0,l),
(42,0,l),
(42,0,l),
(46,10,o),
(54,30,o),
(66,60,cs),
(330,730,l)
);
}
);
};
layerId = "48DAC09D-95D4-4D70-8D14-87ABECD8575B";
shapes = (
{
closed = 1;
nodes = (
(598,50,ls),
(608,25,o),
(612,15,o),
(618,0,c),
(618,0,l),
(635,0,l),
(635,0,l),
(629,15,o),
(625,25,o),
(615,50,cs),
(339,750,l),
(321,750,l),
(45,50,ls),
(35,25,o),
(31,15,o),
(25,0,c),
(25,0,l),
(42,0,l),
(42,0,l),
(48,15,o),
(52,25,o),
(62,50,cs),
(165,311,l),
(495,311,l)
);
},
{
closed = 1;
nodes = (
(330,730,l),
(490,325,l),
(170,325,l)
);
}
);
width = 660;
}
);
unicode = 65;
},
{
glyphname = AE;
lastChange = "2023-06-24 02:03:58 +0000";
layers = (
{
layerId = "9E464B93-4987-4E25-B327-76BD95426741";
shapes = (
{
closed = 1;
nodes = (
(742,411,l),
(742,680,l),
(960,680,ls),
(1024,680,o),
(1029,608,o),
(1029,575,c),
(1082,563,l),
(1104,739,l),
(1089,750,l),
(514,750,l),
(508,712,l),
(533,709,o),
(560,702,o),
(583,691,c),
(104,77,l),
(83,55,o),
(54,41,o),
(15,38,c),
(15,0,l),
(291,0,l),
(297,38,l),
(247,45,o),
(215,62,o),
(202,80,c),
(357,280,l),
(630,280,l),
(631,78,l),
(610,58,o),
(586,47,o),
(537,38,c),
(537,0,l),
(1079,0,l),
(1134,174,l),
(1084,192,l),
(1060,119,o),
(1010,70,o),
(941,70,cs),
(742,70,l),
(742,341,l),
(974,341,l),
(974,411,l)
);
},
{
closed = 1;
nodes = (
(626,625,l),
(629,350,l),
(412,350,l)
);
}
);
width = 1194;
},
{
layerId = "48DAC09D-95D4-4D70-8D14-87ABECD8575B";
shapes = (
{
closed = 1;
nodes = (
(707,416,l),
(707,670,l),
(814,670,ls),
(964,670,o),
(1034,670,o),
(1064,670,c),
(1064,670,l),
(1064,750,l),
(1064,750,l),
(605,750,l),
(605,750,l),
(582,720,o),
(543,670,o),
(489,600,cs),
(141,150,ls),
(83,75,o),
(47,29,o),
(25,0,c),
(25,0,l),
(133,0,l),
(133,0,l),
(156,30,o),
(191,75,o),
(249,150,cs),
(342,270,l),
(617,270,l),
(617,78,l),
(617,51,o),
(617,29,o),
(617,0,c),
(617,0,l),
(1064,0,l),
(1064,80,l),
(1064,80,l),
(1034,80,o),
(964,80,o),
(814,80,cs),
(707,80,l),
(707,336,l),
(939,336,l),
(939,416,l)
);
},
{
closed = 1;
nodes = (
(617,625,l),
(617,350,l),
(403,350,l)
);
}
);
width = 1144;
},
{
layerId = m01;
shapes = (
{
closed = 1;
nodes = (
(722,411,l),
(722,680,l),
(940,680,ls),
(1004,680,o),
(1009,608,o),
(1009,575,c),
(1062,563,l),
(1084,739,l),
(1069,750,l),
(494,750,l),
(488,712,l),
(513,709,o),
(540,702,o),
(563,691,c),
(84,77,l),
(63,55,o),
(34,41,o),
(-5,38,c),
(-5,0,l),
(271,0,l),
(277,38,l),
(227,45,o),
(195,62,o),
(182,80,c),
(337,280,l),
(610,280,l),
(611,78,l),
(590,58,o),
(566,47,o),
(517,38,c),
(517,0,l),
(1059,0,l),
(1114,174,l),
(1064,192,l),
(1040,119,o),
(990,70,o),
(921,70,cs),
(722,70,l),
(722,341,l),
(954,341,l),
(954,411,l)
);
},
{
closed = 1;
nodes = (
(606,625,l),
(609,350,l),
(392,350,l)
);
}
);
width = 1154;
},
{
layerId = "BABFB3A0-9CFA-45ED-BD0F-DD711F12EEFF";
shapes = (
{
closed = 1;
nodes = (
(687,416,l),
(687,670,l),
(794,670,ls),
(944,670,o),
(1014,670,o),
(1044,670,c),
(1044,670,l),
(1044,750,l),
(1044,750,l),
(585,750,l),
(585,750,l),
(562,720,o),
(523,670,o),
(469,600,cs),
(121,150,ls),
(63,75,o),
(27,29,o),
(5,0,c),
(5,0,l),
(113,0,l),
(113,0,l),
(136,30,o),
(171,75,o),
(229,150,cs),
(322,270,l),
(597,270,l),
(597,78,l),
(597,51,o),
(597,29,o),
(597,0,c),
(597,0,l),
(1044,0,l),
(1044,80,l),
(1044,80,l),
(1014,80,o),
(944,80,o),
(794,80,cs),
(687,80,l),
(687,336,l),
(919,336,l),
(919,416,l)
);
},
{
closed = 1;
nodes = (
(597,625,l),
(597,350,l),
(383,350,l)
);
}
);
width = 1104;
},
{
layerId = "C36E42DF-D6E4-4FAF-B5BA-99700BA29EB5";
shapes = (
{
closed = 1;
nodes = (
(727,411,l),
(727,680,l),
(945,680,ls),
(1009,680,o),
(1014,608,o),
(1014,575,c),
(1067,563,l),
(1089,739,l),
(1074,750,l),
(499,750,l),
(493,712,l),
(518,709,o),
(545,702,o),
(568,691,c),
(89,77,l),
(68,55,o),
(39,41,o),
(0,38,c),
(0,0,l),
(276,0,l),
(282,38,l),
(232,45,o),
(200,62,o),
(187,80,c),
(342,280,l),
(615,280,l),
(616,78,l),
(595,58,o),
(571,47,o),
(522,38,c),
(522,0,l),
(1064,0,l),
(1119,174,l),
(1069,192,l),
(1045,119,o),
(995,70,o),
(926,70,cs),
(727,70,l),
(727,341,l),
(959,341,l),
(959,411,l)
);
},
{
closed = 1;
nodes = (
(611,625,l),
(614,350,l),
(397,350,l)
);
}
);
width = 1139;
},
{
layerId = "C8CD87A0-2407-4F05-BADA-4D8336545B60";
shapes = (
{
closed = 1;
nodes = (
(677,416,l),
(677,670,l),
(784,670,ls),
(934,670,o),
(1004,670,o),
(1034,670,c),
(1034,670,l),
(1034,750,l),
(1034,750,l),
(575,750,l),
(575,750,l),
(552,720,o),
(513,670,o),
(459,600,cs),
(111,150,ls),
(53,75,o),
(17,29,o),
(-5,0,c),
(-5,0,l),
(103,0,l),
(103,0,l),
(126,30,o),
(161,75,o),
(219,150,cs),
(312,270,l),
(587,270,l),
(587,78,l),
(587,51,o),
(587,29,o),
(587,0,c),
(587,0,l),
(1034,0,l),
(1034,80,l),
(1034,80,l),
(1004,80,o),
(934,80,o),
(784,80,cs),
(677,80,l),
(677,336,l),
(909,336,l),
(909,416,l)
);
},
{
closed = 1;
nodes = (
(587,625,l),
(587,350,l),
(373,350,l)
);
}
);
width = 1064;
}
);
metricLeft = "=A";
metricRight = "=E";
unicode = 198;
},
{
glyphname = B;
kernRight = B;
lastChange = "2023-06-24 01:43:34 +0000";
layers = (
{
anchors = (
{
name = bottom;
pos = (347,0);
},
{
name = center;
pos = (189,225);
},
{
name = top;
pos = (347,750);
}
);
layerId = m01;
metricLeft = "=H";
metricRight = "=O+5";
shapes = (
{
closed = 1;
nodes = (
(378,0,ls),
(511,0,o),
(636,68,o),
(639,218,cs),
(641,324,o),
(520,393,o),
(446,412,c),
(530,450,o),
(586,508,o),
(586,601,cs),
(586,695,o),
(502,750,o),
(395,750,cs),
(57,750,l),
(51,712,l),
(111,693,o),
(140,669,o),
(140,638,cs),
(140,123,ls),
(140,78,o),
(110,56,o),
(50,38,c),
(50,0,l)
);
},
{
closed = 1;
nodes = (
(304,70,o),
(245,72,o),
(245,104,cs),
(245,361,l),
(364,361,ls),
(450,361,o),
(530,305,o),
(530,203,cs),
(530,126,o),
(471,70,o),
(396,70,cs)
);
},
{
closed = 1;
nodes = (
(245,680,l),
(345,680,ls),
(422,680,o),
(479,647,o),
(479,564,cs),
(479,476,o),
(419,431,o),
(337,431,cs),
(245,431,l)
);
}
);
width = 694;
},
{
anchors = (
{
name = bottom;
pos = (374,0);
},
{
name = center;
pos = (374,375);
},
{
name = top;
pos = (374,750);
}
);
layerId = "C36E42DF-D6E4-4FAF-B5BA-99700BA29EB5";
metricLeft = "=H";
metricRight = "=O+5";
shapes = (
{
closed = 1;
nodes = (
(433,0,ls),
(576,0,o),
(708,58,o),
(713,198,cs),
(716,287,o),
(664,375,o),
(541,408,c),
(625,436,o),
(681,488,o),
(681,581,cs),
(681,665,o),
(607,750,o),
(480,750,cs),
(52,750,l),
(36,602,l),
(61,583,o),
(90,559,o),
(90,498,cs),
(90,262,ls),
(90,178,o),
(71,164,o),
(30,148,c),
(30,0,l)
);
},
{
closed = 1;
nodes = (
(332,179,o),
(330,180,o),
(330,215,cs),
(330,310,l),
(403,310,ls),
(456,310,o),
(496,284,o),
(496,243,cs),
(496,204,o),
(469,179,o),
(409,179,cs)
);
},
{
closed = 1;
nodes = (
(330,576,l),
(403,576,ls),
(459,576,o),
(491,558,o),
(491,513,cs),
(491,470,o),
(457,445,o),
(397,445,cs),
(330,445,l)
);
}
);
width = 748;
},
{
anchors = (
{
name = bottom;
pos = (329,0);
},
{
name = center;
pos = (329,375);
},
{
name = top;
pos = (329,750);
}
);
layerId = "9E464B93-4987-4E25-B327-76BD95426741";
metricLeft = "=H";
metricRight = "=O+5";
shapes = (
{
closed = 1;
nodes = (
(313,0,ls),
(486,0,o),
(579,82,o),
(582,212,cs),
(584,318,o),
(485,392,o),
(361,401,c),
(465,429,o),
(531,499,o),
(531,582,cs),
(531,676,o),
(477,750,o),
(340,750,cs),
(74,750,l),
(70,742,l),
(120,742,o),
(170,742,o),
(170,712,cs),
(170,38,ls),
(170,8,o),
(120,8,o),
(70,8,c),
(70,0,l)
);
},
{
closed = 1;
nodes = (
(232,11,o),
(190,11,o),
(190,38,cs),
(190,391,l),
(309,391,ls),
(495,391,o),
(560,299,o),
(560,197,cs),
(560,100,o),
(469,11,o),
(324,11,cs)
);
},
{
closed = 1;
nodes = (
(190,739,l),
(320,739,ls),
(467,739,o),
(512,647,o),
(512,574,cs),
(512,486,o),
(414,402,o),
(302,402,cs),
(190,402,l)
);
}
);
width = 657;
},
{
anchors = (
{
name = bottom;
pos = (311,0);
},
{
name = center;
pos = (129,214);
},
{
name = top;
pos = (311,750);
}
);
layerId = "BABFB3A0-9CFA-45ED-BD0F-DD711F12EEFF";
metricLeft = "=N";
metricRight = "=O-5";
shapes = (
{
closed = 1;
nodes = (
(338,0,ls),
(471,0,o),
(559,92,o),
(559,215,cs),
(559,339,o),
(476,388,o),
(411,402,c),
(473,418,o),
(525,481,o),
(525,561,cs),
(525,673,o),
(444,750,o),
(320,750,cs),
(80,750,l),
(80,750,l),
(80,720,o),
(80,650,o),
(80,500,cs),
(80,250,ls),
(80,100,o),
(80,30,o),
(80,0,c),
(80,0,l)
);
},
{
closed = 1;
nodes = (
(263,80,o),
(170,80,o),
(170,80,c),
(170,351,l),
(338,351,ls),
(413,351,o),
(473,291,o),
(473,215,cs),
(473,138,o),
(413,80,o),
(338,80,cs)
);
},
{
closed = 1;
nodes = (
(170,670,l),
(320,670,ls),
(386,670,o),
(439,616,o),
(439,551,cs),
(439,484,o),
(386,431,o),
(320,431,cs),
(170,431,l)
);
}
);
width = 604;
},
{
anchors = (
{
name = bottom;
pos = (360,0);
},
{
name = center;
pos = (360,375);
},
{
name = top;
pos = (360,750);
}
);
layerId = "C8CD87A0-2407-4F05-BADA-4D8336545B60";
metricLeft = "=N";
metricRight = "=O-5";
shapes = (
{
closed = 1;
nodes = (
(463,0,ls),
(596,0,o),
(684,92,o),
(684,215,cs),
(684,339,o),
(601,388,o),
(536,402,c),
(598,418,o),
(650,481,o),
(650,561,cs),
(650,673,o),
(569,750,o),
(445,750,cs),
(50,750,l),
(50,750,l),
(50,720,o),
(50,650,o),
(50,500,cs),
(50,250,ls),
(50,100,o),
(50,30,o),
(50,0,c),
(50,0,l)
);
},
{
closed = 1;
nodes = (
(325,192,o),
(285,192,o),
(285,192,c),
(285,311,l),
(394,311,ls),
(427,311,o),
(453,285,o),
(453,251,cs),
(453,218,o),
(427,192,o),
(394,192,cs)
);
},
{
closed = 1;
nodes = (
(285,564,l),
(390,564,ls),
(423,564,o),
(448,538,o),
(448,506,cs),
(448,472,o),
(423,447,o),
(390,447,cs),
(285,447,l)
);
}
);
width = 719;
},
{
anchors = (
{
name = bottom;
pos = (294,0);
},
{
name = center;
pos = (294,375);
},
{
name = top;
pos = (294,750);
}
);
layerId = "48DAC09D-95D4-4D70-8D14-87ABECD8575B";
metricLeft = "=N";
metricRight = "=O-5";
shapes = (
{
closed = 1;
nodes = (
(319,0,ls),
(432,0,o),
(523,86,o),
(523,205,cs),
(523,329,o),
(445,396,o),
(349,402,c),
(394,410,o),
(473,472,o),
(473,572,cs),
(473,669,o),
(391,750,o),
(294,750,cs),
(100,750,l),
(100,750,l),
(100,720,o),
(100,700,o),
(100,650,cs),
(100,100,ls),
(100,50,o),
(100,30,o),
(100,0,c),
(100,0,l)
);
},
{
closed = 1;
nodes = (
(205,14,o),
(116,14,o),
(116,14,c),
(116,391,l),
(319,391,ls),
(452,391,o),
(507,307,o),
(507,202,cs),
(507,94,o),
(423,14,o),
(319,14,cs)
);
},
{
closed = 1;
nodes = (
(116,736,l),
(294,736,ls),
(384,736,o),
(457,661,o),
(457,571,cs),
(457,481,o),
(384,405,o),
(294,405,cs),
(116,405,l)
);
}
);
width = 588;
}
);
metricLeft = "=N";
metricRight = "=O-5";
unicode = 66;
},
{
glyphname = C;
kernLeft = C;
lastChange = "2023-06-23 18:10:48 +0000";
layers = (
{
anchors = (
{
name = bottom;
pos = (396,0);
},
{
name = top;
pos = (376,750);
}
);
layerId = m01;
metricLeft = "=O";
metricRight = "=H+10";
shapes = (
{
closed = 1;
nodes = (
(546,-10,o),
(619,28,o),
(673,75,c),
(692,238,l),
(641,239,l),
(627,149,o),
(593,67,o),
(465,67,cs),
(264,67,o),
(164,222,o),
(164,412,cs),
(164,577,o),
(269,682,o),
(417,682,cs),
(582,682,o),
(637,629,o),
(617,494,c),
(668,487,l),
(691,673,l),
(628,736,o),
(538,760,o),
(437,760,cs),
(254,760,o),
(50,588,o),
(50,354,cs),
(50,156,o),
(170,-10,o),
(408,-10,cs)
);
}
);
width = 752;
},
{
anchors = (
{
name = bottom;
pos = (405,0);
},
{
name = top;
pos = (405,750);
}
);
layerId = "C36E42DF-D6E4-4FAF-B5BA-99700BA29EB5";
metricLeft = "=O";
metricRight = "=H+10";
shapes = (
{
closed = 1;
nodes = (
(562,-10,o),
(686,59,o),
(750,106,c),
(770,313,l),
(557,317,l),
(545,236,o),
(485,198,o),
(439,198,cs),
(361,198,o),
(300,271,o),
(300,399,cs),
(300,482,o),
(347,552,o),
(420,552,cs),
(484,552,o),
(537,500,o),
(537,441,c),
(750,432,l),
(750,651,l),
(677,714,o),
(536,760,o),
(435,760,cs),
(203,760,o),
(30,588,o),
(30,354,cs),
(30,156,o),
(170,-10,o),
(424,-10,cs)
);
}
);
width = 810;
},
{
anchors = (
{
name = bottom;
pos = (390,0);
},
{
name = top;
pos = (390,750);
}
);
layerId = "9E464B93-4987-4E25-B327-76BD95426741";
metricLeft = "=O";
metricRight = "=H+10";
shapes = (
{
closed = 1;
nodes = (
(578,-10,o),
(644,43,o),
(684,74,c),
(699,171,l),
(688,171,l),
(673,83,o),
(617,5,o),
(447,5,cs),
(235,5,o),
(91,185,o),
(91,386,cs),
(91,577,o),
(251,745,o),
(437,745,cs),
(629,745,o),
(682,666,o),
(673,571,c),
(683,570,l),
(694,659,l),
(659,718,o),
(573,760,o),
(452,760,cs),
(249,760,o),
(70,588,o),
(70,354,cs),
(70,166,o),
(225,-10,o),
(436,-10,cs)
);
}
);
width = 779;
},
{
anchors = (
{
name = bottom;
pos = (417,0);
},
{
name = top;
pos = (417,750);
}
);
layerId = "BABFB3A0-9CFA-45ED-BD0F-DD711F12EEFF";
metricLeft = "=O";
metricRight = "=O";
shapes = (
{
closed = 1;
nodes = (
(579,-10,o),
(676,74,o),
(739,185,c),
(664,230,l),
(664,230,l),
(608,145,o),
(548,74,o),
(417,74,cs),
(256,74,o),
(140,214,o),
(140,375,cs),
(140,540,o),
(256,676,o),
(417,676,cs),
(539,676,o),
(618,593,o),
(662,502,c),
(662,502,l),
(739,549,l),
(669,684,o),
(559,760,o),
(417,760,cs),
(204,760,o),
(50,588,o),
(50,374,cs),
(50,162,o),
(204,-10,o),
(417,-10,cs)
);
}
);
width = 789;
},
{
anchors = (
{
name = bottom;
pos = (415,0);
},
{
name = top;
pos = (415,750);
}
);
layerId = "C8CD87A0-2407-4F05-BADA-4D8336545B60";
metricLeft = "=O";
metricRight = "=O";
shapes = (
{
closed = 1;
nodes = (
(607,-10,o),
(723,77,o),
(789,188,c),
(585,316,l),
(585,316,l),
(542,248,o),
(494,213,o),
(435,213,cs),
(357,213,o),
(283,275,o),
(283,375,cs),
(283,475,o),
(357,537,o),
(435,537,cs),
(499,537,o),
(547,495,o),
(583,418,c),
(583,418,l),
(789,535,l),
(736,663,o),
(599,760,o),
(435,760,cs),
(222,760,o),
(40,598,o),
(40,375,cs),
(40,152,o),
(222,-10,o),
(435,-10,cs)
);
}
);
width = 829;
},
{
anchors = (
{
name = bottom;
pos = (413,0);
},
{
name = top;
pos = (413,750);
}
);
layerId = "48DAC09D-95D4-4D70-8D14-87ABECD8575B";
metricLeft = "=O";
metricRight = "=O";
shapes = (
{
closed = 1;
nodes = (
(597,-10,o),
(692,74,o),
(755,185,c),
(741,195,l),
(741,195,l),
(681,88,o),
(587,6,o),
(437,6,cs),
(234,6,o),
(86,172,o),
(86,375,cs),
(86,582,o),
(234,744,o),
(437,744,cs),
(577,744,o),
(678,661,o),
(741,539,c),
(741,539,l),
(755,549,l),
(685,684,o),
(577,760,o),
(435,760,cs),
(222,760,o),
(70,588,o),
(70,374,cs),
(70,162,o),
(222,-10,o),
(435,-10,cs)
);
}
);
width = 825;
}
);
metricLeft = "=O";
metricRight = "=O";
unicode = 67;
},
{
glyphname = D;
kernRight = D;
lastChange = "2023-06-23 18:10:42 +0000";
layers = (
{
anchors = (
{
name = bottom;
pos = (421,0);
},
{
name = center;
pos = (200,375);
},
{
name = top;
pos = (421,750);
}
);
layerId = m01;
metricLeft = "=H";
metricRight = "=O";
shapes = (
{
closed = 1;
nodes = (
(578,0,o),
(792,162,o),
(792,396,cs),
(792,594,o),
(662,750,o),
(424,750,cs),
(57,750,l),
(51,712,l),
(111,693,o),
(140,669,o),
(140,638,cs),
(140,123,ls),
(140,78,o),
(110,56,o),
(50,38,c),
(50,0,l),
(395,0,l)
);
},
{
closed = 1;
nodes = (
(245,680,l),
(367,680,ls),
(583,680,o),
(671,540,o),
(671,350,cs),
(671,185,o),
(536,70,o),
(357,70,cs),
(271,70,o),
(245,75,o),
(245,126,c)
);
}
);
width = 842;
},
{
anchors = (
{
name = bottom;
pos = (428,0);
},
{
name = center;
pos = (428,375);
},
{
name = top;
pos = (428,750);
}
);
layerId = "C36E42DF-D6E4-4FAF-B5BA-99700BA29EB5";
metricLeft = "=H";
metricRight = "=O";
shapes = (
{
closed = 1;
nodes = (
(611,0,o),
(825,162,o),
(825,396,cs),
(825,594,o),
(695,750,o),
(457,750,cs),
(52,750,l),
(36,602,l),
(61,583,o),
(90,559,o),
(90,498,cs),
(90,262,ls),
(90,178,o),
(71,164,o),
(30,148,c),
(30,0,l),
(428,0,l)
);
},
{
closed = 1;
nodes = (
(330,538,l),
(396,538,ls),
(520,538,o),
(557,463,o),
(557,361,cs),
(557,273,o),
(495,212,o),
(389,212,cs),
(344,212,o),
(330,231,o),
(330,287,c)
);
}
);
width = 855;
},
{
anchors = (
{
name = bottom;
pos = (405,0);
},
{
name = center;
pos = (405,375);
},
{
name = top;
pos = (405,750);
}
);
layerId = "9E464B93-4987-4E25-B327-76BD95426741";
metricLeft = "=N";
metricRight = "=O";
shapes = (
{
closed = 1;
nodes = (
(552,0,o),
(739,162,o),
(739,396,cs),
(739,584,o),
(606,750,o),
(428,750,cs),
(74,750,l),
(70,742,l),
(120,742,o),
(170,742,o),
(170,712,cs),
(170,38,ls),
(170,8,o),
(120,8,o),
(70,8,c),
(70,0,l),
(359,0,l)
);
},
{
closed = 1;
nodes = (
(190,739,l),
(404,739,ls),
(601,739,o),
(716,552,o),
(716,374,cs),
(716,173,o),
(549,11,o),
(367,11,cs),
(190,11,o),
(190,11,o),
(190,38,c)
);
}
);
width = 809;
},
{
anchors = (
{
name = bottom;
pos = (366,0);
},
{
name = center;
pos = (127,375);
},
{
name = top;
pos = (366,750);
}
);
layerId = "BABFB3A0-9CFA-45ED-BD0F-DD711F12EEFF";
metricLeft = "=N";
metricRight = "=O";
shapes = (
{
closed = 1;
nodes = (
(514,0,o),
(682,168,o),
(682,375,cs),
(682,582,o),
(514,750,o),
(307,750,cs),
(80,750,l),
(80,750,l),
(80,720,o),
(80,650,o),
(80,500,cs),
(80,250,ls),
(80,100,o),
(80,30,o),
(80,0,c),
(80,0,l),
(307,0,l)
);
},
{
closed = 1;
nodes = (
(170,670,l),
(299,670,ls),
(482,670,o),
(595,517,o),
(595,375,cs),
(595,233,o),
(482,80,o),
(299,80,cs),
(299,80,o),
(170,80,o),
(170,80,c)
);
}
);
width = 732;
},
{
anchors = (
{
name = bottom;
pos = (391,0);
},
{
name = center;
pos = (391,375);
},
{
name = top;
pos = (391,750);
}
);
layerId = "C8CD87A0-2407-4F05-BADA-4D8336545B60";
metricLeft = "=N";
metricRight = "=O";
shapes = (
{
closed = 1;
nodes = (
(574,0,o),
(742,168,o),
(742,375,cs),
(742,582,o),
(574,750,o),
(377,750,cs),
(50,750,l),
(50,750,l),
(50,720,o),
(50,650,o),
(50,500,cs),
(50,250,ls),
(50,100,o),
(50,30,o),
(50,0,c),
(50,0,l),
(377,0,l)
);
},
{
closed = 1;
nodes = (
(290,520,l),
(367,520,ls),
(457,520,o),
(492,445,o),
(492,375,cs),
(492,305,o),
(457,230,o),
(367,230,cs),
(367,230,o),
(290,230,o),
(290,230,c)
);
}
);
width = 782;
},
{
anchors = (
{
name = bottom;
pos = (379,0);
},
{
name = center;
pos = (379,375);
},
{
name = top;
pos = (379,750);
}
);
layerId = "48DAC09D-95D4-4D70-8D14-87ABECD8575B";
metricLeft = "=N";
metricRight = "=O";
shapes = (
{
closed = 1;
nodes = (
(519,0,o),
(687,168,o),
(687,375,cs),
(687,582,o),
(519,750,o),
(312,750,cs),
(100,750,l),
(100,750,l),
(100,720,o),
(100,700,o),
(100,650,cs),
(100,100,ls),
(100,50,o),
(100,30,o),
(100,0,c),
(100,0,l),
(312,0,l)
);
},
{
closed = 1;
nodes = (
(116,736,l),
(308,736,ls),
(531,736,o),
(671,549,o),
(671,375,cs),
(671,201,o),
(531,14,o),
(308,14,cs),
(308,14,o),
(116,14,o),
(116,14,c)
);
}
);
width = 757;
}
);
metricLeft = "=N";
metricRight = "=O";
unicode = 68;
},
{
glyphname = Dhook;
lastChange = "2023-06-24 02:21:10 +0000";
layers = (
{
layerId = "9E464B93-4987-4E25-B327-76BD95426741";
shapes = (
{
closed = 1;
nodes = (
(23,538,l),
(7,553,o),
(-20,586,o),
(-20,615,cs),
(-20,651,o),
(11,680,o),
(60,680,cs),
(99,680,o),
(140,662,o),
(140,624,c),
(140,750,l),
(56,750,ls),
(-14,750,o),
(-93,713,o),
(-93,642,cs),
(-93,581,o),
(-29,529,o),
(-4,522,c)
);
},
{
ref = D;
}
);
width = 809;
},
{
layerId = "48DAC09D-95D4-4D70-8D14-87ABECD8575B";
shapes = (
{
closed = 1;
nodes = (
(40,553,l),
(14,572,o),
(-3,599,o),
(-3,626,cs),
(-3,655,o),
(21,670,o),
(50,670,cs),
(99,670,o),
(115,670,o),
(140,670,c),
(140,750,l),
(46,750,ls),
(-34,750,o),
(-93,706,o),
(-93,627,cs),
(-93,561,o),
(-51,522,o),
(-20,496,c)
);
},
{
ref = D;
}
);
width = 757;
},
{
layerId = m01;
shapes = (
{
closed = 1;
nodes = (
(23,538,l),
(7,553,o),
(-20,586,o),
(-20,615,cs),
(-20,651,o),
(11,680,o),
(60,680,cs),
(99,680,o),
(140,662,o),
(140,624,c),
(140,750,l),
(56,750,ls),
(-14,750,o),
(-93,713,o),
(-93,642,cs),
(-93,581,o),
(-29,529,o),
(-4,522,c)
);
},
{
ref = D;
}
);
width = 842;
},
{
layerId = "BABFB3A0-9CFA-45ED-BD0F-DD711F12EEFF";
shapes = (
{
closed = 1;
nodes = (
(40,553,l),
(14,572,o),
(-3,599,o),
(-3,626,cs),
(-3,655,o),
(21,670,o),
(50,670,cs),
(99,670,o),
(115,670,o),
(140,670,c),
(140,750,l),
(46,750,ls),
(-34,750,o),
(-93,706,o),
(-93,627,cs),
(-93,561,o),
(-51,522,o),
(-20,496,c)
);
},
{
ref = D;
}
);
width = 732;
},
{
layerId = "C36E42DF-D6E4-4FAF-B5BA-99700BA29EB5";
shapes = (
{
closed = 1;
nodes = (
(23,538,l),
(7,553,o),
(-20,586,o),
(-20,615,cs),
(-20,651,o),
(11,680,o),
(60,680,cs),
(99,680,o),
(140,662,o),
(140,624,c),
(140,750,l),
(56,750,ls),
(-14,750,o),
(-93,713,o),
(-93,642,cs),
(-93,581,o),
(-29,529,o),
(-4,522,c)
);
},
{
ref = D;
}
);
width = 855;
},
{
layerId = "C8CD87A0-2407-4F05-BADA-4D8336545B60";
shapes = (
{
closed = 1;
nodes = (
(40,553,l),
(14,572,o),
(-3,599,o),
(-3,626,cs),
(-3,655,o),
(21,670,o),
(50,670,cs),
(99,670,o),
(115,670,o),
(140,670,c),
(140,750,l),
(46,750,ls),
(-34,750,o),
(-93,706,o),
(-93,627,cs),
(-93,561,o),
(-51,522,o),
(-20,496,c)
);
},
{
ref = D;
}
);
width = 782;
}
);
metricRight = "=D";
unicode = 394;
},
{
glyphname = E;
lastChange = "2023-06-23 18:44:13 +0000";
layers = (
{
anchors = (
{
name = bottom;
pos = (339,0);
},
{
name = ogonek;
pos = (555,10);
},
{
name = top;
pos = (339,750);
},
{
name = topleft;
pos = (20,750);
}
);
layerId = m01;
metricLeft = "=H";
metricRight = "=O-10";
shapes = (
{
closed = 1;
nodes = (
(245,411,l),
(245,680,l),
(463,680,ls),
(527,680,o),
(532,608,o),
(532,575,c),
(585,563,l),
(607,739,l),
(592,750,l),
(57,750,l),
(51,712,l),
(111,693,o),
(140,669,o),
(140,638,cs),
(140,123,ls),
(140,78,o),
(110,56,o),
(50,38,c),
(50,0,l),
(582,0,l),
(637,174,l),
(587,192,l),
(563,119,o),
(513,70,o),
(444,70,cs),
(245,70,l),
(245,341,l),
(477,341,l),
(477,411,l)
);
}
);
width = 677;
},
{
anchors = (
{
name = bottom;
pos = (384,0);
},
{
name = ogonek;
pos = (691,10);
},
{
name = top;
pos = (384,750);
},
{
name = topleft;
pos = (20,750);
}
);
layerId = "C36E42DF-D6E4-4FAF-B5BA-99700BA29EB5";
metricLeft = "=H";
metricRight = "=O-10";
shapes = (
{
closed = 1;
nodes = (
(330,469,l),
(330,546,l),
(494,546,ls),
(555,546,o),
(579,528,o),
(573,485,c),
(706,463,l),
(742,700,l),
(693,750,l),
(52,750,l),
(36,602,l),
(61,583,o),
(90,559,o),
(90,498,cs),
(90,262,ls),
(90,178,o),
(71,164,o),
(30,148,c),
(30,0,l),
(696,0,l),
(748,244,l),
(618,266,l),
(600,211,o),
(557,204,o),
(488,204,cs),
(330,204,l),
(330,285,l),
(510,285,l),
(510,469,l)
);
}
);
width = 768;
},
{
anchors = (
{
name = bottom;
pos = (318,0);
},
{
name = ogonek;
pos = (572,10);
},
{
name = top;
pos = (318,750);
},
{
name = topleft;
pos = (20,750);
}
);
layerId = "9E464B93-4987-4E25-B327-76BD95426741";
metricLeft = "=H";
metricRight = "=O-10";
shapes = (
{
closed = 1;
nodes = (
(190,383,l),
(190,739,l),
(482,739,ls),
(547,739,o),
(555,739,o),
(542,629,c),
(553,625,l),
(567,739,l),
(552,750,l),
(74,750,l),
(70,742,l),
(120,742,o),
(170,742,o),
(170,712,cs),
(170,38,ls),
(170,8,o),
(120,8,o),
(70,8,c),
(70,0,l),
(539,0,l),
(576,116,l),
(566,119,l),
(527,11,o),
(527,11,o),
(457,11,cs),
(190,11,l),
(190,372,l),
(435,372,l),
(435,383,l)
);
}
);
width = 636;
},
{
anchors = (
{
name = bottom;
pos = (304,0);
},
{
name = ogonek;
pos = (505,10);
},
{
name = top;
pos = (304,750);
},
{
name = topleft;
pos = (20,750);
}
);
layerId = "BABFB3A0-9CFA-45ED-BD0F-DD711F12EEFF";
metricLeft = "=N";
metricRight = "=N-20";
shapes = (
{
closed = 1;
nodes = (
(170,416,l),
(170,670,l),
(277,670,ls),
(427,670,o),
(497,670,o),
(527,670,c),
(527,670,l),
(527,750,l),
(527,750,l),
(80,750,l),
(80,750,l),
(80,720,o),
(80,650,o),
(80,500,cs),
(80,250,ls),
(80,100,o),
(80,30,o),
(80,0,c),
(80,0,l),
(527,0,l),
(527,80,l),
(527,80,l),
(497,80,o),
(427,80,o),
(277,80,cs),
(170,80,l),
(170,336,l),
(402,336,l),
(402,416,l)
);
}
);
width = 587;
},
{
anchors = (
{
name = bottom;
pos = (338,0);
},
{
name = ogonek;
pos = (608,10);
},
{
name = top;
pos = (338,750);
},
{
name = topleft;
pos = (20,750);
}
);
layerId = "C8CD87A0-2407-4F05-BADA-4D8336545B60";
metricLeft = "=N";
metricRight = "=N-20";
shapes = (
{
closed = 1;
nodes = (
(290,470,l),
(290,540,l),
(396,540,ls),
(546,540,o),
(616,540,o),
(646,540,c),
(646,540,l),
(646,750,l),
(646,750,l),
(50,750,l),
(50,750,l),
(50,720,o),
(50,650,o),
(50,500,cs),
(50,250,ls),
(50,100,o),
(50,30,o),
(50,0,c),
(50,0,l),
(646,0,l),
(646,210,l),
(646,210,l),
(616,210,o),
(546,210,o),
(396,210,cs),
(290,210,l),
(290,280,l),
(470,280,l),
(470,470,l)
);
}
);
width = 676;
},
{
anchors = (
{
name = bottom;
pos = (292,0);
},
{
name = ogonek;
pos = (525,10);
},
{
name = top;
pos = (292,750);
},
{
name = topleft;
pos = (20,750);
}
);
layerId = "48DAC09D-95D4-4D70-8D14-87ABECD8575B";
metricLeft = "=N";
metricRight = "=N-20";
shapes = (
{
closed = 1;
nodes = (
(116,382,l),
(116,736,l),
(403,736,ls),
(453,736,o),
(473,736,o),
(503,736,c),
(503,736,l),
(503,750,l),
(503,750,l),
(100,750,l),
(100,750,l),
(100,720,o),
(100,700,o),
(100,650,cs),
(100,100,ls),
(100,50,o),
(100,30,o),
(100,0,c),
(100,0,l),
(503,0,l),
(503,14,l),
(503,14,l),
(473,14,o),
(453,14,o),
(403,14,cs),
(116,14,l),
(116,368,l),
(378,368,l),
(378,382,l)
);
}
);
width = 583;
}
);
metricLeft = "=N";
metricRight = "=N-20";
unicode = 69;
},
{
glyphname = Schwa;
lastChange = "2023-06-24 02:04:00 +0000";
layers = (
{
layerId = "9E464B93-4987-4E25-B327-76BD95426741";
shapes = (
{
closed = 1;
nodes = (
(225,760,o),
(106,656,o),
(70,603,c),
(96,572,l),
(162,641,o),
(289,690,o),
(381,690,cs),
(536,690,o),
(633,556,o),
(652,450,c),
(509,425,o),
(232,355,o),
(83,301,c),
(73,287,l),
(101,115,o),
(236,-10,o),
(399,-10,cs),
(576,-10,o),
(765,159,o),
(765,375,cs),
(765,584,o),
(630,760,o),
(407,760,cs)
);
},
{
closed = 1;
nodes = (
(657,194,o),
(561,62,o),
(430,62,cs),
(281,62,o),
(216,168,o),
(188,260,c),
(351,312,o),
(495,355,o),
(653,375,c)
);
}
);
width = 835;
},
{
layerId = "48DAC09D-95D4-4D70-8D14-87ABECD8575B";
shapes = (
{
closed = 1;
nodes = (
(239,759,o),
(131,622,o),
(93,565,c),
(163,521,l),
(219,602,o),
(315,675,o),
(450,675,cs),
(633,675,o),
(739,537,o),
(739,413,c),
(582,413,o),
(227,413,o),
(70,413,c),
(70,395,l),
(70,159,o),
(231,-10,o),
(450,-10,cs),
(656,-10,o),
(826,164,o),
(826,375,cs),
(826,588,o),
(656,759,o),
(450,759,cs)
);
},
{
closed = 1;
nodes = (
(739,205,o),
(614,74,o),
(450,74,cs),
(285,74,o),
(159,205,o),
(159,333,c),
(316,333,o),
(583,333,o),
(739,333,c)
);
}
);
width = 896;
},
{
layerId = m01;
shapes = (
{
closed = 1;
nodes = (
(205,760,o),
(86,656,o),
(50,603,c),
(76,572,l),
(142,641,o),
(269,690,o),
(361,690,cs),
(516,690,o),
(613,556,o),
(632,450,c),
(489,425,o),
(212,355,o),
(63,301,c),
(53,287,l),
(81,115,o),
(216,-10,o),
(379,-10,cs),
(556,-10,o),
(745,159,o),
(745,375,cs),
(745,584,o),
(610,760,o),
(387,760,cs)
);
},
{
closed = 1;
nodes = (
(637,194,o),
(541,62,o),
(410,62,cs),
(261,62,o),
(196,168,o),
(168,260,c),
(331,312,o),
(475,355,o),
(633,375,c)
);
}
);
width = 795;
},
{
layerId = "BABFB3A0-9CFA-45ED-BD0F-DD711F12EEFF";
shapes = (
{
closed = 1;
nodes = (
(219,759,o),
(111,622,o),
(73,565,c),
(143,521,l),
(199,602,o),
(295,675,o),
(430,675,cs),
(613,675,o),
(719,537,o),
(719,413,c),
(562,413,o),
(207,413,o),
(50,413,c),
(50,395,l),
(50,159,o),
(211,-10,o),
(430,-10,cs),
(636,-10,o),
(806,164,o),
(806,375,cs),
(806,588,o),
(636,759,o),
(430,759,cs)
);
},
{
closed = 1;
nodes = (
(719,205,o),
(594,74,o),
(430,74,cs),
(265,74,o),
(139,205,o),
(139,333,c),
(296,333,o),
(563,333,o),
(719,333,c)
);
}
);
width = 856;
},
{
layerId = "C36E42DF-D6E4-4FAF-B5BA-99700BA29EB5";
shapes = (
{
closed = 1;
nodes = (
(185,760,o),
(66,656,o),
(30,603,c),
(56,572,l),
(122,641,o),
(249,690,o),
(341,690,cs),
(496,690,o),
(593,556,o),
(612,450,c),
(469,425,o),
(192,355,o),
(43,301,c),
(33,287,l),
(61,115,o),
(196,-10,o),
(359,-10,cs),
(536,-10,o),
(725,159,o),
(725,375,cs),
(725,584,o),
(590,760,o),
(367,760,cs)
);
},
{
closed = 1;
nodes = (
(617,194,o),
(521,62,o),
(390,62,cs),
(241,62,o),
(176,168,o),
(148,260,c),
(311,312,o),
(455,355,o),
(613,375,c)
);
}
);
width = 755;
},
{
layerId = "C8CD87A0-2407-4F05-BADA-4D8336545B60";
shapes = (
{
closed = 1;
nodes = (
(209,759,o),
(101,622,o),
(63,565,c),
(133,521,l),
(189,602,o),
(285,675,o),
(420,675,cs),
(603,675,o),
(709,537,o),
(709,413,c),
(552,413,o),
(197,413,o),
(40,413,c),
(40,395,l),
(40,159,o),
(201,-10,o),
(420,-10,cs),
(626,-10,o),
(796,164,o),
(796,375,cs),
(796,588,o),
(626,759,o),
(420,759,cs)
);
},
{
closed = 1;
nodes = (
(709,205,o),
(584,74,o),
(420,74,cs),
(255,74,o),
(129,205,o),
(129,333,c),
(286,333,o),
(553,333,o),
(709,333,c)
);
}
);
width = 836;
}
);
metricLeft = "=O";
metricRight = "=O";
unicode = 399;
},
{
glyphname = Ezh;
lastChange = "2023-06-24 02:03:56 +0000";
layers = (
{
anchors = (
{
name = bottom;
pos = (313,0);
},
{
name = top;
pos = (313,750);
}
);
layerId = "9E464B93-4987-4E25-B327-76BD95426741";
shapes = (
{
closed = 1;
nodes = (
(425,-10,o),
(556,90,o),
(556,241,cs),
(556,354,o),
(426,433,o),
(332,428,c),
(544,719,l),
(530,750,l),
(89,750,l),
(67,586,l),
(116,576,l),
(135,641,o),
(186,680,o),
(253,680,cs),
(417,680,l),
(220,391,l),
(248,357,l),
(366,365,o),
(452,291,o),
(452,209,cs),
(452,124,o),
(397,68,o),
(303,68,cs),
(232,68,o),
(169,126,o),
(137,167,c),
(60,89,l),
(106,42,o),
(188,-10,o),
(276,-10,cs)
);
}
);
width = 626;
},
{
anchors = (
{
name = bottom;
pos = (322,0);
},
{
name = top;
pos = (322,750);
}
);
layerId = "48DAC09D-95D4-4D70-8D14-87ABECD8575B";
shapes = (
{
closed = 1;
nodes = (
(458,-10,o),
(573,73,o),
(573,208,cs),
(573,334,o),
(493,414,o),
(354,425,c),
(539,670,l),
(539,750,l),
(105,750,l),
(105,670,l),
(105,670,l),
(135,670,o),
(205,670,o),
(355,670,cs),
(432,670,l),
(253,430,l),
(253,359,l),
(429,359,o),
(481,299,o),
(481,217,cs),
(481,140,o),
(418,74,o),
(321,74,cs),
(222,74,o),
(174,132,o),
(153,207,c),
(70,172,l),
(93,60,o),
(185,-10,o),
(321,-10,cs)
);
}
);
width = 643;
},
{
anchors = (
{
name = bottom;
pos = (293,0);
},
{
name = top;
pos = (293,750);
}
);
layerId = m01;
shapes = (
{
closed = 1;
nodes = (
(405,-10,o),
(536,90,o),
(536,241,cs),
(536,354,o),
(406,433,o),
(312,428,c),
(524,719,l),
(510,750,l),
(69,750,l),
(47,586,l),
(96,576,l),
(115,641,o),
(166,680,o),
(233,680,cs),
(397,680,l),
(200,391,l),
(228,357,l),
(346,365,o),
(432,291,o),
(432,209,cs),
(432,124,o),
(377,68,o),
(283,68,cs),
(212,68,o),
(149,126,o),
(117,167,c),
(40,89,l),
(86,42,o),
(168,-10,o),
(256,-10,cs)
);
}
);
width = 586;
},
{
anchors = (
{
name = bottom;
pos = (302,0);
},
{
name = top;
pos = (302,750);
}
);
layerId = "BABFB3A0-9CFA-45ED-BD0F-DD711F12EEFF";
shapes = (
{
closed = 1;
nodes = (
(438,-10,o),
(553,73,o),
(553,208,cs),
(553,334,o),
(473,414,o),
(334,425,c),
(519,670,l),
(519,750,l),
(85,750,l),
(85,670,l),
(85,670,l),
(115,670,o),
(185,670,o),
(335,670,cs),
(412,670,l),
(233,430,l),
(233,359,l),
(409,359,o),
(461,299,o),
(461,217,cs),
(461,140,o),
(398,74,o),
(301,74,cs),
(202,74,o),
(154,132,o),
(133,207,c),
(50,172,l),
(73,60,o),
(165,-10,o),
(301,-10,cs)
);
}
);
width = 603;
},
{
anchors = (
{
name = bottom;
pos = (273,0);
},
{
name = top;
pos = (273,750);
}
);
layerId = "C36E42DF-D6E4-4FAF-B5BA-99700BA29EB5";
shapes = (
{
closed = 1;
nodes = (
(385,-10,o),
(516,90,o),
(516,241,cs),
(516,354,o),
(386,433,o),
(292,428,c),
(504,719,l),
(490,750,l),
(49,750,l),
(27,586,l),
(76,576,l),
(95,641,o),
(146,680,o),
(213,680,cs),
(377,680,l),
(180,391,l),
(208,357,l),
(326,365,o),
(412,291,o),
(412,209,cs),
(412,124,o),
(357,68,o),
(263,68,cs),
(192,68,o),
(129,126,o),
(97,167,c),
(20,89,l),
(66,42,o),
(148,-10,o),
(236,-10,cs)
);
}
);
width = 546;
},
{
anchors = (
{
name = bottom;
pos = (292,0);
},
{
name = top;
pos = (292,750);
}
);
layerId = "C8CD87A0-2407-4F05-BADA-4D8336545B60";
shapes = (
{
closed = 1;
nodes = (
(428,-10,o),
(543,73,o),
(543,208,cs),
(543,334,o),
(463,414,o),
(324,425,c),
(509,670,l),
(509,750,l),
(75,750,l),
(75,670,l),
(75,670,l),
(105,670,o),
(175,670,o),
(325,670,cs),
(402,670,l),
(223,430,l),
(223,359,l),
(399,359,o),
(451,299,o),
(451,217,cs),
(451,140,o),
(388,74,o),
(291,74,cs),
(192,74,o),
(144,132,o),
(123,207,c),
(40,172,l),
(63,60,o),
(155,-10,o),
(291,-10,cs)
);
}
);
width = 583;
}
);
metricLeft = "=three";
metricRight = "=three";
unicode = 439;
},
{
glyphname = F;
kernRight = F;
lastChange = "2023-06-12 21:17:10 +0000";
layers = (
{
anchors = (
{
name = bottom;
pos = (324,0);
},
{
name = top;
pos = (324,750);
}
);
layerId = m01;
metricLeft = "=H";
metricRight = "=E-10";
shapes = (
{
closed = 1;
nodes = (
(245,401,l),
(245,680,l),
(473,680,ls),
(537,680,o),
(542,608,o),
(542,575,c),
(595,563,l),
(617,739,l),
(602,750,l),
(57,750,l),
(51,712,l),
(111,693,o),
(140,669,o),
(140,638,cs),
(140,123,ls),
(140,78,o),
(110,56,o),
(50,38,c),
(50,0,l),
(329,0,l),
(335,38,l),
(271,58,o),
(245,65,o),
(245,100,c),
(245,331,l),
(477,331,l),
(477,401,l)
);
}
);
width = 647;
},
{
anchors = (
{
name = bottom;
pos = (376,0);
},
{
name = top;
pos = (376,750);
}
);
layerId = "C36E42DF-D6E4-4FAF-B5BA-99700BA29EB5";
metricLeft = "=H";
metricRight = "=E-10";
shapes = (
{
closed = 1;
nodes = (
(330,459,l),
(330,546,l),
(494,546,ls),
(555,546,o),
(576,528,o),
(573,485,c),
(706,463,l),
(742,700,l),
(693,750,l),
(52,750,l),
(36,602,l),
(61,583,o),
(90,559,o),
(90,498,cs),
(90,262,ls),
(90,178,o),
(71,164,o),
(30,148,c),
(30,0,l),
(394,0,l),
(410,148,l),
(355,166,o),
(330,194,o),
(330,269,c),
(330,275,l),
(510,275,l),
(510,459,l)
);
}
);
width = 752;
},
{
anchors = (
{
name = bottom;
pos = (310,0);
},
{
name = top;
pos = (310,750);
}
);
layerId = "9E464B93-4987-4E25-B327-76BD95426741";
metricLeft = "=H";
metricRight = "=E-10";
shapes = (
{
closed = 1;
nodes = (
(190,373,l),
(190,739,l),
(485,739,ls),
(550,739,o),
(558,739,o),
(545,629,c),
(556,625,l),
(570,739,l),
(555,750,l),
(74,750,l),
(70,742,l),
(120,742,o),
(170,742,o),
(170,712,cs),
(170,38,ls),
(170,8,o),
(120,8,o),
(70,8,c),
(70,0,l),
(286,0,l),
(290,8,l),
(240,8,o),
(190,8,o),
(190,38,c),
(190,362,l),
(445,362,l),
(445,373,l)
);
}
);
width = 620;
},
{
anchors = (
{
name = bottom;
pos = (274,0);
},
{
name = top;
pos = (274,750);
}
);
layerId = "BABFB3A0-9CFA-45ED-BD0F-DD711F12EEFF";
metricLeft = "=N";
metricRight = "=N-60";
shapes = (
{
closed = 1;
nodes = (
(170,406,l),
(170,670,l),
(277,670,ls),
(427,670,o),
(497,670,o),
(527,670,c),
(527,670,l),
(527,750,l),
(527,750,l),
(80,750,l),
(80,750,l),
(80,720,o),
(80,650,o),
(80,500,cs),
(80,250,ls),
(80,100,o),
(80,30,o),
(80,0,c),
(80,0,l),
(170,0,l),
(170,0,l),
(170,30,o),
(170,100,o),
(170,250,c),
(170,326,l),
(402,326,l),
(402,406,l)
);
}
);
width = 547;
},
{
anchors = (
{
name = bottom;
pos = (319,0);
},
{
name = top;
pos = (319,750);
}
);
layerId = "C8CD87A0-2407-4F05-BADA-4D8336545B60";
metricLeft = "=N";
metricRight = "=N-60";
shapes = (
{
closed = 1;
nodes = (
(290,460,l),
(290,540,l),
(397,540,ls),
(547,540,o),
(617,540,o),
(647,540,c),
(647,540,l),
(647,750,l),
(647,750,l),
(50,750,l),
(50,750,l),
(50,720,o),
(50,650,o),
(50,500,cs),
(50,250,ls),
(50,100,o),
(50,30,o),
(50,0,c),
(50,0,l),
(290,0,l),
(290,0,l),
(290,30,o),
(290,100,o),
(290,250,c),
(290,270,l),
(522,270,l),
(522,460,l)
);
}
);
width = 637;
},
{
anchors = (
{
name = bottom;
pos = (257,0);
},
{
name = top;
pos = (257,750);
}
);
layerId = "48DAC09D-95D4-4D70-8D14-87ABECD8575B";
metricLeft = "=N";
metricRight = "=N-60";
shapes = (
{
closed = 1;
nodes = (
(116,373,l),
(116,736,l),
(373,736,ls),
(423,736,o),
(443,736,o),
(473,736,c),
(473,736,l),
(473,750,l),
(473,750,l),
(100,750,l),
(100,750,l),
(100,720,o),
(100,700,o),
(100,650,cs),
(100,60,ls),
(100,30,o),
(100,10,o),
(100,0,c),
(100,0,l),
(116,0,l),
(116,0,l),
(116,10,o),
(116,30,o),
(116,60,c),
(116,359,l),
(378,359,l),
(378,373,l)
);
}
);
width = 513;
}
);
metricLeft = "=N";
metricRight = "=N-60";
unicode = 70;
},
{
glyphname = G;
lastChange = "2023-06-24 02:08:43 +0000";
layers = (
{
anchors = (
{
name = bottom;
pos = (416,0);
},
{
name = center;
pos = (634,179);
},
{
name = top;
pos = (416,750);
}
);
layerId = m01;
metricLeft = "=O";
metricRight = "=E-10";
shapes = (
{
closed = 1;
nodes = (
(479,-10,o),
(558,4,o),
(622,35,c),
(703,0,l),
(717,11,l),
(717,236,l),
(729,268,o),
(756,284,o),
(801,304,c),
(801,342,l),
(519,342,l),
(508,299,l),
(536,294,o),
(605,278,o),
(622,242,c),
(622,111,l),
(592,88,o),
(559,67,o),
(450,67,cs),
(264,67,o),
(166,219,o),
(166,409,cs),
(166,574,o),
(269,685,o),
(417,682,cs),
(582,679,o),
(612,630,o),
(659,471,c),
(714,483,l),
(696,670,l),
(643,723,o),
(558,760,o),
(437,760,cs),
(254,760,o),
(50,588,o),
(50,354,cs),
(50,156,o),
(170,-10,o),
(408,-10,cs)
);
}
);
width = 831;
},
{
anchors = (
{
name = bottom;
pos = (430,0);
},
{
name = center;
pos = (634,179);
},
{
name = top;
pos = (430,750);
}
);
layerId = "C36E42DF-D6E4-4FAF-B5BA-99700BA29EB5";
metricLeft = "=O";
shapes = (
{
closed = 1;
nodes = (
(485,-10,o),
(569,16,o),
(633,47,c),
(718,0,l),
(770,41,l),
(770,196,l),
(779,257,o),
(793,275,o),
(830,296,c),
(830,424,l),
(436,424,l),
(420,296,l),
(508,291,o),
(525,274,o),
(530,238,c),
(530,238,l),
(506,220,o),
(482,198,o),
(439,198,cs),
(361,198,o),
(300,271,o),
(300,399,cs),
(300,482,o),
(347,552,o),
(420,552,cs),
(482,552,o),
(534,503,o),
(536,457,c),
(767,481,l),
(740,681,l),
(652,736,o),
(556,760,o),
(435,760,cs),
(203,760,o),
(30,588,o),
(30,354,cs),
(30,156,o),
(170,-10,o),
(424,-10,cs)
);
}
);
width = 860;
},
{
anchors = (
{
name = bottom;
pos = (410,0);
},
{
name = center;
pos = (634,179);
},
{
name = top;
pos = (410,750);
}
);
layerId = "9E464B93-4987-4E25-B327-76BD95426741";
metricLeft = "=O";
metricRight = "=E-10";
shapes = (
{
closed = 1;
nodes = (
(523,-10,o),
(611,10,o),
(684,76,c),
(686,0,l),
(700,11,l),
(700,299,ls),
(700,329,o),
(720,329,o),
(770,329,c),
(770,342,l),
(537,342,l),
(533,329,l),
(623,329,o),
(683,329,o),
(683,299,cs),
(683,117,l),
(653,64,o),
(576,5,o),
(447,5,cs),
(235,5,o),
(91,185,o),
(91,386,cs),
(91,577,o),
(251,745,o),
(437,745,cs),
(630,745,o),
(701,667,o),
(714,569,c),
(724,570,l),
(716,660,l),
(663,723,o),
(573,760,o),
(452,760,cs),
(249,760,o),
(70,588,o),
(70,354,cs),
(70,166,o),
(225,-10,o),
(436,-10,cs)
);
}
);
width = 820;
},
{
anchors = (
{
name = bottom;
pos = (427,0);
},
{
name = center;
pos = (673,211);
},
{
name = top;
pos = (427,750);
}
);
layerId = "BABFB3A0-9CFA-45ED-BD0F-DD711F12EEFF";
metricLeft = "=O";
metricRight = "=N-20";
shapes = (
{
closed = 1;
nodes = (
(549,-10,o),
(653,61,o),
(687,119,c),
(705,0,l),
(765,0,l),
(765,122,l),
(765,272,o),
(765,342,o),
(765,372,c),
(765,372,l),
(404,372,l),
(404,292,l),
(404,292,o),
(675,292,o),
(675,292,c),
(675,203,l),
(612,130,o),
(546,72,o),
(427,72,cs),
(266,72,o),
(140,214,o),
(140,375,cs),
(140,540,o),
(266,678,o),
(427,678,cs),
(563,678,o),
(636,595,o),
(682,512,c),
(682,512,l),
(759,559,l),
(689,684,o),
(588,760,o),
(427,760,cs),
(214,760,o),
(50,588,o),
(50,374,cs),
(50,162,o),
(214,-10,o),
(427,-10,cs)
);
}
);
width = 825;
},
{
anchors = (
{
name = bottom;
pos = (410,0);
},
{
name = center;
pos = (673,211);
},
{
name = top;
pos = (410,750);
}
);
layerId = "C8CD87A0-2407-4F05-BADA-4D8336545B60";
metricLeft = "=O";
shapes = (
{
closed = 1;
nodes = (
(517,-10,o),
(590,25,o),
(637,60,c),
(673,0,l),
(775,0,l),
(775,122,l),
(775,292,o),
(775,419,o),
(775,449,c),
(775,449,l),
(372,449,l),
(371,282,l),
(371,282,o),
(545,282,o),
(545,282,c),
(545,257,l),
(513,225,o),
(478,210,o),
(427,210,cs),
(352,210,o),
(283,274,o),
(283,375,cs),
(283,475,o),
(347,537,o),
(431,537,cs),
(478,537,o),
(526,510,o),
(545,464,c),
(545,464,l),
(764,585,l),
(709,668,o),
(599,760,o),
(435,760,cs),
(222,760,o),
(40,598,o),
(40,375,cs),
(40,152,o),
(222,-10,o),
(425,-10,cs)
);
}
);
width = 820;
},
{
anchors = (
{
name = bottom;
pos = (422,0);
},
{
name = center;
pos = (673,211);
},
{
name = top;
pos = (422,750);
}
);
layerId = "48DAC09D-95D4-4D70-8D14-87ABECD8575B";
metricLeft = "=O";
metricRight = "=N-20";
shapes = (
{
closed = 1;
nodes = (
(628,-10,o),
(714,108,o),
(747,164,c),
(749,0,l),
(763,0,l),
(763,142,l),
(763,297,o),
(763,323,o),
(763,353,c),
(763,353,l),
(412,353,l),
(412,338,l),
(412,338,o),
(747,338,o),
(747,338,c),
(747,192,l),
(714,128,o),
(621,5,o),
(447,5,cs),
(242,5,o),
(86,172,o),
(86,375,cs),
(86,578,o),
(242,745,o),
(447,745,cs),
(640,745,o),
(738,594,o),
(746,578,c),
(746,578,l),
(760,586,l),
(743,614,o),
(651,760,o),
(445,760,cs),
(232,760,o),
(70,588,o),
(70,374,cs),
(70,162,o),
(232,-10,o),
(445,-10,cs)
);
}
);
width = 843;
}
);
metricLeft = "=O";
unicode = 71;
},
{
glyphname = H;
lastChange = "2023-06-21 19:21:45 +0000";
layers = (
{
anchors = (
{
name = bottom;
pos = (436,0);
},
{
name = center;
pos = (436,545);
},
{
name = top;
pos = (436,750);
},
{
name = topleft;
pos = (20,750);
}
);
layerId = m01;
shapes = (
{
closed = 1;
nodes = (
(730,667,l),
(746,689,o),
(761,699,o),
(822,712,c),
(822,750,l),
(537,750,l),
(531,712,l),
(586,693,o),
(625,669,o),
(625,638,cs),
(625,421,l),
(249,421,l),
(249,667,l),
(265,689,o),
(280,699,o),
(341,712,c),
(341,750,l),
(56,750,l),
(50,712,l),
(105,693,o),
(144,669,o),
(144,638,cs),
(144,123,ls),
(144,78,o),
(104,56,o),
(54,38,c),
(54,0,l),
(333,0,l),
(339,38,l),
(285,55,o),
(249,70,o),
(249,103,cs),
(249,351,l),
(625,351,l),
(625,123,ls),
(625,78,o),
(585,56,o),
(535,38,c),
(535,0,l),
(814,0,l),
(820,38,l),
(766,55,o),
(730,70,o),
(730,103,cs)
);
}
);
width = 872;
},
{
anchors = (
{
name = bottom;
pos = (460,0);
},
{
name = center;
pos = (460,375);
},
{
name = top;
pos = (460,750);
},
{
name = topleft;
pos = (20,750);
}
);
layerId = "C36E42DF-D6E4-4FAF-B5BA-99700BA29EB5";
shapes = (
{
closed = 1;
nodes = (
(810,502,l),
(819,563,o),
(833,581,o),
(870,602,c),
(870,750,l),
(506,750,l),
(490,602,l),
(535,583,o),
(570,554,o),
(570,471,cs),
(570,453,l),
(330,453,l),
(330,512,ls),
(330,564,o),
(353,581,o),
(390,602,c),
(390,750,l),
(52,750,l),
(36,602,l),
(61,583,o),
(90,559,o),
(90,498,cs),
(90,262,ls),
(90,178,o),
(71,164,o),
(30,148,c),
(30,0,l),
(394,0,l),
(410,148,l),
(355,166,o),
(330,194,o),
(330,269,cs),
(330,289,l),
(570,289,l),
(570,252,ls),
(570,178,o),
(551,164,o),
(510,148,c),
(510,0,l),
(874,0,l),
(890,148,l),
(835,166,o),
(810,196,o),
(810,311,cs)
);
}
);
width = 920;
},
{
anchors = (
{
name = bottom;
pos = (422,0);
},
{
name = center;
pos = (422,375);
},
{
name = top;
pos = (422,750);
},
{
name = topleft;
pos = (20,750);
}
);
layerId = "9E464B93-4987-4E25-B327-76BD95426741";
shapes = (
{
closed = 1;
nodes = (
(674,712,l),
(674,742,o),
(724,742,o),
(774,742,c),
(774,750,l),
(558,750,l),
(554,742,l),
(604,742,o),
(654,742,o),
(654,712,cs),
(654,393,l),
(190,393,l),
(190,712,l),
(190,742,o),
(240,742,o),
(290,742,c),
(290,750,l),
(74,750,l),
(70,742,l),
(120,742,o),
(170,742,o),
(170,712,cs),
(170,38,ls),
(170,8,o),
(120,8,o),
(70,8,c),
(70,0,l),
(286,0,l),
(290,8,l),
(240,8,o),
(190,8,o),
(190,38,cs),
(190,382,l),
(654,382,l),
(654,38,ls),
(654,8,o),
(604,8,o),
(554,8,c),
(554,0,l),
(770,0,l),
(774,8,l),
(724,8,o),
(674,8,o),
(674,38,cs)
);
}
);
width = 844;
},
{
anchors = (
{
name = bottom;
pos = (365,0);
},
{
name = center;
pos = (365,545);
},
{
name = top;
pos = (365,750);
},
{
name = topleft;
pos = (20,750);
}
);
layerId = "BABFB3A0-9CFA-45ED-BD0F-DD711F12EEFF";
metricLeft = "=N";
metricRight = "=N";
shapes = (
{
closed = 1;
nodes = (
(650,500,l),
(650,650,o),
(650,720,o),
(650,750,c),
(650,750,l),
(560,750,l),
(560,750,l),
(560,720,o),
(560,650,o),
(560,500,cs),
(560,426,l),
(170,426,l),
(170,500,l),
(170,650,o),
(170,720,o),
(170,750,c),
(170,750,l),
(80,750,l),
(80,750,l),
(80,720,o),
(80,650,o),
(80,500,cs),
(80,250,ls),
(80,100,o),
(80,30,o),
(80,0,c),
(80,0,l),
(170,0,l),
(170,0,l),
(170,30,o),
(170,100,o),
(170,250,cs),
(170,346,l),
(560,346,l),
(560,250,ls),
(560,100,o),
(560,30,o),
(560,0,c),
(560,0,l),
(650,0,l),
(650,0,l),
(650,100,o),
(650,30,o),
(650,250,cs)
);
}
);
width = 730;
},
{
anchors = (
{
name = bottom;
pos = (410,0);
},
{
name = center;
pos = (410,375);
},
{
name = top;
pos = (410,750);
},
{
name = topleft;
pos = (20,750);
}
);
layerId = "C8CD87A0-2407-4F05-BADA-4D8336545B60";
metricLeft = "=N";
metricRight = "=N";
shapes = (
{
closed = 1;
nodes = (
(770,500,l),
(770,650,o),
(770,720,o),
(770,750,c),
(770,750,l),
(530,750,l),
(530,750,l),
(530,720,o),
(530,650,o),
(530,500,cs),
(530,481,l),
(290,481,l),
(290,500,l),
(290,650,o),
(290,720,o),
(290,750,c),
(290,750,l),
(50,750,l),
(50,750,l),
(50,720,o),
(50,650,o),
(50,500,cs),
(50,250,ls),
(50,100,o),
(50,30,o),
(50,0,c),
(50,0,l),
(290,0,l),
(290,0,l),
(290,30,o),
(290,100,o),
(290,250,cs),
(290,271,l),
(530,271,l),
(530,250,ls),
(530,100,o),
(530,30,o),
(530,0,c),
(530,0,l),
(770,0,l),
(770,0,l),
(770,100,o),
(770,30,o),
(770,250,cs)
);
}
);
width = 820;
},
{
anchors = (
{
name = bottom;
pos = (346,0);
},
{
name = center;
pos = (346,375);
},
{
name = top;
pos = (346,750);
},
{
name = topleft;
pos = (20,750);
}
);
layerId = "48DAC09D-95D4-4D70-8D14-87ABECD8575B";
metricLeft = "=N";
metricRight = "=N";
shapes = (
{
closed = 1;
nodes = (
(592,690,l),
(592,720,o),
(592,740,o),
(592,750,c),
(592,750,l),
(576,750,l),
(576,750,l),
(576,740,o),
(576,720,o),
(576,690,cs),
(576,394,l),
(116,394,l),
(116,690,l),
(116,720,o),
(116,740,o),
(116,750,c),
(116,750,l),
(100,750,l),
(100,750,l),
(100,740,o),
(100,720,o),
(100,690,cs),
(100,60,ls),
(100,30,o),
(100,10,o),
(100,0,c),
(100,0,l),
(116,0,l),
(116,0,l),
(116,10,o),
(116,30,o),
(116,60,cs),
(116,380,l),
(576,380,l),
(576,60,ls),
(576,30,o),
(576,10,o),
(576,0,c),
(576,0,l),
(592,0,l),
(592,0,l),
(593,10,o),
(592,30,o),
(592,60,cs)
);
}
);
width = 692;
}
);
unicode = 72;
},
{
glyphname = I;
lastChange = "2023-06-24 02:14:28 +0000";
layers = (
{
anchors = (
{
name = bottom;
pos = (194,0);
},
{
name = center;
pos = (196,384);
},
{
name = ogonek;
pos = (276,10);
},
{
name = top;
pos = (194,750);
},
{
name = topleft;
pos = (20,750);
}
);
layerId = m01;
metricLeft = "=H";
metricRight = "=H";
shapes = (
{
closed = 1;
nodes = (
(329,0,l),
(335,38,l),
(271,58,o),
(245,65,o),
(245,100,c),
(245,657,l),
(261,679,o),
(296,699,o),
(337,712,c),
(337,750,l),
(56,750,l),
(50,712,l),
(99,695,o),
(140,669,o),
(140,638,cs),
(140,123,ls),
(140,78,o),
(100,56,o),
(50,38,c),
(50,0,l)
);
}
);
width = 387;
},
{
anchors = (
{
name = bottom;
pos = (212,0);
},
{
name = center;
pos = (196,384);
},
{
name = ogonek;
pos = (381,10);
},
{
name = top;
pos = (212,750);
},
{
name = topleft;
pos = (20,750);
}
);
layerId = "C36E42DF-D6E4-4FAF-B5BA-99700BA29EB5";
metricLeft = "=H";
metricRight = "=H";
shapes = (
{
closed = 1;
nodes = (
(377,0,l),
(393,148,l),
(355,166,o),
(330,196,o),
(330,311,c),
(330,502,l),
(339,563,o),
(353,581,o),
(390,602,c),
(390,750,l),
(52,750,l),
(36,602,l),
(61,583,o),
(90,559,o),
(90,498,cs),
(90,262,ls),
(90,178,o),
(71,164,o),
(30,148,c),
(30,0,l)
);
}
);
width = 423;
},
{
anchors = (
{
name = bottom;
pos = (180,0);
},
{
name = center;
pos = (196,384);
},
{
name = ogonek;
pos = (324,10);
},
{
name = top;
pos = (180,750);
},
{
name = topleft;
pos = (20,750);
}
);
layerId = "9E464B93-4987-4E25-B327-76BD95426741";
metricLeft = "=H";
metricRight = "=H";
shapes = (
{
closed = 1;
nodes = (
(286,0,l),
(290,8,l),
(240,8,o),
(190,8,o),
(190,38,cs),
(190,712,ls),
(190,742,o),
(237,742,o),
(290,742,c),
(290,750,l),
(74,750,l),
(70,742,l),
(120,742,o),
(170,742,o),
(170,712,cs),
(170,38,ls),
(170,8,o),
(120,8,o),
(70,8,c),
(70,0,l)
);
}
);
width = 360;
},
{
anchors = (
{
name = bottom;
pos = (125,0);
},
{
name = center;
pos = (125,384);
},
{
name = ogonek;
pos = (148,10);
},
{
name = top;
pos = (125,750);
},
{
name = topleft;
pos = (20,750);
}
);
layerId = "BABFB3A0-9CFA-45ED-BD0F-DD711F12EEFF";
metricLeft = "=N";
metricRight = "=N";
shapes = (
{
closed = 1;
nodes = (
(170,0,l),
(170,0,l),
(170,30,o),
(170,100,o),
(170,250,c),
(170,500,l),
(170,650,o),
(170,720,o),
(170,750,c),
(170,750,l),
(80,750,l),
(80,750,l),
(80,720,o),
(80,650,o),
(80,500,cs),
(80,250,ls),
(80,100,o),
(80,30,o),
(80,0,c),
(80,0,l)
);
}
);
width = 250;
},
{
anchors = (
{
name = bottom;
pos = (170,0);
},
{
name = center;
pos = (125,384);
},
{
name = ogonek;
pos = (306,10);
},
{
name = top;
pos = (170,750);
},
{
name = topleft;
pos = (20,750);
}
);
layerId = "C8CD87A0-2407-4F05-BADA-4D8336545B60";
metricLeft = "=N";
metricRight = "=N";
shapes = (
{
closed = 1;
nodes = (
(290,0,l),
(290,0,l),
(290,30,o),
(290,100,o),
(290,250,c),
(290,500,l),
(290,650,o),
(290,720,o),
(290,750,c),
(290,750,l),
(50,750,l),
(50,750,l),
(50,720,o),
(50,650,o),
(50,500,cs),
(50,250,ls),
(50,100,o),
(50,30,o),
(50,0,c),
(50,0,l)
);
}
);
width = 340;
},
{
anchors = (
{
name = bottom;
pos = (108,0);
},
{
name = center;
pos = (125,384);
},
{
name = ogonek;
pos = (194,10);
},
{
name = top;
pos = (108,750);
},
{
name = topleft;
pos = (20,750);
}
);
layerId = "48DAC09D-95D4-4D70-8D14-87ABECD8575B";
metricLeft = "=N";
metricRight = "=N";
shapes = (
{
closed = 1;
nodes = (
(116,0,l),
(116,0,l),
(116,10,o),
(116,30,o),
(116,60,c),
(116,690,l),
(116,720,o),
(116,740,o),
(116,750,c),
(116,750,l),
(100,750,l),
(100,750,l),
(100,740,o),
(100,720,o),
(100,690,cs),
(100,60,ls),
(100,30,o),
(100,10,o),
(100,0,c),
(100,0,l)
);
}
);
width = 216;
}
);
metricLeft = "=N";
metricRight = "=N";
unicode = 73;
},
{
glyphname = J;
kernRight = J;
lastChange = "2023-06-23 18:03:52 +0000";
layers = (
{
anchors = (
{
name = bottom;
pos = (263,0);
},
{
name = top;
pos = (340,750);
}
);
layerId = m01;
metricRight = "=N";
shapes = (
{
closed = 1;
nodes = (
(485,750,l),
(485,712,l),
(446,699,o),
(411,679,o),
(395,657,c),
(395,167,ls),
(395,53,o),
(289,-10,o),
(183,-10,cs),
(99,-10,o),
(37,30,o),
(10,55,c),
(66,141,l),
(88,123,o),
(150,60,o),
(213,60,cs),
(284,60,o),
(290,118,o),
(290,195,cs),
(290,638,l),
(280,669,o),
(229,698,o),
(200,712,c),
(206,750,l)
);
}
);
width = 525;
},
{
anchors = (
{
name = bottom;
pos = (337,0);
},
{
name = top;
pos = (337,750);
}
);
layerId = "C36E42DF-D6E4-4FAF-B5BA-99700BA29EB5";
metricRight = "=N";
shapes = (
{
closed = 1;
nodes = (
(654,750,l),
(654,602,l),
(617,581,o),
(603,563,o),
(594,502,c),
(594,281,ls),
(594,93,o),
(425,-10,o),
(260,-10,cs),
(123,-10,o),
(34,52,o),
(0,84,c),
(125,280,l),
(164,228,o),
(220,185,o),
(277,185,cs),
(348,185,o),
(354,263,o),
(354,340,cs),
(354,498,l),
(354,559,o),
(325,583,o),
(300,602,c),
(316,750,l)
);
}
);
width = 674;
},
{
anchors = (
{
name = bottom;
pos = (257,0);
},
{
name = top;
pos = (257,750);
}
);
layerId = "9E464B93-4987-4E25-B327-76BD95426741";
metricRight = "=N";
shapes = (
{
closed = 1;
nodes = (
(448,750,l),
(448,742,l),
(395,742,o),
(348,742,o),
(348,712,c),
(348,147,ls),
(348,33,o),
(255,-10,o),
(198,-10,cs),
(114,-10,o),
(55,35,o),
(30,63,c),
(48,86,l),
(75,49,o),
(132,5,o),
(203,5,cs),
(260,5,o),
(328,38,o),
(328,165,cs),
(328,712,l),
(328,742,o),
(278,742,o),
(228,742,c),
(232,750,l)
);
}
);
width = 513;
},
{
anchors = (
{
name = bottom;
pos = (254,0);
},
{
name = top;
pos = (382,750);
}
);
layerId = "BABFB3A0-9CFA-45ED-BD0F-DD711F12EEFF";
metricRight = "=N";
shapes = (
{
closed = 1;
nodes = (
(427,750,l),
(427,750,l),
(427,720,o),
(427,650,o),
(427,500,c),
(427,235,ls),
(427,99,o),
(317,-10,o),
(183,-10,cs),
(94,-10,o),
(27,38,o),
(10,65,c),
(76,129,l),
(95,104,o),
(136,74,o),
(183,74,cs),
(267,74,o),
(337,150,o),
(337,235,cs),
(337,500,l),
(337,650,o),
(337,720,o),
(337,750,c),
(337,750,l)
);
}
);
width = 507;
},
{
anchors = (
{
name = bottom;
pos = (335,0);
},
{
name = top;
pos = (335,750);
}
);
layerId = "C8CD87A0-2407-4F05-BADA-4D8336545B60";
metricRight = "=N";
shapes = (
{
closed = 1;
nodes = (
(620,750,l),
(620,750,l),
(620,720,o),
(620,650,o),
(620,500,c),
(620,281,ls),
(620,120,o),
(483,-10,o),
(286,-10,cs),
(133,-10,o),
(36,71,o),
(-7,131,c),
(192,273,l),
(205,242,o),
(234,210,o),
(283,210,cs),
(345,210,o),
(380,260,o),
(380,312,cs),
(380,500,l),
(380,650,o),
(380,720,o),
(380,750,c),
(380,750,l)
);
}
);
width = 670;
},
{
anchors = (
{
name = bottom;
pos = (259,0);
},
{
name = top;
pos = (259,750);
}
);
layerId = "48DAC09D-95D4-4D70-8D14-87ABECD8575B";
metricRight = "=N";
shapes = (
{
closed = 1;
nodes = (
(418,750,l),
(418,750,l),
(418,740,o),
(418,720,o),
(418,690,c),
(418,209,ls),
(418,87,o),
(319,-10,o),
(199,-10,cs),
(99,-10,o),
(48,47,o),
(30,68,c),
(42,81,l),
(61,53,o),
(117,5,o),
(199,5,cs),
(311,5,o),
(402,96,o),
(402,209,cs),
(402,690,l),
(402,720,o),
(402,740,o),
(402,750,c),
(402,750,l)
);
}
);
width = 518;
}
);
metricRight = "=N-20";
unicode = 74;
},
{
glyphname = K;
lastChange = "2023-06-23 18:03:14 +0000";
layers = (
{
anchors = (
{
name = bottom;
pos = (413,0);
},
{
name = top;
pos = (413,750);
}
);
layerId = m01;
metricLeft = "=H";
metricRight = "=E";
shapes = (
{
closed = 1;
nodes = (
(653,662,ls),
(678,692,o),
(720,704,o),
(740,704,c),
(740,750,l),
(477,750,l),
(471,712,l),
(508,706,o),
(544,689,o),
(551,673,c),
(375,439,l),
(245,430,l),
(245,667,l),
(261,689,o),
(296,699,o),
(342,712,c),
(342,750,l),
(57,750,l),
(51,712,l),
(111,693,o),
(140,669,o),
(140,638,cs),
(140,123,ls),
(140,78,o),
(110,56,o),
(50,38,c),
(50,0,l),
(329,0,l),
(335,38,l),
(281,58,o),
(245,68,o),
(245,103,cs),
(245,364,l),
(346,360,l),
(575,80,l),
(568,64,o),
(552,44,o),
(500,38,c),
(500,0,l),
(780,0,l),
(786,38,l),
(761,38,o),
(720,60,o),
(702,81,cs),
(434,394,l)
);
}
);
width = 826;
},
{
anchors = (
{
name = bottom;
pos = (451,0);
},
{
name = top;
pos = (451,750);
}
);
layerId = "C36E42DF-D6E4-4FAF-B5BA-99700BA29EB5";
metricLeft = "=H";
metricRight = "=E";
shapes = (
{
closed = 1;
nodes = (
(778,560,ls),
(802,589,o),
(845,602,o),
(865,602,c),
(865,750,l),
(462,750,l),
(438,601,l),
(475,595,o),
(509,568,o),
(516,552,c),
(460,469,l),
(330,460,l),
(330,512,l),
(330,564,o),
(344,589,o),
(390,602,c),
(390,750,l),
(52,750,l),
(36,602,l),
(61,583,o),
(90,559,o),
(90,498,cs),
(90,262,ls),
(90,178,o),
(71,164,o),
(30,148,c),
(30,0,l),
(394,0,l),
(410,148,l),
(355,166,o),
(330,194,o),
(330,269,cs),
(330,307,l),
(441,303,l),
(510,190,l),
(503,174,o),
(487,154,o),
(455,148,c),
(455,0,l),
(875,0,l),
(881,148,l),
(856,148,o),
(814,170,o),
(797,191,cs),
(639,394,l)
);
}
);
width = 901;
},
{
anchors = (
{
name = bottom;
pos = (415,0);
},
{
name = top;
pos = (415,750);
}
);
layerId = "9E464B93-4987-4E25-B327-76BD95426741";
metricLeft = "=H";
metricRight = "=E";
shapes = (
{
closed = 1;
nodes = (
(621,716,ls),
(640,742,o),
(673,742,o),
(723,742,c),
(723,750,l),
(505,750,l),
(501,742,l),
(551,742,o),
(621,742,o),
(602,716,cs),
(369,403,l),
(190,399,l),
(190,712,ls),
(190,742,o),
(237,742,o),
(290,742,c),
(287,750,l),
(74,750,l),
(70,742,l),
(120,742,o),
(170,742,o),
(170,712,cs),
(170,38,ls),
(170,8,o),
(120,8,o),
(70,8,c),
(70,0,l),
(286,0,l),
(290,8,l),
(240,8,o),
(190,8,o),
(190,38,cs),
(190,387,l),
(366,387,l),
(645,34,ls),
(666,8,o),
(594,8,o),
(544,8,c),
(544,0,l),
(766,0,l),
(770,8,l),
(720,8,o),
(688,8,o),
(668,34,cs),
(380,395,l)
);
}
);
width = 830;
},
{
anchors = (
{
name = bottom;
pos = (332,0);
},
{
name = top;
pos = (332,750);
}
);
background = {
shapes = (
{
closed = 1;
nodes = (
(604,750,ls),
(676,825,o),
(575,720,o),
(604,750,c),
(604,750,l),
(487,750,l),
(487,750,l),
(458,720,o),
(416,675,o),
(343,600,cs),
(207,459,l),
(170,421,l),
(170,500,l),
(170,650,o),
(170,720,o),
(170,750,c),
(170,750,l),
(80,750,l),
(80,750,l),
(80,720,o),
(80,650,o),
(80,500,cs),
(80,250,ls),
(80,100,o),
(80,30,o),
(80,0,c),
(80,0,l),
(170,0,l),
(170,0,l),
(170,30,o),
(170,100,o),
(170,250,cs),
(170,297,l),
(252,382,l),
(516,0,ls),
(568,-75,o),
(495,30,o),
(516,0,c),
(516,0,l),
(626,0,l),
(626,0,l),
(605,30,o),
(677,-75,o),
(626,0,cs),
(316,450,l)
);
},
{
closed = 0;
nodes = (
(170,297,l),
(604,750,l)
);
}
);
};
layerId = "BABFB3A0-9CFA-45ED-BD0F-DD711F12EEFF";
metricLeft = "=N";
metricRight = "=N-60";
shapes = (
{
closed = 1;
nodes = (
(460,600,ls),
(533,676,o),
(575,720,o),
(604,750,c),
(604,750,l),
(487,750,l),
(487,750,l),
(458,720,o),
(416,675,o),
(343,600,cs),
(207,459,l),
(170,421,l),
(170,500,l),
(170,650,o),
(170,720,o),
(170,750,c),
(170,750,l),
(80,750,l),
(80,750,l),
(80,720,o),
(80,650,o),
(80,500,cs),
(80,250,ls),
(80,100,o),
(80,30,o),
(80,0,c),
(80,0,l),
(170,0,l),
(170,0,l),
(170,30,o),
(170,100,o),
(170,250,cs),
(170,297,l),
(252,382,l),
(412,150,ls),
(464,75,o),
(495,30,o),
(516,0,c),
(516,0,l),
(626,0,l),
(626,0,l),
(605,30,o),
(575,74,o),
(523,150,cs),
(316,450,l)
);
}
);
width = 646;
},
{
anchors = (
{
name = bottom;
pos = (424,0);
},
{
name = top;
pos = (424,750);
}
);
layerId = "C8CD87A0-2407-4F05-BADA-4D8336545B60";
metricLeft = "=N";
metricRight = "=N-60";
shapes = (
{
closed = 1;
nodes = (
(688,600,ls),
(763,677,o),
(804,720,o),
(833,750,c),
(833,750,l),
(520,750,l),
(520,750,l),
(490,720,o),
(449,679,o),
(370,600,cs),
(290,521,l),
(290,521,l),
(290,521,l),
(290,650,o),
(290,720,o),
(290,750,c),
(290,750,l),
(50,750,l),
(50,750,l),
(50,720,o),
(50,650,o),
(50,500,cs),
(50,250,ls),
(50,100,o),
(50,30,o),
(50,0,c),
(50,0,l),
(290,0,l),
(290,0,l),
(290,30,o),
(290,100,o),
(290,190,cs),
(290,190,l),
(369,271,l),
(453,150,ls),
(505,75,o),
(536,30,o),
(557,0,c),
(557,0,l),
(857,0,l),
(857,0,l),
(837,30,o),
(806,75,o),
(755,150,cs),
(548,456,l)
);
}
);
width = 847;
},
{
anchors = (
{
name = bottom;
pos = (291,0);
},
{
name = top;
pos = (291,750);
}
);
layerId = "48DAC09D-95D4-4D70-8D14-87ABECD8575B";
metricLeft = "=N";
metricRight = "=N-60";
shapes = (
{
closed = 1;
nodes = (
(459,701,ls),
(479,721,o),
(493,735,o),
(508,750,c),
(508,750,l),
(486,750,l),
(486,750,l),
(471,735,o),
(457,721,o),
(437,701,cs),
(191,449,l),
(116,373,l),
(116,690,l),
(116,720,o),
(116,740,o),
(116,750,c),
(116,750,l),
(100,750,l),
(100,750,l),
(100,740,o),
(100,720,o),
(100,690,cs),
(100,60,ls),
(100,30,o),
(100,10,o),
(100,0,c),
(100,0,l),
(116,0,l),
(116,0,l),
(116,10,o),
(116,30,o),
(116,60,cs),
(116,350,l),
(201,437,l),
(486,50,ls),
(500,30,o),
(511,15,o),
(522,0,c),
(522,0,l),
(542,0,l),
(542,0,l),
(531,15,o),
(520,30,o),
(505,50,cs),
(212,448,l)
);
}
);
width = 582;
}
);
metricLeft = "=N";
metricRight = "=N-60";
unicode = 75;
},
{
glyphname = L;
kernRight = L;
lastChange = "2023-06-23 18:00:54 +0000";
layers = (
{
anchors = (
{
name = bottom;
pos = (355,0);
},
{
name = center;
pos = (191,375);
},
{
name = top;
pos = (190,750);
},
{
name = topright;
pos = (690,750);
}
);
layerId = m01;
metricLeft = "=H";
metricRight = "=E";
shapes = (
{
closed = 1;
nodes = (
(623,0,l),
(670,212,l),
(619,220,l),
(584,86,o),
(576,70,o),
(457,70,cs),
(245,70,l),
(245,657,l),
(261,679,o),
(296,699,o),
(337,712,c),
(337,750,l),
(57,750,l),
(51,712,l),
(111,693,o),
(140,669,o),
(140,638,cs),
(140,123,ls),
(140,78,o),
(110,56,o),
(50,38,c),
(50,0,l)
);
}
);
width = 710;
},
{
anchors = (
{
name = bottom;
pos = (381,0);
},
{
name = center;
pos = (381,375);
},
{
name = top;
pos = (381,750);
},
{
name = topright;
pos = (741,750);
}
);
layerId = "C36E42DF-D6E4-4FAF-B5BA-99700BA29EB5";
metricLeft = "=H";
metricRight = "=E";
shapes = (
{
closed = 1;
nodes = (
(696,0,l),
(741,224,l),
(621,246,l),
(599,203,o),
(557,184,o),
(488,184,cs),
(330,184,l),
(330,512,l),
(330,564,o),
(353,581,o),
(390,602,c),
(390,750,l),
(52,750,l),
(36,602,l),
(61,583,o),
(90,559,o),
(90,498,cs),
(90,262,ls),
(90,178,o),
(71,164,o),
(30,148,c),
(30,0,l)
);
}
);
width = 761;
},
{
anchors = (
{
name = bottom;
pos = (336,0);
},
{
name = center;
pos = (336,375);
},
{
name = top;
pos = (336,750);
},
{
name = topright;
pos = (651,750);
}
);
layerId = "9E464B93-4987-4E25-B327-76BD95426741";
metricLeft = "=H";
metricRight = "=E";
shapes = (
{
closed = 1;
nodes = (
(574,0,l),
(611,116,l),
(601,119,l),
(562,11,o),
(562,11,o),
(492,11,cs),
(190,11,l),
(190,712,l),
(190,742,o),
(237,742,o),
(290,742,c),
(290,750,l),
(74,750,l),
(70,742,l),
(120,742,o),
(170,742,o),
(170,712,cs),
(170,38,ls),
(170,8,o),
(120,8,o),
(70,8,c),
(70,0,l)
);
}
);
width = 671;
},
{
anchors = (
{
name = bottom;
pos = (300,0);
},
{
name = center;
pos = (128,375);
},
{
name = top;
pos = (300,750);
},
{
name = topright;
pos = (525,750);
}
);
layerId = "BABFB3A0-9CFA-45ED-BD0F-DD711F12EEFF";
metricLeft = "=N";
metricRight = "=N-60";
shapes = (
{
closed = 1;
nodes = (
(525,0,l),
(525,85,l),
(525,85,l),
(495,85,o),
(425,85,o),
(275,85,cs),
(170,85,l),
(170,500,l),
(170,650,o),
(170,720,o),
(170,750,c),
(170,750,l),
(80,750,l),
(80,750,l),
(80,720,o),
(80,650,o),
(80,500,cs),
(80,250,ls),
(80,100,o),
(80,30,o),
(80,0,c),
(80,0,l)
);
}
);
width = 545;
},
{
anchors = (
{
name = bottom;
pos = (318,0);
},
{
name = center;
pos = (318,375);
},
{
name = top;
pos = (318,750);
},
{
name = topright;
pos = (615,750);
}
);
layerId = "C8CD87A0-2407-4F05-BADA-4D8336545B60";
metricLeft = "=N";
metricRight = "=N-60";
shapes = (
{
closed = 1;
nodes = (
(645,0,l),
(645,210,l),
(645,210,l),
(615,210,o),
(545,210,o),
(395,210,cs),
(290,210,l),
(290,500,l),
(290,650,o),
(290,720,o),
(290,750,c),
(290,750,l),
(50,750,l),
(50,750,l),
(50,720,o),
(50,650,o),
(50,500,cs),
(50,250,ls),
(50,100,o),
(50,30,o),
(50,0,c),
(50,0,l)
);
}
);
width = 635;
},
{
anchors = (
{
name = bottom;
pos = (270,0);
},
{
name = center;
pos = (270,375);
},
{
name = top;
pos = (270,750);
},
{
name = topright;
pos = (520,750);
}
);
layerId = "48DAC09D-95D4-4D70-8D14-87ABECD8575B";
metricLeft = "=N";
metricRight = "=N-60";
shapes = (
{
closed = 1;
nodes = (
(500,0,l),
(500,14,l),
(500,14,l),
(470,14,o),
(450,14,o),
(400,14,cs),
(116,14,l),
(116,690,l),
(116,720,o),
(116,740,o),
(116,750,c),
(116,750,l),
(100,750,l),
(100,750,l),
(100,740,o),
(100,720,o),
(100,690,cs),
(100,100,ls),
(100,50,o),
(100,30,o),
(100,0,c),
(100,0,l)
);
}
);
width = 540;
}
);
metricLeft = "=N";
metricRight = "=N-60";
unicode = 76;
},
{
glyphname = M;
lastChange = "2023-06-12 21:17:10 +0000";
layers = (
{
anchors = (
{
name = bottom;
pos = (513,0);
},
{
name = top;
pos = (513,750);
}
);
layerId = m01;
metricLeft = "=H";
metricRight = "=H";
shapes = (
{
closed = 1;
nodes = (
(554,0,l),
(785,617,l),
(785,122,l),
(785,78,o),
(755,56,o),
(700,38,c),
(700,0,l),
(969,0,l),
(975,38,l),
(921,57,o),
(885,68,o),
(885,103,c),
(885,667,l),
(901,689,o),
(915,699,o),
(968,712,c),
(968,750,l),
(747,750,l),
(520,116,l),
(294,750,l),
(57,750,l),
(51,712,l),
(111,693,o),
(140,669,o),
(140,638,cs),
(140,123,ls),
(140,78,o),
(110,56,o),
(50,38,c),
(50,0,l),
(300,0,l),
(306,38,l),
(257,57,o),
(221,68,o),
(221,103,cs),
(221,638,l),
(466,0,l)
);
}
);
width = 1025;
},
{
anchors = (
{
name = bottom;
pos = (535,0);
},
{
name = top;
pos = (535,750);
}
);
layerId = "C36E42DF-D6E4-4FAF-B5BA-99700BA29EB5";
metricLeft = "=H";
metricRight = "=H";
shapes = (
{
closed = 1;
nodes = (
(582,0,l),
(724,427,l),
(724,252,l),
(724,178,o),
(705,164,o),
(664,148,c),
(664,0,l),
(1023,0,l),
(1039,148,l),
(985,167,o),
(959,196,o),
(959,311,c),
(959,502,l),
(968,563,o),
(982,581,o),
(1019,602,c),
(1019,750,l),
(676,750,l),
(519,356,l),
(363,750,l),
(52,750,l),
(36,602,l),
(61,583,o),
(90,559,o),
(90,498,cs),
(90,262,ls),
(90,178,o),
(71,164,o),
(30,148,c),
(30,0,l),
(314,0,l),
(330,148,l),
(275,166,o),
(250,194,o),
(250,269,cs),
(250,448,l),
(425,0,l)
);
}
);
width = 1069;
},
{
anchors = (
{
name = bottom;
pos = (508,0);
},
{
name = top;
pos = (508,750);
}
);
layerId = "9E464B93-4987-4E25-B327-76BD95426741";
metricLeft = "=H";
metricRight = "=H";
shapes = (
{
closed = 1;
nodes = (
(519,0,l),
(826,727,l),
(826,38,l),
(826,8,o),
(779,8,o),
(726,8,c),
(726,0,l),
(941,0,l),
(945,8,l),
(895,8,o),
(845,8,o),
(845,38,c),
(845,712,l),
(845,742,o),
(895,742,o),
(945,742,c),
(945,750,l),
(818,750,l),
(510,20,l),
(195,750,l),
(74,750,l),
(70,742,l),
(120,742,o),
(170,742,o),
(170,712,cs),
(170,38,l),
(170,8,o),
(120,8,o),
(70,8,c),
(70,0,l),
(280,0,l),
(284,8,l),
(234,8,o),
(184,8,o),
(184,38,c),
(184,727,l),
(498,0,l)
);
}
);
width = 1015;
},
{
anchors = (
{
name = bottom;
pos = (454,0);
},
{
name = top;
pos = (454,750);
}
);
layerId = "BABFB3A0-9CFA-45ED-BD0F-DD711F12EEFF";
metricLeft = "=N";
metricRight = "=N";
shapes = (
{
closed = 1;
nodes = (
(496,0,l),
(738,638,l),
(738,250,l),
(738,100,o),
(738,30,o),
(738,0,c),
(738,0,l),
(828,0,l),
(828,0,l),
(828,30,o),
(828,100,o),
(828,250,c),
(828,500,l),
(828,650,o),
(828,720,o),
(828,750,c),
(828,750,l),
(688,750,l),
(454,130,l),
(220,750,l),
(80,750,l),
(80,750,l),
(80,720,o),
(80,650,o),
(80,500,cs),
(80,250,ls),
(80,100,o),
(80,30,o),
(80,0,c),
(80,0,l),
(170,0,l),
(170,0,l),
(170,30,o),
(170,100,o),
(170,250,cs),
(170,638,l),
(412,0,l)
);
}
);
width = 908;
},
{
anchors = (
{
name = bottom;
pos = (527,0);
},
{
name = top;
pos = (527,750);
}
);
layerId = "C8CD87A0-2407-4F05-BADA-4D8336545B60";
metricLeft = "=N";
metricRight = "=N";
shapes = (
{
closed = 1;
nodes = (
(622,0,l),
(764,418,l),
(764,250,l),
(764,100,o),
(764,30,o),
(764,0,c),
(764,0,l),
(1004,0,l),
(1004,0,l),
(1004,30,o),
(1004,100,o),
(1004,250,c),
(1004,500,l),
(1004,650,o),
(1004,720,o),
(1004,750,c),
(1004,750,l),
(681,750,l),
(529,344,l),
(375,750,l),
(50,750,l),
(50,750,l),
(50,720,o),
(50,650,o),
(50,500,cs),
(50,250,ls),
(50,100,o),
(50,30,o),
(50,0,c),
(50,0,l),
(290,0,l),
(290,0,l),
(290,30,o),
(290,100,o),
(290,250,cs),
(290,418,l),
(432,0,l)
);
}
);
width = 1054;
},
{
anchors = (
{
name = bottom;
pos = (440,0);
},
{
name = top;
pos = (440,750);
}
);
layerId = "48DAC09D-95D4-4D70-8D14-87ABECD8575B";
metricLeft = "=N";
metricRight = "=N";
shapes = (
{
closed = 1;
nodes = (
(445,0,l),
(764,728,l),
(764,60,l),
(764,30,o),
(764,10,o),
(764,0,c),
(764,0,l),
(780,0,l),
(780,0,l),
(780,10,o),
(780,30,o),
(780,60,c),
(780,650,l),
(780,700,o),
(780,720,o),
(780,750,c),
(780,750,l),
(756,750,l),
(440,29,l),
(124,750,l),
(100,750,l),
(100,750,l),
(100,720,o),
(100,700,o),
(100,650,cs),
(100,60,ls),
(100,30,o),
(100,10,o),
(100,0,c),
(100,0,l),
(116,0,l),
(116,0,l),
(116,10,o),
(116,30,o),
(116,60,cs),
(116,728,l),
(435,0,l)
);
}
);
width = 880;
}
);
metricLeft = "=N";
metricRight = "=N";
unicode = 77;
},
{
glyphname = N;
kernRight = N;
lastChange = "2023-06-12 21:17:10 +0000";
layers = (
{
anchors = (
{
name = bottom;
pos = (441,0);
},
{
name = top;
pos = (441,750);
}
);
layerId = m01;
metricLeft = "=H";
metricRight = "=H-10";
shapes = (
{
closed = 1;
nodes = (
(760,667,l),
(776,689,o),
(791,702,o),
(842,715,c),
(842,750,l),
(597,750,l),
(591,712,l),
(636,693,o),
(675,669,o),
(675,638,cs),
(675,133,l),
(279,750,l),
(72,750,l),
(66,712,l),
(111,693,o),
(140,669,o),
(140,638,cs),
(140,123,ls),
(140,78,o),
(110,56,o),
(50,38,c),
(50,0,l),
(310,0,l),
(316,38,l),
(262,57,o),
(226,68,o),
(226,103,cs),
(226,638,l),
(652,0,l),
(760,0,l)
);
}
);
width = 882;
},
{
anchors = (
{
name = bottom;
pos = (465,0);
},
{
name = top;
pos = (465,750);
}
);
layerId = "C36E42DF-D6E4-4FAF-B5BA-99700BA29EB5";
metricLeft = "=H";
metricRight = "=H-10";
shapes = (
{
closed = 1;
nodes = (
(850,502,l),
(859,563,o),
(873,581,o),
(910,602,c),
(910,750,l),
(586,750,l),
(570,602,l),
(615,583,o),
(650,554,o),
(650,439,cs),
(650,350,l),
(353,750,l),
(52,750,l),
(36,602,l),
(61,583,o),
(90,559,o),
(90,498,cs),
(90,262,ls),
(90,178,o),
(71,164,o),
(30,148,c),
(30,0,l),
(354,0,l),
(370,148,l),
(315,166,o),
(290,196,o),
(290,311,cs),
(290,380,l),
(574,0,l),
(850,0,l)
);
}
);
width = 930;
},
{
anchors = (
{
name = bottom;
pos = (439,0);
},
{
name = top;
pos = (439,750);
}
);
layerId = "9E464B93-4987-4E25-B327-76BD95426741";
metricLeft = "=H";
metricRight = "=H-5";
shapes = (
{
closed = 1;
nodes = (
(713,712,l),
(713,742,o),
(763,742,o),
(813,742,c),
(813,750,l),
(603,750,l),
(599,742,l),
(649,742,o),
(699,742,o),
(699,712,cs),
(699,28,l),
(195,750,l),
(74,750,l),
(70,742,l),
(120,742,o),
(170,742,o),
(170,712,cs),
(170,38,ls),
(170,8,o),
(120,8,o),
(70,8,c),
(70,0,l),
(277,0,l),
(281,8,l),
(231,8,o),
(184,8,o),
(184,38,cs),
(184,732,l),
(695,0,l),
(713,0,l)
);
}
);
width = 878;
},
{
anchors = (
{
name = bottom;
pos = (380,0);
},
{
name = top;
pos = (380,750);
}
);
layerId = "BABFB3A0-9CFA-45ED-BD0F-DD711F12EEFF";
shapes = (
{
closed = 1;
nodes = (
(679,500,l),
(679,650,o),
(679,720,o),
(679,750,c),
(679,750,l),
(589,750,l),
(589,750,l),
(589,720,o),
(589,650,o),
(589,500,cs),
(589,135,l),
(207,750,l),
(80,750,l),
(80,750,l),
(80,720,o),
(80,650,o),
(80,500,cs),
(80,250,ls),
(80,100,o),
(80,30,o),
(80,0,c),
(80,0,l),
(170,0,l),
(170,0,l),
(170,30,o),
(170,100,o),
(170,250,cs),
(170,637,l),
(567,0,l),
(679,0,l)
);
}
);
width = 759;
},
{
anchors = (
{
name = bottom;
pos = (430,0);
},
{
name = top;
pos = (430,750);
}
);
layerId = "C8CD87A0-2407-4F05-BADA-4D8336545B60";
shapes = (
{
closed = 1;
nodes = (
(810,500,l),
(810,650,o),
(810,720,o),
(810,750,c),
(810,750,l),
(570,750,l),
(570,750,l),
(570,720,o),
(570,650,o),
(570,500,cs),
(570,365,l),
(300,750,l),
(50,750,l),
(50,750,l),
(50,720,o),
(50,650,o),
(50,500,cs),
(50,250,ls),
(50,100,o),
(50,30,o),
(50,0,c),
(50,0,l),
(290,0,l),
(290,0,l),
(290,30,o),
(290,100,o),
(290,250,cs),
(290,375,l),
(560,0,l),
(810,0,l)
);
}
);
width = 860;
},
{
anchors = (
{
name = bottom;
pos = (365,0);
},
{
name = top;
pos = (365,750);
}
);
layerId = "48DAC09D-95D4-4D70-8D14-87ABECD8575B";
shapes = (
{
closed = 1;
nodes = (
(629,690,l),
(629,720,o),
(629,740,o),
(629,750,c),
(629,750,l),
(613,750,l),
(613,750,l),
(613,740,o),
(613,720,o),
(613,690,cs),
(613,28,l),
(125,750,l),
(100,750,l),
(100,750,l),
(100,720,o),
(100,700,o),
(100,650,cs),
(100,60,ls),
(100,30,o),
(100,10,o),
(100,0,c),
(100,0,l),
(116,0,l),
(116,0,l),
(116,10,o),
(116,30,o),
(116,60,cs),
(116,734,l),
(612,0,l),
(629,0,l)
);
}
);
width = 729;
}
);
unicode = 78;
},
{
glyphname = Eng;
lastChange = "2023-06-24 02:03:51 +0000";
layers = (
{
layerId = "9E464B93-4987-4E25-B327-76BD95426741";
shapes = (
{
closed = 1;
nodes = (
(330,0,l),
(336,38,l),
(282,57,o),
(246,68,o),
(246,103,cs),
(246,638,l),
(672,0,l),
(672,-25,ls),
(672,-102,o),
(662,-149,o),
(609,-149,cs),
(576,-149,o),
(524,-113,o),
(505,-101,c),
(458,-165,l),
(485,-190,o),
(532,-220,o),
(585,-220,cs),
(704,-220,o),
(780,-137,o),
(780,-53,cs),
(780,667,l),
(796,689,o),
(811,702,o),
(862,715,c),
(862,750,l),
(617,750,l),
(611,712,l),
(656,693,o),
(695,669,o),
(695,638,cs),
(695,133,l),
(299,750,l),
(92,750,l),
(86,712,l),
(131,693,o),
(160,669,o),
(160,638,cs),
(160,123,ls),
(160,78,o),
(130,56,o),
(70,38,c),
(70,0,l)
);
}
);
width = 927;
},
{
layerId = "48DAC09D-95D4-4D70-8D14-87ABECD8575B";
shapes = (
{
closed = 1;
nodes = (
(190,0,l),
(190,0,l),
(190,30,o),
(190,100,o),
(190,250,cs),
(190,637,l),
(609,-28,l),
(609,-45,ls),
(609,-98,o),
(570,-136,o),
(523,-136,cs),
(477,-136,o),
(458,-114,o),
(437,-88,c),
(374,-139,l),
(391,-163,o),
(439,-220,o),
(522,-220,cs),
(620,-220,o),
(699,-142,o),
(699,-45,cs),
(699,500,l),
(699,650,o),
(699,720,o),
(699,750,c),
(699,750,l),
(609,750,l),
(609,750,l),
(609,720,o),
(609,650,o),
(609,500,cs),
(609,142,l),
(227,750,l),
(100,750,l),
(100,750,l),
(100,720,o),
(100,650,o),
(100,500,cs),
(100,250,ls),
(100,100,o),
(100,30,o),
(100,0,c),
(100,0,l)
);
}
);
width = 799;
},
{
layerId = m01;
shapes = (
{
closed = 1;
nodes = (
(310,0,l),
(316,38,l),
(262,57,o),
(226,68,o),
(226,103,cs),
(226,638,l),
(652,0,l),
(652,-25,ls),
(652,-102,o),
(642,-149,o),
(589,-149,cs),
(556,-149,o),
(504,-113,o),
(485,-101,c),
(438,-165,l),
(465,-190,o),
(512,-220,o),
(565,-220,cs),
(684,-220,o),
(760,-137,o),
(760,-53,cs),
(760,667,l),
(776,689,o),
(791,702,o),
(842,715,c),
(842,750,l),
(597,750,l),
(591,712,l),
(636,693,o),
(675,669,o),
(675,638,cs),
(675,133,l),
(279,750,l),
(72,750,l),
(66,712,l),
(111,693,o),
(140,669,o),
(140,638,cs),
(140,123,ls),
(140,78,o),
(110,56,o),
(50,38,c),
(50,0,l)
);
}
);
width = 882;
},
{
layerId = "BABFB3A0-9CFA-45ED-BD0F-DD711F12EEFF";
shapes = (
{
closed = 1;
nodes = (
(170,0,l),
(170,0,l),
(170,30,o),
(170,100,o),
(170,250,cs),
(170,637,l),
(589,-28,l),
(589,-45,ls),
(589,-98,o),
(550,-136,o),
(503,-136,cs),
(457,-136,o),
(438,-114,o),
(417,-88,c),
(354,-139,l),
(371,-163,o),
(419,-220,o),
(502,-220,cs),
(600,-220,o),
(679,-142,o),
(679,-45,cs),
(679,500,l),
(679,650,o),
(679,720,o),
(679,750,c),
(679,750,l),
(589,750,l),
(589,750,l),
(589,720,o),
(589,650,o),
(589,500,cs),
(589,142,l),
(207,750,l),
(80,750,l),
(80,750,l),
(80,720,o),
(80,650,o),
(80,500,cs),
(80,250,ls),
(80,100,o),
(80,30,o),
(80,0,c),
(80,0,l)
);
}
);
width = 759;
},
{
layerId = "C36E42DF-D6E4-4FAF-B5BA-99700BA29EB5";
shapes = (
{
closed = 1;
nodes = (
(290,0,l),
(296,38,l),
(242,57,o),
(206,68,o),
(206,103,cs),
(206,638,l),
(632,0,l),
(632,-25,ls),
(632,-102,o),
(622,-149,o),
(569,-149,cs),
(536,-149,o),
(484,-113,o),
(465,-101,c),
(418,-165,l),
(445,-190,o),
(492,-220,o),
(545,-220,cs),
(664,-220,o),
(740,-137,o),
(740,-53,cs),
(740,667,l),
(756,689,o),
(771,702,o),
(822,715,c),
(822,750,l),
(577,750,l),
(571,712,l),
(616,693,o),
(655,669,o),
(655,638,cs),
(655,133,l),
(259,750,l),
(52,750,l),
(46,712,l),
(91,693,o),
(120,669,o),
(120,638,cs),
(120,123,ls),
(120,78,o),
(90,56,o),
(30,38,c),
(30,0,l)
);
}
);
width = 842;
},
{
layerId = "C8CD87A0-2407-4F05-BADA-4D8336545B60";
shapes = (
{
closed = 1;
nodes = (
(140,0,l),
(140,0,l),
(140,30,o),
(140,100,o),
(140,250,cs),
(140,637,l),
(559,-28,l),
(559,-45,ls),
(559,-98,o),
(520,-136,o),
(473,-136,cs),
(427,-136,o),
(408,-114,o),
(387,-88,c),
(324,-139,l),
(341,-163,o),
(389,-220,o),
(472,-220,cs),
(570,-220,o),
(649,-142,o),
(649,-45,cs),
(649,500,l),
(649,650,o),
(649,720,o),
(649,750,c),
(649,750,l),
(559,750,l),
(559,750,l),
(559,720,o),
(559,650,o),
(559,500,cs),
(559,142,l),
(177,750,l),
(50,750,l),
(50,750,l),
(50,720,o),
(50,650,o),
(50,500,cs),
(50,250,ls),
(50,100,o),
(50,30,o),
(50,0,c),
(50,0,l)
);
}
);
width = 699;
}
);
metricLeft = "=N";
metricRight = "=N";
unicode = 330;
},
{
glyphname = O;
kernLeft = O;
kernRight = O;
lastChange = "2023-06-23 17:58:30 +0000";
layers = (
{
anchors = (
{
name = bottom;
pos = (423,0);
},
{
name = center;
pos = (423,375);
},
{
name = ogonek;
pos = (761,10);
},
{
name = top;
pos = (423,750);
},
{
name = topleft;
pos = (20,750);
},
{
name = topright;
pos = (696,610);
}
);
layerId = m01;
shapes = (
{
closed = 1;
nodes = (
(249,67,o),
(171,230,o),
(171,420,cs),
(171,585,o),
(268,683,o),
(415,683,cs),
(596,683,o),
(674,520,o),
(674,330,cs),
(674,165,o),
(577,67,o),
(430,67,cs)
);
},
{
closed = 1;
nodes = (
(591,-10,o),
(795,162,o),
(795,396,cs),
(795,594,o),
(675,760,o),
(437,760,cs),
(254,760,o),
(50,588,o),
(50,354,cs),
(50,156,o),
(170,-10,o),
(408,-10,cs)
);
}
);
width = 845;
},
{
anchors = (
{
name = bottom;
pos = (430,0);
},
{
name = center;
pos = (430,375);
},
{
name = ogonek;
pos = (773,10);
},
{
name = top;
pos = (430,750);
},
{
name = topleft;
pos = (20,750);
},
{
name = topright;
pos = (839,750);
}
);
layerId = "C36E42DF-D6E4-4FAF-B5BA-99700BA29EB5";
shapes = (
{
closed = 1;
nodes = (
(361,198,o),
(300,271,o),
(300,399,cs),
(300,482,o),
(347,552,o),
(420,552,cs),
(498,552,o),
(559,480,o),
(559,352,cs),
(559,268,o),
(512,198,o),
(439,198,cs)
);
},
{
closed = 1;
nodes = (
(656,-10,o),
(829,162,o),
(829,396,cs),
(829,594,o),
(689,760,o),
(435,760,cs),
(203,760,o),
(30,588,o),
(30,354,cs),
(30,156,o),
(170,-10,o),
(424,-10,cs)
);
}
);
width = 859;
},
{
anchors = (
{
name = bottom;
pos = (438,0);
},
{
name = center;
pos = (438,375);
},
{
name = ogonek;
pos = (788,10);
},
{
name = top;
pos = (438,750);
},
{
name = topleft;
pos = (20,750);
},
{
name = topright;
pos = (855,750);
}
);
layerId = "9E464B93-4987-4E25-B327-76BD95426741";
shapes = (
{
closed = 1;
nodes = (
(235,5,o),
(91,185,o),
(91,386,cs),
(91,577,o),
(261,745,o),
(437,745,cs),
(675,745,o),
(784,565,o),
(784,364,cs),
(784,173,o),
(650,5,o),
(447,5,cs)
);
},
{
closed = 1;
nodes = (
(656,-10,o),
(805,162,o),
(805,396,cs),
(805,584,o),
(680,760,o),
(452,760,cs),
(249,760,o),
(70,588,o),
(70,354,cs),
(70,166,o),
(225,-10,o),
(436,-10,cs)
);
}
);
width = 875;
},
{
anchors = (
{
name = bottom;
pos = (427,0);
},
{
name = center;
pos = (427,375);
},
{
name = ogonek;
pos = (741,10);
},
{
name = top;
pos = (427,750);
},
{
name = topleft;
pos = (20,750);
},
{
name = topright;
pos = (676,610);
}
);
layerId = "BABFB3A0-9CFA-45ED-BD0F-DD711F12EEFF";
shapes = (
{
closed = 1;
nodes = (
(266,74,o),
(140,212,o),
(140,375,cs),
(140,538,o),
(266,676,o),
(427,676,cs),
(588,676,o),
(714,538,o),
(714,375,cs),
(714,212,o),
(588,74,o),
(427,74,cs)
);
},
{
closed = 1;
nodes = (
(640,-10,o),
(804,162,o),
(804,375,cs),
(804,588,o),
(640,760,o),
(427,760,cs),
(214,760,o),
(50,588,o),
(50,375,cs),
(50,162,o),
(214,-10,o),
(427,-10,cs)
);
}
);
width = 854;
},
{
anchors = (
{
name = bottom;
pos = (435,0);
},
{
name = center;
pos = (435,375);
},
{
name = ogonek;
pos = (783,10);
},
{
name = top;
pos = (435,750);
},
{
name = topleft;
pos = (20,750);
},
{
name = topright;
pos = (850,750);
}
);
layerId = "C8CD87A0-2407-4F05-BADA-4D8336545B60";
shapes = (
{
closed = 1;
nodes = (
(357,213,o),
(303,275,o),
(303,375,cs),
(303,475,o),
(357,537,o),
(435,537,cs),
(513,537,o),
(567,475,o),
(567,375,cs),
(567,275,o),
(513,213,o),
(435,213,cs)
);
},
{
closed = 1;
nodes = (
(647,-10,o),
(830,152,o),
(830,375,cs),
(830,598,o),
(647,760,o),
(435,760,cs),
(223,760,o),
(40,598,o),
(40,375,cs),
(40,152,o),
(223,-10,o),
(435,-10,cs)
);
}
);
width = 870;
},
{
anchors = (
{
name = bottom;
pos = (445,0);
},
{
name = center;
pos = (445,375);
},
{
name = ogonek;
pos = (801,10);
},
{
name = top;
pos = (445,750);
},
{
name = topleft;
pos = (20,750);
},
{
name = topright;
pos = (870,750);
}
);
layerId = "48DAC09D-95D4-4D70-8D14-87ABECD8575B";
shapes = (
{
closed = 1;
nodes = (
(242,5,o),
(86,172,o),
(86,375,cs),
(86,578,o),
(242,745,o),
(445,745,cs),
(648,745,o),
(804,578,o),
(804,375,cs),
(804,172,o),
(648,5,o),
(445,5,cs)
);
},
{
closed = 1;
nodes = (
(658,-10,o),
(820,162,o),
(820,375,cs),
(820,588,o),
(658,760,o),
(445,760,cs),
(232,760,o),
(70,588,o),
(70,375,cs),
(70,162,o),
(232,-10,o),
(445,-10,cs)
);
}
);
width = 890;
}
);
unicode = 79;
},
{
glyphname = OE;
lastChange = "2023-06-24 02:03:52 +0000";
layers = (
{
layerId = "9E464B93-4987-4E25-B327-76BD95426741";
shapes = (
{
closed = 1;
nodes = (
(668,411,l),
(668,680,l),
(886,680,ls),
(950,680,o),
(955,608,o),
(955,575,c),
(1008,563,l),
(1030,739,l),
(1015,750,l),
(457,750,ls),
(274,750,o),
(70,588,o),
(70,354,cs),
(70,156,o),
(190,0,o),
(428,0,cs),
(1005,0,l),
(1060,174,l),
(1010,192,l),
(986,119,o),
(936,70,o),
(867,70,cs),
(668,70,l),
(668,341,l),
(900,341,l),
(900,411,l)
);
},
{
closed = 1;
nodes = (
(191,585,o),
(288,686,o),
(435,683,cs),
(563,680,l),
(563,70,l),
(450,67,ls),
(269,62,o),
(191,230,o),
(191,420,cs)
);
}
);
width = 1120;
},
{
layerId = "48DAC09D-95D4-4D70-8D14-87ABECD8575B";
shapes = (
{
closed = 1;
nodes = (
(653,416,l),
(653,670,l),
(760,670,ls),
(910,670,o),
(980,670,o),
(1010,670,c),
(1010,670,l),
(1010,750,l),
(1010,750,l),
(427,750,ls),
(224,750,o),
(70,588,o),
(70,375,cs),
(70,162,o),
(224,0,o),
(427,0,cs),
(1010,0,l),
(1010,80,l),
(1010,80,l),
(980,80,o),
(910,80,o),
(760,80,cs),
(653,80,l),
(653,336,l),
(885,336,l),
(885,416,l)
);
},
{
closed = 1;
nodes = (
(160,540,o),
(286,677,o),
(447,673,cs),
(563,670,l),
(563,80,l),
(447,77,ls),
(286,73,o),
(160,212,o),
(160,375,cs)
);
}
);
width = 1090;
},
{
layerId = m01;
shapes = (
{
closed = 1;
nodes = (
(648,411,l),
(648,680,l),
(866,680,ls),
(930,680,o),
(935,608,o),
(935,575,c),
(988,563,l),
(1010,739,l),
(995,750,l),
(437,750,ls),
(254,750,o),
(50,588,o),
(50,354,cs),
(50,156,o),
(170,0,o),
(408,0,cs),
(985,0,l),
(1040,174,l),
(990,192,l),
(966,119,o),
(916,70,o),
(847,70,cs),
(648,70,l),
(648,341,l),
(880,341,l),
(880,411,l)
);
},
{
closed = 1;
nodes = (
(171,585,o),
(268,686,o),
(415,683,cs),
(543,680,l),
(543,70,l),
(430,67,ls),
(249,62,o),
(171,230,o),
(171,420,cs)
);
}
);
width = 1080;
},
{
layerId = "BABFB3A0-9CFA-45ED-BD0F-DD711F12EEFF";
shapes = (
{
closed = 1;
nodes = (
(633,416,l),
(633,670,l),
(740,670,ls),
(890,670,o),
(960,670,o),
(990,670,c),
(990,670,l),
(990,750,l),
(990,750,l),
(407,750,ls),
(204,750,o),
(50,588,o),
(50,375,cs),
(50,162,o),
(204,0,o),
(407,0,cs),
(990,0,l),
(990,80,l),
(990,80,l),
(960,80,o),
(890,80,o),
(740,80,cs),
(633,80,l),
(633,336,l),
(865,336,l),
(865,416,l)
);
},
{
closed = 1;
nodes = (
(140,540,o),
(266,677,o),
(427,673,cs),
(543,670,l),
(543,80,l),
(427,77,ls),
(266,73,o),
(140,212,o),
(140,375,cs)
);
}
);
width = 1050;
},
{
layerId = "C36E42DF-D6E4-4FAF-B5BA-99700BA29EB5";
shapes = (
{
closed = 1;
nodes = (
(628,411,l),
(628,680,l),
(846,680,ls),
(910,680,o),
(915,608,o),
(915,575,c),
(968,563,l),
(990,739,l),
(975,750,l),
(417,750,ls),
(234,750,o),
(30,588,o),
(30,354,cs),
(30,156,o),
(150,0,o),
(388,0,cs),
(965,0,l),
(1020,174,l),
(970,192,l),
(946,119,o),
(896,70,o),
(827,70,cs),
(628,70,l),
(628,341,l),
(860,341,l),
(860,411,l)
);
},
{
closed = 1;
nodes = (
(151,585,o),
(248,686,o),
(395,683,cs),
(523,680,l),
(523,70,l),
(410,67,ls),
(229,62,o),
(151,230,o),
(151,420,cs)
);
}
);
width = 1040;
},
{
layerId = "C8CD87A0-2407-4F05-BADA-4D8336545B60";
shapes = (
{
closed = 1;
nodes = (
(623,416,l),
(623,670,l),
(730,670,ls),
(880,670,o),
(950,670,o),
(980,670,c),
(980,670,l),
(980,750,l),
(980,750,l),
(397,750,ls),
(194,750,o),
(40,588,o),
(40,375,cs),
(40,162,o),
(194,0,o),
(397,0,cs),
(980,0,l),
(980,80,l),
(980,80,l),
(950,80,o),
(880,80,o),
(730,80,cs),
(623,80,l),
(623,336,l),
(855,336,l),
(855,416,l)
);
},
{
closed = 1;
nodes = (
(130,540,o),
(256,677,o),
(417,673,cs),
(533,670,l),
(533,80,l),
(417,77,ls),
(256,73,o),
(130,212,o),
(130,375,cs)
);
}
);
width = 1010;
}
);
metricLeft = "=O";
metricRight = "=E";
unicode = 338;
},
{
glyphname = P;
kernRight = P;
lastChange = "2023-06-12 21:17:10 +0000";
layers = (
{
anchors = (
{
name = bottom;
pos = (325,0);
},
{
name = top;
pos = (325,750);
}
);
layerId = m01;
metricLeft = "=H";
metricRight = "=E";
shapes = (
{
closed = 1;
nodes = (
(329,0,l),
(335,38,l),
(281,58,o),
(245,68,o),
(245,103,cs),
(245,311,l),
(312,311,ls),
(472,311,o),
(609,417,o),
(609,555,cs),
(609,679,o),
(506,750,o),
(385,750,cs),
(62,750,l),
(56,712,l),
(101,693,o),
(140,669,o),
(140,638,cs),
(140,123,ls),
(140,78,o),
(110,67,o),
(50,38,c),
(50,0,l)
);
},
{
closed = 1;
nodes = (
(245,680,l),
(335,680,ls),
(442,680,o),
(498,613,o),
(498,530,cs),
(498,452,o),
(453,391,o),
(336,391,cs),
(245,391,l)
);
}
);
width = 649;
},
{
anchors = (
{
name = bottom;
pos = (389,0);
},
{
name = top;
pos = (389,750);
}
);
layerId = "C36E42DF-D6E4-4FAF-B5BA-99700BA29EB5";
metricLeft = "=H";
metricRight = "=E";
shapes = (
{
closed = 1;
nodes = (
(394,0,l),
(410,132,l),
(355,147,o),
(330,166,o),
(330,221,cs),
(330,221,l),
(450,221,ls),
(624,221,o),
(758,351,o),
(758,501,cs),
(758,616,o),
(679,750,o),
(508,750,cs),
(52,750,l),
(36,602,l),
(61,583,o),
(90,559,o),
(90,498,cs),
(90,262,ls),
(90,178,o),
(71,164,o),
(30,148,c),
(30,0,l)
);
},
{
closed = 1;
nodes = (
(330,560,l),
(437,560,ls),
(481,560,o),
(516,527,o),
(516,486,cs),
(516,447,o),
(484,411,o),
(412,411,cs),
(330,411,l)
);
}
);
width = 778;
},
{
anchors = (
{
name = bottom;
pos = (306,0);
},
{
name = top;
pos = (306,750);
}
);
layerId = "9E464B93-4987-4E25-B327-76BD95426741";
metricLeft = "=H";
metricRight = "=E";
shapes = (
{
closed = 1;
nodes = (
(286,0,l),
(290,8,l),
(224,18,o),
(190,15,o),
(190,38,cs),
(190,341,l),
(294,341,ls),
(447,341,o),
(552,428,o),
(552,554,cs),
(552,660,o),
(461,750,o),
(330,750,cs),
(74,750,l),
(70,742,l),
(120,742,o),
(170,742,o),
(170,712,cs),
(170,38,ls),
(170,15,o),
(140,17,o),
(70,8,c),
(70,0,l)
);
},
{
closed = 1;
nodes = (
(190,739,l),
(320,739,ls),
(446,739,o),
(534,639,o),
(534,537,cs),
(534,439,o),
(444,352,o),
(301,352,cs),
(190,352,l)
);
}
);
width = 612;
},
{
anchors = (
{
name = bottom;
pos = (298,0);
},
{
name = top;
pos = (298,750);
}
);
layerId = "BABFB3A0-9CFA-45ED-BD0F-DD711F12EEFF";
metricLeft = "=N";
metricRight = "=N-30";
shapes = (
{
closed = 1;
nodes = (
(170,0,l),
(170,0,l),
(170,30,o),
(170,100,o),
(170,250,cs),
(170,311,l),
(327,311,ls),
(447,311,o),
(546,408,o),
(546,530,cs),
(546,651,o),
(447,750,o),
(327,750,cs),
(80,750,l),
(80,750,l),
(80,720,o),
(80,650,o),
(80,500,cs),
(80,250,ls),
(80,100,o),
(80,30,o),
(80,0,c),
(80,0,l)
);
},
{
closed = 1;
nodes = (
(170,670,l),
(320,670,ls),
(398,670,o),
(459,606,o),
(459,530,cs),
(459,454,o),
(398,391,o),
(320,391,cs),
(170,391,l)
);
}
);
width = 596;
},
{
anchors = (
{
name = bottom;
pos = (368,0);
},
{
name = top;
pos = (368,750);
}
);
layerId = "C8CD87A0-2407-4F05-BADA-4D8336545B60";
metricLeft = "=N";
metricRight = "=N-30";
shapes = (
{
closed = 1;
nodes = (
(290,0,l),
(290,0,l),
(290,30,o),
(290,100,o),
(290,159,cs),
(290,219,l),
(451,219,ls),
(597,219,o),
(716,338,o),
(716,485,cs),
(716,631,o),
(597,750,o),
(451,750,cs),
(50,750,l),
(50,750,l),
(50,720,o),
(50,650,o),
(50,500,cs),
(50,250,ls),
(50,100,o),
(50,30,o),
(50,0,c),
(50,0,l)
);
},
{
closed = 1;
nodes = (
(290,559,l),
(402,559,ls),
(446,559,o),
(481,526,o),
(481,485,cs),
(481,444,o),
(446,410,o),
(402,410,cs),
(290,410,l)
);
}
);
width = 736;
},
{
anchors = (
{
name = bottom;
pos = (276,0);
},
{
name = top;
pos = (276,750);
}
);
layerId = "48DAC09D-95D4-4D70-8D14-87ABECD8575B";
metricLeft = "=N";
metricRight = "=N-30";
shapes = (
{
closed = 1;
nodes = (
(116,6,l),
(116,6,l),
(116,16,o),
(116,35,o),
(116,65,cs),
(116,338,l),
(274,338,ls),
(391,338,o),
(481,429,o),
(481,544,cs),
(481,660,o),
(391,750,o),
(274,750,cs),
(100,750,l),
(100,750,l),
(100,720,o),
(100,700,o),
(100,651,cs),
(100,65,ls),
(100,35,o),
(100,16,o),
(100,6,c),
(100,6,l)
);
},
{
closed = 1;
nodes = (
(116,736,l),
(274,736,ls),
(380,736,o),
(465,650,o),
(465,545,cs),
(465,439,o),
(380,352,o),
(274,352,cs),
(116,352,l)
);
}
);
width = 551;
}
);
metricLeft = "=N";
metricRight = "=N-30";
unicode = 80;
},
{
glyphname = Thorn;
lastChange = "2023-06-24 02:03:53 +0000";
layers = (
{
layerId = "9E464B93-4987-4E25-B327-76BD95426741";
shapes = (
{
closed = 1;
nodes = (
(349,0,l),
(355,38,l),
(291,58,o),
(265,65,o),
(265,100,cs),
(265,181,l),
(353,181,ls),
(506,181,o),
(628,275,o),
(628,398,cs),
(628,509,o),
(536,572,o),
(418,572,cs),
(265,572,l),
(265,657,l),
(281,679,o),
(316,699,o),
(357,712,c),
(357,750,l),
(76,750,l),
(70,712,l),
(119,695,o),
(160,669,o),
(160,638,cs),
(160,123,ls),
(160,78,o),
(120,56,o),
(70,38,c),
(70,0,l)
);
},
{
closed = 1;
nodes = (
(265,510,l),
(374,510,ls),
(469,510,o),
(519,450,o),
(519,376,cs),
(519,307,o),
(479,252,o),
(375,252,cs),
(265,252,l)
);
}
);
width = 688;
},
{
layerId = "48DAC09D-95D4-4D70-8D14-87ABECD8575B";
shapes = (
{
closed = 1;
nodes = (
(190,0,l),
(190,0,l),
(190,30,o),
(190,100,o),
(190,181,cs),
(190,181,l),
(358,181,ls),
(464,181,o),
(553,269,o),
(553,377,cs),
(553,484,o),
(464,572,o),
(358,572,cs),
(190,572,l),
(190,572,l),
(190,650,o),
(190,720,o),
(190,750,c),
(190,750,l),
(100,750,l),
(100,750,l),
(100,720,o),
(100,650,o),
(100,500,cs),
(100,250,ls),
(100,100,o),
(100,30,o),
(100,0,c),
(100,0,l)
);
},
{
closed = 1;
nodes = (
(190,489,l),
(358,489,ls),
(416,489,o),
(465,438,o),
(465,377,cs),
(465,315,o),
(416,264,o),
(358,264,cs),
(190,264,l)
);
}
);
width = 623;
},
{
layerId = m01;
shapes = (
{
closed = 1;
nodes = (
(329,0,l),
(335,38,l),
(271,58,o),
(245,65,o),
(245,100,cs),
(245,181,l),
(333,181,ls),
(486,181,o),
(608,275,o),
(608,398,cs),
(608,509,o),
(516,572,o),
(398,572,cs),
(245,572,l),
(245,657,l),
(261,679,o),
(296,699,o),
(337,712,c),
(337,750,l),
(56,750,l),
(50,712,l),
(99,695,o),
(140,669,o),
(140,638,cs),
(140,123,ls),
(140,78,o),
(100,56,o),
(50,38,c),
(50,0,l)
);
},
{
closed = 1;
nodes = (
(245,510,l),
(354,510,ls),
(449,510,o),
(499,450,o),
(499,376,cs),
(499,307,o),
(459,252,o),
(355,252,cs),
(245,252,l)
);
}
);
width = 648;
},
{
layerId = "BABFB3A0-9CFA-45ED-BD0F-DD711F12EEFF";
shapes = (
{
closed = 1;
nodes = (
(170,0,l),
(170,0,l),
(170,30,o),
(170,100,o),
(170,181,cs),
(170,181,l),
(338,181,ls),
(444,181,o),
(533,269,o),
(533,377,cs),
(533,484,o),
(444,572,o),
(338,572,cs),
(170,572,l),
(170,572,l),
(170,650,o),
(170,720,o),
(170,750,c),
(170,750,l),
(80,750,l),
(80,750,l),
(80,720,o),
(80,650,o),
(80,500,cs),
(80,250,ls),
(80,100,o),
(80,30,o),
(80,0,c),
(80,0,l)
);
},
{
closed = 1;
nodes = (
(170,489,l),
(338,489,ls),
(396,489,o),
(445,438,o),
(445,377,cs),
(445,315,o),
(396,264,o),
(338,264,cs),
(170,264,l)
);
}
);
width = 583;
},
{
layerId = "C36E42DF-D6E4-4FAF-B5BA-99700BA29EB5";
shapes = (
{
closed = 1;
nodes = (
(309,0,l),
(315,38,l),
(251,58,o),
(225,65,o),
(225,100,cs),
(225,181,l),
(313,181,ls),
(466,181,o),
(588,275,o),
(588,398,cs),
(588,509,o),
(496,572,o),
(378,572,cs),
(225,572,l),
(225,657,l),
(241,679,o),
(276,699,o),
(317,712,c),
(317,750,l),
(36,750,l),
(30,712,l),
(79,695,o),
(120,669,o),
(120,638,cs),
(120,123,ls),
(120,78,o),
(80,56,o),
(30,38,c),
(30,0,l)
);
},
{
closed = 1;
nodes = (
(225,510,l),
(334,510,ls),
(429,510,o),
(479,450,o),
(479,376,cs),
(479,307,o),
(439,252,o),
(335,252,cs),
(225,252,l)
);
}
);
width = 608;
},
{
layerId = "C8CD87A0-2407-4F05-BADA-4D8336545B60";
shapes = (
{
closed = 1;
nodes = (
(140,0,l),
(140,0,l),
(140,30,o),
(140,100,o),
(140,181,cs),
(140,181,l),
(308,181,ls),
(414,181,o),
(503,269,o),
(503,377,cs),
(503,484,o),
(414,572,o),
(308,572,cs),
(140,572,l),
(140,572,l),
(140,650,o),
(140,720,o),
(140,750,c),
(140,750,l),
(50,750,l),
(50,750,l),
(50,720,o),
(50,650,o),
(50,500,cs),
(50,250,ls),
(50,100,o),
(50,30,o),
(50,0,c),
(50,0,l)
);
},
{
closed = 1;
nodes = (
(140,489,l),
(308,489,ls),
(366,489,o),
(415,438,o),
(415,377,cs),
(415,315,o),
(366,264,o),
(308,264,cs),
(140,264,l)
);
}
);
width = 523;
}
);
metricLeft = "=I";
metricRight = "=P";
unicode = 222;
},
{
glyphname = Q;
kernLeft = Q;
lastChange = "2023-06-12 21:17:10 +0000";
layers = (
{
anchors = (
{
name = bottom;
pos = (423,0);
},
{
name = top;
pos = (423,750);
}
);
layerId = m01;
metricLeft = "=O";
shapes = (
{
closed = 1;
nodes = (
(923,-220,o),
(986,-159,o),
(1016,-74,c),
(985,-50,l),
(962,-94,o),
(902,-125,o),
(860,-125,cs),
(764,-125,o),
(596,0,o),
(468,-24,c),
(696,87,o),
(795,225,o),
(795,396,cs),
(795,594,o),
(675,760,o),
(437,760,cs),
(254,760,o),
(50,588,o),
(50,354,cs),
(50,156,o),
(164,-10,o),
(425,-10,c),
(371,-52,o),
(307,-81,o),
(247,-111,c),
(285,-163,l),
(335,-114,o),
(395,-90,o),
(440,-90,cs),
(612,-90,o),
(711,-220,o),
(839,-220,cs)
);
},
{
closed = 1;
nodes = (
(249,67,o),
(171,230,o),
(171,420,cs),
(171,585,o),
(268,683,o),
(415,683,cs),
(596,683,o),
(674,520,o),
(674,330,cs),
(674,165,o),
(577,67,o),
(430,67,cs)
);
}
);
width = 846;
},
{
anchors = (
{
name = bottom;
pos = (422,0);
},
{
name = top;
pos = (422,750);
}
);
layerId = "C36E42DF-D6E4-4FAF-B5BA-99700BA29EB5";
metricLeft = "=o";
shapes = (
{
closed = 1;
nodes = (
(910,-220,o),
(992,-183,o),
(1043,-102,c),
(952,0,l),
(937,-28,o),
(897,-46,o),
(826,-46,cs),
(709,-46,o),
(640,28,o),
(461,-15,c),
(616,26,o),
(819,122,o),
(819,396,cs),
(819,594,o),
(679,760,o),
(425,760,cs),
(193,760,o),
(20,588,o),
(20,354,cs),
(20,136,o),
(189,13,o),
(336,-4,c),
(301,-28,o),
(244,-52,o),
(199,-61,c),
(291,-207,l),
(339,-175,o),
(409,-147,o),
(499,-147,cs),
(641,-147,o),
(698,-220,o),
(826,-220,cs)
);
},
{
closed = 1;
nodes = (
(351,198,o),
(290,271,o),
(290,399,cs),
(290,482,o),
(337,552,o),
(410,552,cs),
(488,552,o),
(549,480,o),
(549,352,cs),
(549,268,o),
(502,198,o),
(429,198,cs)
);
}
);
width = 843;
},
{
anchors = (
{
name = bottom;
pos = (438,0);
},
{
name = top;
pos = (438,750);
}
);
layerId = "9E464B93-4987-4E25-B327-76BD95426741";
metricLeft = "=O";
shapes = (
{
closed = 1;
nodes = (
(944,-177,o),
(985,-148,o),
(1025,-70,c),
(1020,-64,l),
(997,-108,o),
(950,-156,o),
(868,-156,cs),
(732,-156,o),
(608,-20,o),
(399,-64,c),
(645,36,o),
(805,147,o),
(805,396,cs),
(805,584,o),
(680,760,o),
(452,760,cs),
(249,760,o),
(70,588,o),
(70,354,cs),
(70,166,o),
(209,-53,o),
(502,-2,c),
(389,-54,o),
(330,-90,o),
(268,-115,c),
(280,-133,l),
(337,-97,o),
(382,-70,o),
(477,-70,cs),
(629,-70,o),
(752,-177,o),
(860,-177,cs)
);
},
{
closed = 1;
nodes = (
(205,5,o),
(91,185,o),
(91,386,cs),
(91,577,o),
(261,745,o),
(437,745,cs),
(675,745,o),
(784,565,o),
(784,364,cs),
(784,173,o),
(620,5,o),
(434,5,cs)
);
}
);
width = 875;
},
{
anchors = (
{
name = bottom;
pos = (424,0);
},
{
name = top;
pos = (424,750);
}
);
layerId = "BABFB3A0-9CFA-45ED-BD0F-DD711F12EEFF";
metricLeft = "=O";
shapes = (
{
closed = 1;
nodes = (
(931,-212,o),
(997,-167,o),
(1048,-116,c),
(996,-55,l),
(974,-78,o),
(919,-128,o),
(842,-128,cs),
(718,-128,o),
(630,0,o),
(477,-5,c),
(646,13,o),
(804,162,o),
(804,375,cs),
(804,588,o),
(640,760,o),
(427,760,cs),
(214,760,o),
(50,588,o),
(50,375,cs),
(50,177,o),
(204,-21,o),
(438,-8,c),
(354,-16,o),
(281,-64,o),
(238,-101,c),
(284,-168,l),
(342,-121,o),
(404,-87,o),
(483,-87,cs),
(633,-87,o),
(714,-212,o),
(849,-212,cs)
);
},
{
closed = 1;
nodes = (
(264,74,o),
(140,212,o),
(140,375,cs),
(140,538,o),
(264,676,o),
(427,676,cs),
(590,676,o),
(714,538,o),
(714,375,cs),
(714,212,o),
(590,74,o),
(427,74,cs)
);
}
);
width = 848;
},
{
anchors = (
{
name = bottom;
pos = (428,0);
},
{
name = top;
pos = (428,750);
}
);
layerId = "C8CD87A0-2407-4F05-BADA-4D8336545B60";
metricLeft = "=O";
shapes = (
{
closed = 1;
nodes = (
(936,-220,o),
(1006,-204,o),
(1070,-173,c),
(951,-4,l),
(903,-23,o),
(849,-36,o),
(790,-36,cs),
(690,-36,o),
(646,1,o),
(563,12,c),
(674,47,o),
(830,164,o),
(830,375,cs),
(830,598,o),
(648,760,o),
(435,760,cs),
(222,760,o),
(40,598,o),
(40,375,cs),
(40,175,o),
(199,35,o),
(323,5,c),
(279,-4,o),
(228,-22,o),
(189,-51,c),
(308,-220,l),
(373,-185,o),
(440,-163,o),
(522,-163,cs),
(651,-163,o),
(722,-220,o),
(863,-220,cs)
);
},
{
closed = 1;
nodes = (
(357,213,o),
(303,275,o),
(303,375,cs),
(303,475,o),
(357,537,o),
(435,537,cs),
(513,537,o),
(567,475,o),
(567,375,cs),
(567,275,o),
(513,213,o),
(435,213,cs)
);
}
);
width = 856;
},
{
anchors = (
{
name = bottom;
pos = (436,0);
},
{
name = top;
pos = (436,750);
}
);
layerId = "48DAC09D-95D4-4D70-8D14-87ABECD8575B";
metricLeft = "=O";
shapes = (
{
closed = 1;
nodes = (
(922,-142,o),
(975,-107,o),
(1022,-63,c),
(1013,-52,l),
(979,-87,o),
(924,-128,o),
(843,-128,cs),
(707,-128,o),
(642,-2,o),
(494,-4,c),
(673,17,o),
(820,167,o),
(820,375,cs),
(820,588,o),
(658,760,o),
(445,760,cs),
(232,760,o),
(70,588,o),
(70,375,cs),
(70,181,o),
(217,-21,o),
(458,-6,c),
(370,-19,o),
(299,-64,o),
(256,-101,c),
(264,-112,l),
(313,-72,o),
(399,-17,o),
(496,-17,cs),
(633,-17,o),
(705,-142,o),
(843,-142,cs)
);
},
{
closed = 1;
nodes = (
(242,6,o),
(86,172,o),
(86,375,cs),
(86,578,o),
(242,745,o),
(445,745,cs),
(648,745,o),
(804,578,o),
(804,375,cs),
(804,172,o),
(648,6,o),
(445,6,cs)
);
}
);
width = 872;
}
);
metricLeft = O;
unicode = 81;
},
{
glyphname = R;
kernRight = R;
lastChange = "2023-06-24 02:14:51 +0000";
layers = (
{
anchors = (
{
name = bottom;
pos = (388,0);
},
{
name = center;
pos = (194,354);
},
{
name = top;
pos = (388,750);
}
);
layerId = m01;
metricLeft = "=H";
metricRight = "=E-20";
shapes = (
{
closed = 1;
nodes = (
(329,0,l),
(335,38,l),
(281,58,o),
(245,68,o),
(245,103,cs),
(245,311,l),
(361,311,l),
(545,80,l),
(538,64,o),
(522,44,o),
(470,38,c),
(470,0,l),
(750,0,l),
(756,38,l),
(731,38,o),
(689,60,o),
(672,81,cs),
(458,343,l),
(547,384,o),
(609,462,o),
(609,555,cs),
(609,679,o),
(506,750,o),
(385,750,cs),
(57,750,l),
(51,712,l),
(101,693,o),
(140,669,o),
(140,638,cs),
(140,123,ls),
(140,78,o),
(100,56,o),
(50,38,c),
(50,0,l)
);
},
{
closed = 1;
nodes = (
(245,680,l),
(335,680,ls),
(442,680,o),
(498,613,o),
(498,530,cs),
(498,452,o),
(453,391,o),
(336,391,cs),
(245,391,l)
);
}
);
width = 776;
},
{
anchors = (
{
name = bottom;
pos = (416,0);
},
{
name = center;
pos = (194,354);
},
{
name = top;
pos = (416,750);
}
);
layerId = "C36E42DF-D6E4-4FAF-B5BA-99700BA29EB5";
metricLeft = "=H";
shapes = (
{
closed = 1;
nodes = (
(379,0,l),
(395,132,l),
(365,147,o),
(330,166,o),
(330,201,cs),
(330,258,l),
(463,251,l),
(497,166,l),
(478,147,o),
(464,138,o),
(438,132,c),
(440,0,l),
(805,0,l),
(811,148,l),
(786,151,o),
(742,159,o),
(726,189,cs),
(667,304,l),
(714,343,o),
(758,408,o),
(758,501,cs),
(758,616,o),
(679,750,o),
(508,750,cs),
(52,750,l),
(36,602,l),
(61,583,o),
(90,559,o),
(90,498,cs),
(90,262,ls),
(90,178,o),
(71,164,o),
(30,148,c),
(30,0,l)
);
},
{
closed = 1;
nodes = (
(330,567,l),
(437,567,ls),
(481,567,o),
(516,534,o),
(516,493,cs),
(516,454,o),
(484,418,o),
(412,418,cs),
(330,418,l)
);
}
);
width = 831;
},
{
anchors = (
{
name = bottom;
pos = (383,0);
},
{
name = center;
pos = (194,354);
},
{
name = top;
pos = (383,750);
}
);
layerId = "9E464B93-4987-4E25-B327-76BD95426741";
metricLeft = "=H";
metricRight = "=E-20";
shapes = (
{
closed = 1;
nodes = (
(286,0,l),
(290,8,l),
(242,8,o),
(190,8,o),
(190,38,cs),
(190,345,l),
(369,345,l),
(601,34,ls),
(621,7,o),
(550,8,o),
(500,8,c),
(500,0,l),
(721,0,l),
(725,8,l),
(675,8,o),
(644,7,o),
(624,34,cs),
(389,349,l),
(477,368,o),
(561,438,o),
(561,554,cs),
(561,659,o),
(470,750,o),
(339,750,cs),
(74,750,l),
(70,742,l),
(120,742,o),
(170,742,o),
(170,712,cs),
(170,38,ls),
(170,8,o),
(120,8,o),
(70,8,c),
(70,0,l)
);
},
{
closed = 1;
nodes = (
(190,739,l),
(329,739,ls),
(455,739,o),
(543,639,o),
(543,537,cs),
(543,443,o),
(461,356,o),
(349,356,cs),
(190,356,l)
);
}
);
width = 765;
},
{
anchors = (
{
name = bottom;
pos = (308,0);
},
{
name = center;
pos = (129,362);
},
{
name = top;
pos = (308,750);
}
);
layerId = "BABFB3A0-9CFA-45ED-BD0F-DD711F12EEFF";
metricLeft = "=N";
metricRight = "=N/2";
shapes = (
{
closed = 1;
nodes = (
(170,0,l),
(170,0,l),
(170,30,o),
(170,100,o),
(170,250,cs),
(170,322,l),
(293,322,l),
(390,150,ls),
(446,51,o),
(457,30,o),
(473,0,c),
(473,0,l),
(580,0,l),
(580,0,l),
(563,30,o),
(552,49,o),
(494,150,cs),
(390,331,l),
(471,358,o),
(544,429,o),
(544,547,cs),
(544,649,o),
(457,750,o),
(331,750,cs),
(80,750,l),
(80,750,l),
(80,720,o),
(80,650,o),
(80,500,cs),
(80,250,ls),
(80,100,o),
(80,30,o),
(80,0,c),
(80,0,l)
);
},
{
closed = 1;
nodes = (
(170,670,l),
(323,670,ls),
(396,670,o),
(457,611,o),
(457,538,cs),
(457,462,o),
(396,402,o),
(323,402,cs),
(170,402,l)
);
}
);
width = 620;
},
{
anchors = (
{
name = bottom;
pos = (381,0);
},
{
name = center;
pos = (129,362);
},
{
name = top;
pos = (381,750);
}
);
layerId = "C8CD87A0-2407-4F05-BADA-4D8336545B60";
metricLeft = "=N";
metricRight = "=N/2";
shapes = (
{
closed = 1;
nodes = (
(290,0,l),
(290,0,l),
(290,30,o),
(290,100,o),
(290,250,cs),
(290,250,l),
(290,250,l),
(350,150,ls),
(394,76,o),
(422,30,o),
(440,0,c),
(440,0,l),
(736,0,l),
(736,0,l),
(716,30,o),
(685,75,o),
(634,150,cs),
(560,259,l),
(637,290,o),
(725,369,o),
(725,493,cs),
(725,625,o),
(623,750,o),
(461,750,cs),
(50,750,l),
(50,750,l),
(50,720,o),
(50,650,o),
(50,500,cs),
(50,250,ls),
(50,100,o),
(50,30,o),
(50,0,c),
(50,0,l)
);
},
{
closed = 1;
nodes = (
(290,557,l),
(402,557,ls),
(447,557,o),
(481,524,o),
(481,483,cs),
(481,442,o),
(447,408,o),
(402,408,cs),
(290,408,l)
);
}
);
width = 761;
},
{
anchors = (
{
name = bottom;
pos = (289,0);
},
{
name = center;
pos = (129,362);
},
{
name = top;
pos = (289,750);
}
);
layerId = "48DAC09D-95D4-4D70-8D14-87ABECD8575B";
metricLeft = "=N";
metricRight = "=N/2";
shapes = (
{
closed = 1;
nodes = (
(116,0,l),
(116,0,l),
(116,10,o),
(116,30,o),
(116,60,cs),
(116,343,l),
(309,343,l),
(479,53,ls),
(493,30,o),
(501,15,o),
(509,0,c),
(509,0,l),
(528,0,l),
(528,0,l),
(520,15,o),
(510,31,o),
(497,54,cs),
(326,347,l),
(404,363,o),
(487,437,o),
(487,547,cs),
(487,659,o),
(393,750,o),
(281,750,cs),
(100,750,l),
(100,750,l),
(100,720,o),
(100,700,o),
(100,650,cs),
(100,60,ls),
(100,30,o),
(100,10,o),
(100,0,c),
(100,0,l)
);
},
{
closed = 1;
nodes = (
(116,736,l),
(282,736,ls),
(385,736,o),
(471,651,o),
(471,547,cs),
(471,443,o),
(385,357,o),
(282,357,cs),
(116,357,l)
);
}
);
width = 578;
}
);
metricLeft = "=N";
unicode = 82;
},
{
glyphname = S;
lastChange = "2023-06-23 17:56:13 +0000";
layers = (
{
anchors = (
{
name = bottom;
pos = (329,0);
},
{
name = top;
pos = (319,750);
}
);
layerId = m01;
metricLeft = "=O+5";
metricRight = "=O+5";
shapes = (
{
closed = 1;
nodes = (
(461,-10,o),
(582,103,o),
(582,213,cs),
(582,353,o),
(463,398,o),
(343,438,cs),
(228,476,o),
(194,517,o),
(194,578,cs),
(194,627,o),
(245,677,o),
(328,677,cs),
(443,677,o),
(477,623,o),
(495,558,c),
(554,562,l),
(542,706,l),
(504,740,o),
(446,760,o),
(358,760,cs),
(236,760,o),
(91,654,o),
(91,530,cs),
(91,441,o),
(172,381,o),
(269,347,cs),
(371,311,o),
(478,262,o),
(478,181,cs),
(478,113,o),
(439,71,o),
(336,71,cs),
(222,71,o),
(150,112,o),
(120,238,c),
(55,237,l),
(84,31,l),
(133,19,o),
(200,-10,o),
(300,-10,cs)
);
}
);
width = 637;
},
{
anchors = (
{
name = bottom;
pos = (362,0);
},
{
name = top;
pos = (362,750);
}
);
background = {
shapes = (
{
closed = 1;
nodes = (
(494,478,l),
(494,478,l),
(468,530,o),
(423,577,o),
(348,577,cs),
(302,577,o),
(283,559,o),
(283,540,cs),
(283,519,o),
(306,504,o),
(407,471,cs),
(539,428,o),
(674,358,o),
(674,206,cs),
(674,70,o),
(539,-10,o),
(356,-10,cs),
(213,-10,o),
(98,34,o),
(26,150,c),
(213,288,l),
(213,288,l),
(253,216,o),
(304,185,o),
(367,185,cs),
(408,185,o),
(434,198,o),
(434,219,cs),
(434,241,o),
(406,258,o),
(328,284,cs),
(177,334,o),
(58,404,o),
(58,545,cs),
(58,678,o),
(197,760,o),
(356,760,cs),
(496,760,o),
(606,701,o),
(671,602,c)
);
}
);
};
layerId = "C36E42DF-D6E4-4FAF-B5BA-99700BA29EB5";
metricLeft = "=O+5";
metricRight = "=O+5";
shapes = (
{
closed = 1;
nodes = (
(587,-10,o),
(688,103,o),
(688,203,cs),
(688,373,o),
(506,437,o),
(389,483,cs),
(292,521,o),
(280,535,o),
(280,553,cs),
(280,565,o),
(293,580,o),
(340,580,cs),
(419,580,o),
(471,535,o),
(503,458,c),
(650,472,l),
(650,679,l),
(578,721,o),
(492,760,o),
(354,760,cs),
(202,760,o),
(57,674,o),
(57,540,cs),
(57,401,o),
(215,320,o),
(324,283,cs),
(417,251,o),
(439,235,o),
(439,218,cs),
(439,203,o),
(427,188,o),
(369,188,cs),
(298,188,o),
(228,241,o),
(186,328,c),
(35,318,l),
(64,54,l),
(149,22,o),
(246,-10,o),
(366,-10,cs)
);
}
);
width = 723;
},
{
anchors = (
{
name = bottom;
pos = (310,0);
},
{
name = top;
pos = (310,750);
}
);
layerId = "9E464B93-4987-4E25-B327-76BD95426741";
metricLeft = "=O+5";
metricRight = "=O+5";
shapes = (
{
closed = 1;
nodes = (
(475,-10,o),
(544,103,o),
(544,213,cs),
(544,293,o),
(463,364,o),
(338,399,cs),
(218,433,o),
(130,490,o),
(130,578,cs),
(130,649,o),
(199,745,o),
(306,745,cs),
(427,745,o),
(514,668,o),
(522,593,c),
(530,594,l),
(525,671,l),
(487,715,o),
(420,760,o),
(327,760,cs),
(204,760,o),
(112,665,o),
(112,561,cs),
(112,486,o),
(194,422,o),
(298,393,cs),
(445,352,o),
(530,285,o),
(530,191,cs),
(530,116,o),
(485,11,o),
(317,11,cs),
(208,11,o),
(100,62,o),
(83,158,c),
(75,157,l),
(91,71,l),
(143,28,o),
(204,-10,o),
(309,-10,cs)
);
}
);
width = 619;
},
{
anchors = (
{
name = bottom;
pos = (344,0);
},
{
name = top;
pos = (344,750);
}
);
layerId = "BABFB3A0-9CFA-45ED-BD0F-DD711F12EEFF";
metricLeft = "=O";
metricRight = "=O+10";
shapes = (
{
closed = 1;
nodes = (
(514,-10,o),
(609,82,o),
(609,196,cs),
(609,311,o),
(513,373,o),
(402,413,cs),
(289,454,o),
(193,490,o),
(193,568,cs),
(193,637,o),
(267,676,o),
(340,676,cs),
(441,676,o),
(502,604,o),
(533,554,c),
(533,554,l),
(606,607,l),
(549,693,o),
(472,760,o),
(348,760,cs),
(217,760,o),
(103,699,o),
(103,565,cs),
(103,445,o),
(192,401,o),
(323,352,cs),
(449,305,o),
(519,271,o),
(519,196,cs),
(519,114,o),
(434,74,o),
(349,74,cs),
(259,74,o),
(181,119,o),
(121,205,c),
(121,205,l),
(50,153,l),
(126,37,o),
(228,-10,o),
(351,-10,cs)
);
}
);
width = 669;
},
{
anchors = (
{
name = bottom;
pos = (369,0);
},
{
name = top;
pos = (369,750);
}
);
layerId = "C8CD87A0-2407-4F05-BADA-4D8336545B60";
metricLeft = "=O";
metricRight = "=O+10";
shapes = (
{
closed = 1;
nodes = (
(553,-10,o),
(688,70,o),
(688,206,cs),
(688,358,o),
(553,428,o),
(421,471,cs),
(320,504,o),
(297,519,o),
(297,540,cs),
(297,559,o),
(316,577,o),
(362,577,cs),
(437,577,o),
(482,530,o),
(508,478,c),
(508,478,l),
(685,602,l),
(620,701,o),
(510,760,o),
(370,760,cs),
(211,760,o),
(72,678,o),
(72,545,cs),
(72,404,o),
(191,334,o),
(342,284,cs),
(420,258,o),
(448,241,o),
(448,219,cs),
(448,198,o),
(422,185,o),
(381,185,cs),
(318,185,o),
(267,216,o),
(227,288,c),
(227,288,l),
(40,150,l),
(112,34,o),
(227,-10,o),
(370,-10,cs)
);
}
);
width = 738;
},
{
anchors = (
{
name = bottom;
pos = (317,0);
},
{
name = top;
pos = (317,750);
}
);
layerId = "48DAC09D-95D4-4D70-8D14-87ABECD8575B";
metricLeft = "=O";
metricRight = "=O+10";
shapes = (
{
closed = 1;
nodes = (
(462,-10,o),
(553,72,o),
(553,181,cs),
(553,297,o),
(453,352,o),
(336,393,cs),
(214,435,o),
(124,467,o),
(124,575,cs),
(124,687,o),
(230,745,o),
(328,745,cs),
(437,745,o),
(505,672,o),
(531,608,c),
(531,608,l),
(544,617,l),
(509,694,o),
(441,760,o),
(328,760,cs),
(215,760,o),
(108,694,o),
(108,575,cs),
(108,461,o),
(199,422,o),
(312,385,cs),
(439,343,o),
(537,289,o),
(537,181,cs),
(537,79,o),
(449,5,o),
(332,5,cs),
(206,5,o),
(131,74,o),
(83,160,c),
(83,160,l),
(70,151,l),
(126,51,o),
(206,-10,o),
(332,-10,cs)
);
}
);
width = 633;
}
);
metricLeft = "=O";
metricRight = "=O+10";
unicode = 83;
},
{
glyphname = Germandbls;
lastChange = "2024-10-01 00:52:17 +0000";
layers = (
{
layerId = "9E464B93-4987-4E25-B327-76BD95426741";
shapes = (
{
closed = 1;
nodes = (
(271,680,l),
(568,680,l),
(381,362,l),
(403,328,l),
(462,359,o),
(524,362,o),
(578,351,cs),
(653,335,o),
(710,285,o),
(710,197,cs),
(710,115,o),
(654,61,o),
(589,61,cs),
(512,61,o),
(452,97,o),
(439,155,c),
(391,154,l),
(415,23,l),
(439,12,o),
(478,-10,o),
(553,-10,cs),
(705,-10,o),
(817,113,o),
(817,231,cs),
(817,346,o),
(711,428,o),
(582,428,cs),
(543,428,o),
(516,418,o),
(496,409,c),
(703,687,l),
(703,738,l),
(686,750,l),
(76,750,l),
(70,712,l),
(125,693,o),
(164,669,o),
(164,638,cs),
(164,123,ls),
(164,78,o),
(124,56,o),
(74,38,c),
(74,0,l),
(353,0,l),
(359,38,l),
(305,55,o),
(269,70,o),
(269,103,cs)
);
}
);
width = 877;
},
{
layerId = "48DAC09D-95D4-4D70-8D14-87ABECD8575B";
shapes = (
{
closed = 1;
nodes = (
(191,670,l),
(543,670,l),
(323,399,l),
(323,328,l),
(377,346,o),
(425,354,o),
(481,354,cs),
(573,354,o),
(641,299,o),
(641,217,cs),
(641,140,o),
(578,74,o),
(481,74,cs),
(382,74,o),
(334,132,o),
(313,207,c),
(313,207,l),
(230,172,l),
(253,60,o),
(345,-10,o),
(481,-10,cs),
(633,-10,o),
(733,90,o),
(733,208,cs),
(733,334,o),
(631,427,o),
(522,427,cs),
(483,427,o),
(461,423,o),
(443,417,c),
(649,670,l),
(649,750,l),
(649,750,l),
(100,750,l),
(100,750,l),
(100,720,o),
(100,650,o),
(100,500,cs),
(100,250,ls),
(100,100,o),
(100,30,o),
(100,0,c),
(100,0,l),
(190,0,l),
(190,0,l),
(190,30,o),
(190,100,o),
(190,250,cs)
);
}
);
width = 793;
},
{
layerId = m01;
shapes = (
{
closed = 1;
nodes = (
(251,680,l),
(548,680,l),
(361,362,l),
(383,328,l),
(442,359,o),
(504,362,o),
(558,351,cs),
(633,335,o),
(690,285,o),
(690,197,cs),
(690,115,o),
(634,61,o),
(569,61,cs),
(492,61,o),
(432,97,o),
(419,155,c),
(371,154,l),
(395,23,l),
(419,12,o),
(458,-10,o),
(533,-10,cs),
(685,-10,o),
(797,113,o),
(797,231,cs),
(797,346,o),
(691,428,o),
(562,428,cs),
(523,428,o),
(496,418,o),
(476,409,c),
(683,687,l),
(683,738,l),
(666,750,l),
(56,750,l),
(50,712,l),
(105,693,o),
(144,669,o),
(144,638,cs),
(144,123,ls),
(144,78,o),
(104,56,o),
(54,38,c),
(54,0,l),
(333,0,l),
(339,38,l),
(285,55,o),
(249,70,o),
(249,103,cs)
);
}
);
width = 837;
},
{
layerId = "BABFB3A0-9CFA-45ED-BD0F-DD711F12EEFF";
shapes = (
{
closed = 1;
nodes = (
(171,670,l),
(523,670,l),
(303,399,l),
(303,328,l),
(357,346,o),
(405,354,o),
(461,354,cs),
(553,354,o),
(621,299,o),
(621,217,cs),
(621,140,o),
(558,74,o),
(461,74,cs),
(362,74,o),
(314,132,o),
(293,207,c),
(293,207,l),
(210,172,l),
(233,60,o),
(325,-10,o),
(461,-10,cs),
(613,-10,o),
(713,90,o),
(713,208,cs),
(713,334,o),
(611,427,o),
(502,427,cs),
(463,427,o),
(441,423,o),
(423,417,c),
(629,670,l),
(629,750,l),
(629,750,l),
(80,750,l),
(80,750,l),
(80,720,o),
(80,650,o),
(80,500,cs),
(80,250,ls),
(80,100,o),
(80,30,o),
(80,0,c),
(80,0,l),
(170,0,l),
(170,0,l),
(170,30,o),
(170,100,o),
(170,250,cs)
);
}
);
width = 753;
},
{
layerId = "C36E42DF-D6E4-4FAF-B5BA-99700BA29EB5";
shapes = (
{
closed = 1;
nodes = (
(330,576,l),
(599,576,l),
(472,362,l),
(520,289,l),
(548,315,o),
(590,343,o),
(647,329,cs),
(691,318,o),
(726,285,o),
(726,241,cs),
(726,202,o),
(698,167,o),
(648,167,cs),
(620,167,o),
(589,178,o),
(563,215,c),
(446,214,l),
(459,55,l),
(523,19,o),
(576,-10,o),
(654,-10,cs),
(804,-10,o),
(962,98,o),
(962,252,cs),
(962,365,o),
(880,428,o),
(791,428,cs),
(765,428,o),
(739,424,o),
(710,415,c),
(831,590,l),
(831,710,l),
(781,750,l),
(52,750,l),
(36,602,l),
(61,583,o),
(90,559,o),
(90,498,cs),
(90,262,ls),
(90,178,o),
(71,164,o),
(30,148,c),
(30,0,l),
(394,0,l),
(410,148,l),
(356,165,o),
(330,194,o),
(330,269,cs)
);
}
);
width = 982;
},
{
background = {
shapes = (
{
closed = 1;
nodes = (
(292,576,l),
(561,576,l),
(434,362,l),
(482,289,l),
(510,315,o),
(552,343,o),
(609,329,cs),
(653,318,o),
(688,285,o),
(688,241,cs),
(688,202,o),
(660,167,o),
(610,167,cs),
(582,167,o),
(551,178,o),
(525,215,c),
(408,214,l),
(421,55,l),
(485,19,o),
(538,-10,o),
(616,-10,cs),
(766,-10,o),
(924,98,o),
(924,252,cs),
(924,365,o),
(842,428,o),
(753,428,cs),
(727,428,o),
(701,424,o),
(672,415,c),
(793,590,l),
(793,710,l),
(743,750,l),
(14,750,l),
(-2,602,l),
(23,583,o),
(52,559,o),
(52,498,cs),
(52,262,ls),
(52,178,o),
(33,164,o),
(-8,148,c),
(-8,0,l),
(356,0,l),
(372,148,l),
(318,165,o),
(292,194,o),
(292,269,cs)
);
}
);
};
layerId = "C8CD87A0-2407-4F05-BADA-4D8336545B60";
shapes = (
{
closed = 1;
nodes = (
(290,540,l),
(542,540,l),
(454,400,l),
(454,289,l),
(496,303,o),
(544,314,o),
(593,314,cs),
(654,314,o),
(693,296,o),
(693,253,cs),
(693,212,o),
(656,176,o),
(598,176,cs),
(548,176,o),
(512,203,o),
(503,254,c),
(503,254,l),
(319,190,l),
(356,58,o),
(458,-10,o),
(598,-10,cs),
(793,-10,o),
(928,77,o),
(928,208,cs),
(928,314,o),
(860,427,o),
(743,427,cs),
(732,427,o),
(722,426,o),
(714,425,c),
(789,540,l),
(789,750,l),
(789,750,l),
(50,750,l),
(50,750,l),
(50,720,o),
(50,650,o),
(50,500,cs),
(50,250,ls),
(50,100,o),
(50,30,o),
(50,0,c),
(50,0,l),
(289,0,l),
(289,0,l),
(289,30,o),
(288,100,o),
(289,250,cs)
);
}
);
width = 948;
}
);
metricLeft = "=H";
metricRight = "=o";
unicode = 7838;
},
{
glyphname = T;
kernLeft = T;
kernRight = T;
lastChange = "2023-06-15 14:17:40 +0000";
layers = (
{
anchors = (
{
name = bottom;
pos = (350,0);
},
{
name = center;
pos = (350,375);
},
{
name = top;
pos = (350,750);
}
);
layerId = m01;
metricLeft = "=E-20";
metricRight = "=E-20";
shapes = (
{
closed = 1;
nodes = (
(485,0,l),
(491,38,l),
(437,58,o),
(401,68,o),
(401,103,cs),
(401,680,l),
(519,680,ls),
(573,680,o),
(588,598,o),
(588,565,c),
(641,553,l),
(663,739,l),
(648,750,l),
(45,750,l),
(30,739,l),
(52,553,l),
(105,565,l),
(105,598,o),
(120,680,o),
(174,680,cs),
(296,680,l),
(296,123,ls),
(296,78,o),
(256,62,o),
(206,38,c),
(206,0,l)
);
}
);
width = 683;
},
{
anchors = (
{
name = bottom;
pos = (412,0);
},
{
name = center;
pos = (412,375);
},
{
name = top;
pos = (412,750);
}
);
layerId = "C36E42DF-D6E4-4FAF-B5BA-99700BA29EB5";
metricLeft = "=E-20";
metricRight = "=E-20";
shapes = (
{
closed = 1;
nodes = (
(585,0,l),
(601,148,l),
(563,166,o),
(538,184,o),
(538,269,cs),
(538,546,l),
(565,546,ls),
(626,546,o),
(647,528,o),
(644,475,c),
(787,453,l),
(823,700,l),
(774,750,l),
(59,750,l),
(10,700,l),
(46,453,l),
(189,475,l),
(186,528,o),
(207,546,o),
(268,546,cs),
(298,546,l),
(298,262,ls),
(298,178,o),
(279,164,o),
(238,148,c),
(238,0,l)
);
}
);
width = 823;
},
{
anchors = (
{
name = bottom;
pos = (317,0);
},
{
name = center;
pos = (317,375);
},
{
name = top;
pos = (317,750);
}
);
layerId = "9E464B93-4987-4E25-B327-76BD95426741";
metricLeft = "=E-20";
metricRight = "=E-20";
shapes = (
{
closed = 1;
nodes = (
(428,0,l),
(432,8,l),
(382,8,o),
(332,8,o),
(332,38,cs),
(332,739,l),
(509,739,ls),
(574,739,o),
(582,739,o),
(569,629,c),
(580,625,l),
(594,739,l),
(579,750,l),
(65,750,l),
(50,739,l),
(64,625,l),
(75,629,l),
(62,739,o),
(70,739,o),
(135,739,cs),
(312,739,l),
(312,38,ls),
(312,8,o),
(262,8,o),
(212,8,c),
(212,0,l)
);
}
);
width = 634;
},
{
anchors = (
{
name = bottom;
pos = (315,0);
},
{
name = center;
pos = (315,375);
},
{
name = top;
pos = (315,750);
}
);
layerId = "BABFB3A0-9CFA-45ED-BD0F-DD711F12EEFF";
shapes = (
{
closed = 1;
nodes = (
(360,0,l),
(360,0,l),
(360,30,o),
(360,100,o),
(360,250,cs),
(360,670,l),
(360,670,ls),
(510,670,o),
(580,670,o),
(610,670,c),
(610,670,l),
(610,750,l),
(610,750,l),
(20,750,l),
(20,750,l),
(20,670,l),
(20,670,l),
(50,670,o),
(110,670,o),
(270,670,c),
(270,670,l),
(270,250,ls),
(270,100,o),
(270,30,o),
(270,0,c),
(270,0,l)
);
}
);
width = 630;
},
{
anchors = (
{
name = bottom;
pos = (355,0);
},
{
name = center;
pos = (355,375);
},
{
name = top;
pos = (355,750);
}
);
layerId = "C8CD87A0-2407-4F05-BADA-4D8336545B60";
shapes = (
{
closed = 1;
nodes = (
(475,0,l),
(475,0,l),
(475,30,o),
(475,100,o),
(475,250,cs),
(475,530,l),
(475,530,ls),
(625,530,o),
(670,530,o),
(700,530,c),
(700,530,l),
(700,750,l),
(700,750,l),
(10,750,l),
(10,750,l),
(10,530,l),
(10,530,l),
(40,530,o),
(85,530,o),
(235,530,cs),
(235,530,l),
(235,250,ls),
(235,100,o),
(235,30,o),
(235,0,c),
(235,0,l)
);
}
);
width = 710;
},
{
anchors = (
{
name = bottom;
pos = (313,0);
},
{
name = center;
pos = (313,375);
},
{
name = top;
pos = (313,750);
}
);
layerId = "48DAC09D-95D4-4D70-8D14-87ABECD8575B";
shapes = (
{
closed = 1;
nodes = (
(321,0,l),
(321,0,l),
(321,10,o),
(321,30,o),
(321,60,cs),
(321,736,l),
(486,736,ls),
(536,736,o),
(556,736,o),
(586,736,c),
(586,736,l),
(586,750,l),
(586,750,l),
(40,750,l),
(40,750,l),
(40,736,l),
(40,736,l),
(70,736,o),
(90,736,o),
(140,736,cs),
(305,736,l),
(305,60,ls),
(305,30,o),
(305,10,o),
(305,0,c),
(305,0,l)
);
}
);
width = 626;
}
);
unicode = 84;
},
{
glyphname = U;
kernLeft = U;
kernRight = U;
lastChange = "2023-06-24 02:15:18 +0000";
layers = (
{
anchors = (
{
name = bottom;
pos = (438,0);
},
{
name = center;
pos = (442,399);
},
{
name = ogonek;
pos = (537,10);
},
{
name = top;
pos = (438,750);
},
{
name = topright;
pos = (855,750);
}
);
layerId = m01;
metricLeft = "=H-5";
metricRight = "=H-5";
shapes = (
{
closed = 1;
nodes = (
(308,67,o),
(243,188,o),
(243,315,cs),
(243,675,l),
(256,695,o),
(288,704,o),
(337,712,c),
(337,750,l),
(51,750,l),
(45,712,l),
(96,707,o),
(124,693,o),
(134,675,c),
(134,264,ls),
(134,112,o),
(253,-10,o),
(416,-10,cs),
(598,-10,o),
(741,110,o),
(741,315,cs),
(741,673,l),
(753,695,o),
(787,709,o),
(830,712,c),
(830,750,l),
(562,750,l),
(556,712,l),
(600,705,o),
(637,691,o),
(650,673,c),
(650,295,ls),
(650,165,o),
(587,67,o),
(450,67,cs)
);
}
);
width = 875;
},
{
anchors = (
{
name = bottom;
pos = (411,0);
},
{
name = center;
pos = (442,399);
},
{
name = ogonek;
pos = (740,10);
},
{
name = top;
pos = (411,750);
},
{
name = topright;
pos = (802,750);
}
);
layerId = "C36E42DF-D6E4-4FAF-B5BA-99700BA29EB5";
metricLeft = "=H-5";
metricRight = "=H-5";
shapes = (
{
closed = 1;
nodes = (
(374,190,o),
(329,236,o),
(329,301,cs),
(329,502,l),
(338,563,o),
(352,581,o),
(389,602,c),
(389,750,l),
(41,750,l),
(25,602,l),
(50,583,o),
(79,559,o),
(79,498,c),
(79,264,ls),
(79,92,o),
(242,-10,o),
(395,-10,cs),
(557,-10,o),
(737,69,o),
(737,335,cs),
(737,502,l),
(746,563,o),
(760,581,o),
(797,602,c),
(797,750,l),
(494,750,l),
(478,602,l),
(503,583,o),
(532,559,o),
(532,498,c),
(532,281,ls),
(532,231,o),
(491,190,o),
(434,190,cs)
);
}
);
width = 822;
},
{
anchors = (
{
name = bottom;
pos = (439,0);
},
{
name = center;
pos = (442,399);
},
{
name = ogonek;
pos = (789,10);
},
{
name = top;
pos = (439,750);
},
{
name = topright;
pos = (857,750);
}
);
layerId = "9E464B93-4987-4E25-B327-76BD95426741";
metricLeft = "=H-5";
metricRight = "=H-5";
shapes = (
{
closed = 1;
nodes = (
(295,5,o),
(185,114,o),
(185,289,cs),
(185,712,l),
(185,742,o),
(232,742,o),
(285,742,c),
(285,750,l),
(69,750,l),
(65,742,l),
(115,742,o),
(165,742,o),
(165,712,c),
(165,264,ls),
(165,108,o),
(268,-10,o),
(433,-10,cs),
(589,-10,o),
(712,90,o),
(712,285,cs),
(712,712,l),
(712,742,o),
(759,742,o),
(812,742,c),
(812,750,l),
(600,750,l),
(596,742,l),
(646,742,o),
(696,742,o),
(696,712,c),
(696,265,ls),
(696,98,o),
(584,5,o),
(447,5,cs)
);
}
);
width = 877;
},
{
anchors = (
{
name = bottom;
pos = (374,0);
},
{
name = center;
pos = (374,399);
},
{
name = ogonek;
pos = (428,10);
},
{
name = top;
pos = (374,750);
},
{
name = topright;
pos = (727,750);
}
);
layerId = "BABFB3A0-9CFA-45ED-BD0F-DD711F12EEFF";
metricLeft = "=N";
metricRight = "=N";
shapes = (
{
closed = 1;
nodes = (
(261,74,o),
(170,169,o),
(170,281,cs),
(170,500,l),
(170,650,o),
(170,720,o),
(170,750,c),
(170,750,l),
(80,750,l),
(80,750,l),
(80,720,o),
(80,650,o),
(80,500,c),
(80,281,ls),
(80,120,o),
(212,-10,o),
(374,-10,cs),
(535,-10,o),
(667,120,o),
(667,281,cs),
(667,500,l),
(667,650,o),
(667,720,o),
(667,750,c),
(667,750,l),
(577,750,l),
(577,750,l),
(577,720,o),
(577,650,o),
(577,500,c),
(577,281,ls),
(577,169,o),
(486,74,o),
(374,74,cs)
);
}
);
width = 747;
},
{
anchors = (
{
name = bottom;
pos = (385,0);
},
{
name = center;
pos = (374,399);
},
{
name = ogonek;
pos = (428,10);
},
{
name = top;
pos = (385,750);
},
{
name = topright;
pos = (749,750);
}
);
layerId = "C8CD87A0-2407-4F05-BADA-4D8336545B60";
metricLeft = "=N";
metricRight = "=N";
shapes = (
{
closed = 1;
nodes = (
(320,210,o),
(290,260,o),
(290,312,cs),
(290,500,l),
(290,650,o),
(290,720,o),
(290,750,c),
(290,750,l),
(50,750,l),
(50,750,l),
(50,720,o),
(50,650,o),
(50,500,c),
(50,281,ls),
(50,120,o),
(187,-10,o),
(385,-10,cs),
(582,-10,o),
(719,120,o),
(719,281,cs),
(719,500,l),
(719,650,o),
(719,720,o),
(719,750,c),
(719,750,l),
(479,750,l),
(479,750,l),
(479,720,o),
(479,650,o),
(479,500,c),
(479,312,ls),
(479,260,o),
(444,210,o),
(382,210,cs)
);
}
);
width = 769;
},
{
anchors = (
{
name = bottom;
pos = (370,0);
},
{
name = center;
pos = (374,399);
},
{
name = ogonek;
pos = (428,10);
},
{
name = top;
pos = (370,750);
},
{
name = topright;
pos = (719,750);
}
);
background = {
shapes = (
{
closed = 1;
nodes = (
(261,79,o),
(170,171,o),
(170,283,cs),
(170,500,l),
(170,650,o),
(170,720,o),
(170,750,c),
(170,750,l),
(80,750,l),
(80,750,l),
(80,720,o),
(80,650,o),
(80,500,c),
(80,281,ls),
(80,120,o),
(212,-10,o),
(374,-10,cs),
(535,-10,o),
(667,120,o),
(667,281,cs),
(667,500,l),
(667,650,o),
(667,720,o),
(667,750,c),
(667,750,l),
(577,750,l),
(577,750,l),
(577,720,o),
(577,650,o),
(577,500,c),
(577,283,ls),
(577,171,o),
(486,79,o),
(374,79,cs)
);
}
);
};
layerId = "48DAC09D-95D4-4D70-8D14-87ABECD8575B";
metricLeft = "=N";
metricRight = "=N";
shapes = (
{
closed = 1;
nodes = (
(231,6,o),
(116,122,o),
(116,264,cs),
(116,690,l),
(116,720,o),
(116,740,o),
(116,750,c),
(116,750,l),
(100,750,l),
(100,750,l),
(100,740,o),
(100,720,o),
(100,690,c),
(100,264,ls),
(100,121,o),
(213,-10,o),
(370,-10,cs),
(526,-10,o),
(639,121,o),
(639,264,cs),
(639,690,l),
(639,720,o),
(639,740,o),
(639,750,c),
(639,750,l),
(623,750,l),
(623,750,l),
(623,740,o),
(623,720,o),
(623,690,c),
(623,264,ls),
(623,122,o),
(508,6,o),
(370,6,cs)
);
}
);
width = 739;
}
);
metricLeft = "=N";
metricRight = "=N";
unicode = 85;
},
{
glyphname = V;
kernLeft = V;
kernRight = V;
lastChange = "2023-06-12 21:17:10 +0000";
layers = (
{
anchors = (
{
name = bottom;
pos = (411,0);
},
{
name = top;
pos = (411,750);
}
);
layerId = m01;
shapes = (
{
closed = 1;
nodes = (
(209,675,l),
(222,695,o),
(245,701,o),
(301,712,c),
(301,750,l),
(11,750,l),
(5,712,l),
(56,707,o),
(84,693,o),
(94,675,c),
(359,0,l),
(457,0,l),
(728,673,l),
(740,695,o),
(774,709,o),
(817,712,c),
(817,750,l),
(549,750,l),
(543,712,l),
(592,705,o),
(624,691,o),
(637,673,c),
(423,125,l)
);
}
);
width = 822;
},
{
anchors = (
{
name = bottom;
pos = (416,0);
},
{
name = top;
pos = (416,750);
}
);
background = {
shapes = (
{
closed = 1;
nodes = (
(144,552,ls),
(118,596,o),
(95,612,o),
(63,623,c),
(77,750,l),
(453,750,l),
(453,623,l),
(428,613,o),
(414,601,o),
(398,579,c),
(486,424,l),
(573,572,l),
(556,602,o),
(539,614,o),
(504,623,c),
(519,750,l),
(838,750,l),
(838,623,l),
(804,614,o),
(780,605,o),
(751,556,cs),
(570,250,l),
(321,250,l)
);
}
);
};
layerId = "C36E42DF-D6E4-4FAF-B5BA-99700BA29EB5";
shapes = (
{
closed = 1;
nodes = (
(318,559,l),
(331,579,o),
(346,596,o),
(383,603,c),
(381,750,l),
(-1,750,l),
(-15,602,l),
(36,597,o),
(59,550,o),
(66,531,cs),
(267,0,l),
(545,0,l),
(759,535,ls),
(772,567,o),
(803,599,o),
(846,602,c),
(846,750,l),
(489,750,l),
(474,603,l),
(513,597,o),
(540,570,o),
(553,552,c),
(432,242,l)
);
}
);
width = 831;
},
{
anchors = (
{
name = bottom;
pos = (420,0);
},
{
name = top;
pos = (420,750);
}
);
layerId = "9E464B93-4987-4E25-B327-76BD95426741";
shapes = (
{
closed = 1;
nodes = (
(145,716,ls),
(135,742,o),
(196,742,o),
(246,742,c),
(246,750,l),
(29,750,l),
(25,742,l),
(75,742,o),
(113,742,o),
(123,716,cs),
(409,0,l),
(431,0,l),
(713,716,ls),
(723,742,o),
(765,742,o),
(815,742,c),
(815,750,l),
(600,750,l),
(596,742,l),
(646,742,o),
(707,742,o),
(697,716,cs),
(423,20,l)
);
}
);
width = 840;
},
{
anchors = (
{
name = bottom;
pos = (344,0);
},
{
name = top;
pos = (344,750);
}
);
layerId = "BABFB3A0-9CFA-45ED-BD0F-DD711F12EEFF";
metricLeft = "=A";
metricRight = "=A";
shapes = (
{
closed = 1;
nodes = (
(160,600,ls),
(131,675,o),
(115,718,o),
(103,750,c),
(103,750,l),
(5,750,l),
(5,750,l),
(17,718,o),
(35,675,o),
(64,600,cs),
(299,0,l),
(389,0,l),
(624,600,ls),
(653,675,o),
(671,718,o),
(683,750,c),
(683,750,l),
(585,750,l),
(585,750,l),
(573,718,o),
(557,675,o),
(528,600,cs),
(344,120,l)
);
}
);
width = 688;
},
{
anchors = (
{
name = bottom;
pos = (414,0);
},
{
name = top;
pos = (414,750);
}
);
layerId = "C8CD87A0-2407-4F05-BADA-4D8336545B60";
metricLeft = "=A";
metricRight = "=A";
shapes = (
{
closed = 1;
nodes = (
(303,600,ls),
(278,675,o),
(264,720,o),
(254,750,c),
(254,750,l),
(-5,750,l),
(-5,750,l),
(5,720,o),
(21,675,o),
(47,600,cs),
(256,0,l),
(572,0,l),
(781,600,ls),
(807,675,o),
(823,720,o),
(833,750,c),
(833,750,l),
(574,750,l),
(574,750,l),
(564,720,o),
(550,675,o),
(525,600,cs),
(414,262,l)
);
}
);
width = 828;
},
{
anchors = (
{
name = bottom;
pos = (330,0);
},
{
name = top;
pos = (330,750);
}
);
layerId = "48DAC09D-95D4-4D70-8D14-87ABECD8575B";
metricLeft = "=A";
metricRight = "=A";
shapes = (
{
closed = 1;
nodes = (
(66,690,ls),
(54,720,o),
(46,740,o),
(42,750,c),
(42,750,l),
(25,750,l),
(25,750,l),
(29,740,o),
(37,720,o),
(49,690,cs),
(321,0,l),
(339,0,l),
(611,690,ls),
(623,720,o),
(631,740,o),
(635,750,c),
(635,750,l),
(618,750,l),
(618,750,l),
(614,740,o),
(606,720,o),
(594,690,cs),
(330,20,l)
);
}
);
width = 660;
}
);
unicode = 86;
},
{
glyphname = W;
kernLeft = W;
kernRight = W;
lastChange = "2023-06-23 17:57:23 +0000";
layers = (
{
anchors = (
{
name = bottom;
pos = (597,0);
},
{
name = top;
pos = (597,750);
}
);
layerId = m01;
shapes = (
{
closed = 1;
nodes = (
(212,675,l),
(224,695,o),
(255,701,o),
(289,712,c),
(289,750,l),
(11,750,l),
(5,712,l),
(59,707,o),
(84,693,o),
(94,675,c),
(323,0,l),
(411,0,l),
(591,507,l),
(764,0,l),
(852,0,l),
(1100,673,l),
(1111,695,o),
(1142,709,o),
(1189,712,c),
(1189,750,l),
(916,750,l),
(911,712,l),
(954,705,o),
(993,691,o),
(1005,673,c),
(824,156,l),
(628,737,l),
(571,737,l),
(383,156,l)
);
}
);
width = 1194;
},
{
anchors = (
{
name = bottom;
pos = (620,0);
},
{
name = top;
pos = (620,750);
}
);
layerId = "C36E42DF-D6E4-4FAF-B5BA-99700BA29EB5";
shapes = (
{
closed = 1;
nodes = (
(313,559,l),
(326,579,o),
(341,596,o),
(378,603,c),
(376,750,l),
(-1,750,l),
(-15,602,l),
(36,597,o),
(59,550,o),
(66,531,cs),
(258,0,l),
(517,0,l),
(617,347,l),
(729,0,l),
(984,0,l),
(1168,535,ls),
(1179,568,o),
(1212,599,o),
(1255,602,c),
(1255,750,l),
(897,750,l),
(882,603,l),
(921,597,o),
(949,570,o),
(961,552,c),
(880,312,l),
(739,737,l),
(536,737,l),
(397,312,l)
);
}
);
width = 1240;
},
{
anchors = (
{
name = bottom;
pos = (584,0);
},
{
name = top;
pos = (584,750);
}
);
layerId = "9E464B93-4987-4E25-B327-76BD95426741";
shapes = (
{
closed = 1;
nodes = (
(144,716,ls),
(136,742,o),
(195,742,o),
(245,742,c),
(245,750,l),
(29,750,l),
(25,742,l),
(75,742,o),
(115,742,o),
(123,716,cs),
(342,0,l),
(366,0,l),
(585,717,l),
(799,0,l),
(823,0,l),
(1040,716,ls),
(1048,742,o),
(1092,742,o),
(1142,742,c),
(1142,750,l),
(927,750,l),
(923,742,l),
(973,742,o),
(1032,742,o),
(1024,716,cs),
(814,21,l),
(600,737,l),
(575,737,l),
(357,21,l)
);
}
);
width = 1167;
},
{
anchors = (
{
name = bottom;
pos = (505,0);
},
{
name = top;
pos = (505,750);
}
);
layerId = "BABFB3A0-9CFA-45ED-BD0F-DD711F12EEFF";
metricLeft = "=A";
metricRight = "=A";
shapes = (
{
closed = 1;
nodes = (
(143,600,ls),
(121,675,o),
(109,720,o),
(100,750,c),
(100,750,l),
(5,750,l),
(5,750,l),
(14,720,o),
(27,675,o),
(49,600,cs),
(225,0,l),
(320,0,l),
(505,604,l),
(690,0,l),
(785,0,l),
(961,600,ls),
(983,675,o),
(996,720,o),
(1005,750,c),
(1005,750,l),
(910,750,l),
(910,750,l),
(901,720,o),
(889,675,o),
(867,600,cs),
(734,141,l),
(548,750,l),
(462,750,l),
(276,141,l)
);
}
);
width = 1010;
},
{
anchors = (
{
name = bottom;
pos = (588,0);
},
{
name = top;
pos = (588,750);
}
);
layerId = "C8CD87A0-2407-4F05-BADA-4D8336545B60";
metricLeft = "=A";
metricRight = "=A";
shapes = (
{
closed = 1;
nodes = (
(288,600,ls),
(267,675,o),
(255,720,o),
(246,750,c),
(246,750,l),
(-5,750,l),
(-5,750,l),
(4,720,o),
(17,675,o),
(39,600,cs),
(215,0,l),
(463,0,l),
(588,394,l),
(713,0,l),
(961,0,l),
(1137,600,ls),
(1159,674,o),
(1172,720,o),
(1181,750,c),
(1181,750,l),
(930,750,l),
(930,750,l),
(921,720,o),
(909,675,o),
(888,600,cs),
(817,351,l),
(691,750,l),
(485,750,l),
(359,351,l)
);
}
);
width = 1176;
},
{
anchors = (
{
name = bottom;
pos = (482,0);
},
{
name = top;
pos = (482,750);
}
);
layerId = "48DAC09D-95D4-4D70-8D14-87ABECD8575B";
metricLeft = "=A";
metricRight = "=A";
shapes = (
{
closed = 1;
nodes = (
(58,697,ls),
(51,720,o),
(47,733,o),
(42,750,c),
(42,750,l),
(25,750,l),
(25,750,l),
(30,733,o),
(34,720,o),
(41,697,cs),
(245,0,l),
(265,0,l),
(482,728,l),
(699,0,l),
(719,0,l),
(923,697,ls),
(930,720,o),
(934,733,o),
(939,750,c),
(939,750,l),
(922,750,l),
(922,750,l),
(917,733,o),
(913,720,o),
(906,697,cs),
(709,24,l),
(492,750,l),
(472,750,l),
(255,24,l)
);
}
);
width = 964;
}
);
unicode = 87;
},
{
glyphname = X;
kernLeft = X;
lastChange = "2023-06-12 21:17:10 +0000";
layers = (
{
anchors = (
{
name = bottom;
pos = (434,0);
},
{
name = top;
pos = (434,750);
}
);
layerId = m01;
metricLeft = "=H-5";
metricRight = "=H-5";
shapes = (
{
closed = 1;
nodes = (
(69,750,l),
(63,712,l),
(93,704,o),
(154,673,o),
(170,652,cs),
(376,383,l),
(153,104,ls),
(118,61,o),
(83,49,o),
(45,38,c),
(45,0,l),
(341,0,l),
(349,38,l),
(316,43,o),
(283,65,o),
(268,100,c),
(424,320,l),
(580,100,l),
(563,68,o),
(550,47,o),
(499,38,c),
(499,0,l),
(814,0,l),
(823,38,l),
(803,46,o),
(727,75,o),
(709,100,cs),
(496,396,l),
(719,672,ls),
(735,692,o),
(767,701,o),
(795,709,c),
(793,750,l),
(521,750,l),
(514,714,l),
(539,709,o),
(570,688,o),
(586,652,c),
(446,462,l),
(304,652,l),
(321,685,o),
(347,696,o),
(381,714,c),
(379,750,l)
);
}
);
width = 868;
},
{
anchors = (
{
name = bottom;
pos = (482,0);
},
{
name = top;
pos = (482,750);
}
);
layerId = "C36E42DF-D6E4-4FAF-B5BA-99700BA29EB5";
metricLeft = "=H-5";
metricRight = "=H-5";
shapes = (
{
closed = 1;
nodes = (
(45,750,l),
(31,623,l),
(69,618,o),
(96,587,o),
(125,552,cs),
(281,363,l),
(132,194,ls),
(115,175,o),
(68,130,o),
(25,127,c),
(25,0,l),
(418,0,l),
(433,127,l),
(398,136,o),
(381,148,o),
(364,178,c),
(451,276,l),
(539,171,l),
(523,149,o),
(509,137,o),
(484,127,c),
(484,0,l),
(925,0,l),
(939,127,l),
(909,133,o),
(873,161,o),
(838,198,cs),
(649,396,l),
(817,556,ls),
(841,578,o),
(881,619,o),
(914,623,c),
(914,750,l),
(527,750,l),
(512,623,l),
(547,614,o),
(564,602,o),
(581,572,c),
(494,474,l),
(406,579,l),
(422,601,o),
(436,613,o),
(461,623,c),
(461,750,l)
);
}
);
width = 964;
},
{
anchors = (
{
name = bottom;
pos = (441,0);
},
{
name = top;
pos = (441,750);
}
);
layerId = "9E464B93-4987-4E25-B327-76BD95426741";
metricLeft = "=H-5";
metricRight = "=H-5";
shapes = (
{
closed = 1;
nodes = (
(89,750,l),
(85,742,l),
(135,742,o),
(163,742,o),
(183,716,cs),
(435,386,l),
(164,34,ls),
(144,8,o),
(115,8,o),
(65,8,c),
(65,0,l),
(281,0,l),
(285,8,l),
(235,8,o),
(164,9,o),
(184,34,cs),
(444,372,l),
(694,34,ls),
(713,8,o),
(643,8,o),
(593,8,c),
(593,0,l),
(813,0,l),
(817,8,l),
(772,8,o),
(738,8,o),
(719,34,cs),
(456,389,l),
(705,716,ls),
(725,742,o),
(754,742,o),
(804,742,c),
(804,750,l),
(588,750,l),
(584,742,l),
(634,742,o),
(705,742,o),
(685,716,cs),
(447,403,l),
(208,716,ls),
(187,743,o),
(259,742,o),
(309,742,c),
(309,750,l)
);
}
);
width = 882;
},
{
anchors = (
{
name = bottom;
pos = (333,0);
},
{
name = top;
pos = (333,750);
}
);
layerId = "BABFB3A0-9CFA-45ED-BD0F-DD711F12EEFF";
metricLeft = "=A";
metricRight = "=A";
shapes = (
{
closed = 1;
nodes = (
(42,750,l),
(42,750,l),
(62,720,o),
(92,675,o),
(141,600,cs),
(280,390,l),
(111,150,ls),
(58,75,o),
(26,30,o),
(5,0,c),
(5,0,l),
(115,0,l),
(115,0,l),
(136,30,o),
(167,75,o),
(218,150,cs),
(333,318,l),
(448,150,ls),
(499,75,o),
(530,30,o),
(551,0,c),
(551,0,l),
(661,0,l),
(661,0,l),
(640,30,o),
(608,75,o),
(555,150,cs),
(386,390,l),
(525,600,ls),
(574,675,o),
(604,720,o),
(624,750,c),
(624,750,l),
(517,750,l),
(517,750,l),
(498,720,o),
(468,673,o),
(421,600,cs),
(333,462,l),
(245,600,ls),
(198,673,o),
(168,720,o),
(149,750,c),
(149,750,l)
);
}
);
width = 666;
},
{
anchors = (
{
name = bottom;
pos = (393,0);
},
{
name = top;
pos = (393,750);
}
);
layerId = "C8CD87A0-2407-4F05-BADA-4D8336545B60";
metricLeft = "=A";
metricRight = "=A";
shapes = (
{
closed = 1;
nodes = (
(12,750,l),
(12,750,l),
(31,720,o),
(60,674,o),
(108,600,cs),
(249,382,l),
(95,150,ls),
(44,73,o),
(15,30,o),
(-5,0,c),
(-5,0,l),
(285,0,l),
(285,0,l),
(303,30,o),
(330,74,o),
(376,150,cs),
(393,178,l),
(410,150,ls),
(456,74,o),
(483,30,o),
(501,0,c),
(501,0,l),
(791,0,l),
(791,0,l),
(771,30,o),
(742,73,o),
(691,150,cs),
(537,382,l),
(678,600,ls),
(726,675,o),
(755,720,o),
(774,750,c),
(774,750,l),
(492,750,l),
(492,750,l),
(474,720,o),
(450,675,o),
(404,600,cs),
(393,582,l),
(382,600,ls),
(336,675,o),
(311,720,o),
(294,750,c),
(294,750,l)
);
}
);
width = 786;
},
{
anchors = (
{
name = bottom;
pos = (324,0);
},
{
name = top;
pos = (324,750);
}
);
layerId = "48DAC09D-95D4-4D70-8D14-87ABECD8575B";
metricLeft = "=A";
metricRight = "=A";
shapes = (
{
closed = 1;
nodes = (
(67,750,l),
(67,750,l),
(77,735,o),
(88,719,o),
(103,698,cs),
(316,390,l),
(62,50,ls),
(47,30,o),
(36,15,o),
(25,0,c),
(25,0,l),
(45,0,l),
(45,0,l),
(56,15,o),
(67,30,o),
(82,50,cs),
(324,373,l),
(566,50,ls),
(581,30,o),
(592,15,o),
(603,0,c),
(603,0,l),
(623,0,l),
(623,0,l),
(612,15,o),
(601,30,o),
(586,50,cs),
(332,390,l),
(545,698,ls),
(560,719,o),
(571,735,o),
(581,750,c),
(581,750,l),
(562,750,l),
(562,750,l),
(552,735,o),
(541,719,o),
(526,698,cs),
(324,407,l),
(122,698,ls),
(107,719,o),
(96,735,o),
(86,750,c),
(86,750,l)
);
}
);
width = 648;
}
);
metricLeft = "=H-5";
metricRight = "=A";
unicode = 88;
},
{
glyphname = Y;
kernLeft = Y;
kernRight = Y;
lastChange = "2023-06-12 21:17:10 +0000";
layers = (
{
anchors = (
{
name = bottom;
pos = (384,0);
},
{
name = top;
pos = (384,750);
},
{
name = topleft;
pos = (20,750);
}
);
layerId = m01;
metricLeft = "=V";
metricRight = "=V";
shapes = (
{
closed = 1;
nodes = (
(217,675,l),
(240,695,o),
(268,706,o),
(309,712,c),
(309,750,l),
(11,750,l),
(5,712,l),
(56,707,o),
(84,693,o),
(94,675,c),
(340,299,l),
(340,123,ls),
(340,78,o),
(300,62,o),
(250,38,c),
(250,0,l),
(529,0,l),
(535,38,l),
(481,58,o),
(445,68,o),
(445,103,cs),
(445,298,l),
(674,673,ls),
(687,695,o),
(720,709,o),
(763,712,c),
(763,750,l),
(489,750,l),
(483,712,l),
(532,705,o),
(564,691,o),
(577,673,c),
(404,368,l)
);
}
);
width = 768;
},
{
anchors = (
{
name = bottom;
pos = (382,0);
},
{
name = top;
pos = (382,750);
},
{
name = topleft;
pos = (20,750);
}
);
background = {
shapes = (
{
closed = 1;
nodes = (
(71,552,ls),
(45,596,o),
(22,612,o),
(-10,623,c),
(4,750,l),
(380,750,l),
(380,623,l),
(355,613,o),
(341,601,o),
(325,579,c),
(413,424,l),
(500,572,l),
(483,602,o),
(466,614,o),
(431,623,c),
(446,750,l),
(765,750,l),
(765,623,l),
(731,614,o),
(707,605,o),
(678,556,cs),
(497,250,l),
(248,250,l)
);
}
);
};
layerId = "C36E42DF-D6E4-4FAF-B5BA-99700BA29EB5";
metricLeft = "=V";
metricRight = "=V";
shapes = (
{
closed = 1;
nodes = (
(325,579,l),
(341,601,o),
(355,613,o),
(380,623,c),
(380,750,l),
(-1,750,l),
(-15,623,l),
(36,618,o),
(55,570,o),
(66,552,cs),
(255,232,l),
(255,212,ls),
(255,178,o),
(236,164,o),
(195,148,c),
(195,0,l),
(545,0,l),
(561,148,l),
(519,166,o),
(498,182,o),
(498,212,cs),
(498,232,l),
(692,556,ls),
(705,577,o),
(736,620,o),
(779,623,c),
(779,750,l),
(446,750,l),
(431,623,l),
(466,614,o),
(483,602,o),
(500,572,c),
(413,424,l)
);
}
);
width = 764;
},
{
anchors = (
{
name = bottom;
pos = (386,0);
},
{
name = top;
pos = (386,750);
},
{
name = topleft;
pos = (20,750);
}
);
layerId = "9E464B93-4987-4E25-B327-76BD95426741";
metricLeft = "=V";
metricRight = "=V";
shapes = (
{
closed = 1;
nodes = (
(144,716,ls),
(128,742,o),
(195,742,o),
(245,742,c),
(245,750,l),
(29,750,l),
(25,742,l),
(75,742,o),
(107,741,o),
(123,716,cs),
(379,302,l),
(379,38,ls),
(379,8,o),
(329,8,o),
(279,8,c),
(279,0,l),
(495,0,l),
(499,8,l),
(449,8,o),
(399,8,o),
(399,38,cs),
(399,301,l),
(648,716,ls),
(663,742,o),
(697,742,o),
(747,742,c),
(747,750,l),
(533,750,l),
(529,742,l),
(579,742,o),
(645,742,o),
(630,716,cs),
(391,317,l)
);
}
);
width = 772;
},
{
anchors = (
{
name = bottom;
pos = (311,0);
},
{
name = top;
pos = (311,750);
},
{
name = topleft;
pos = (20,750);
}
);
layerId = "BABFB3A0-9CFA-45ED-BD0F-DD711F12EEFF";
metricLeft = "=A";
metricRight = "=A";
shapes = (
{
closed = 1;
nodes = (
(189,600,ls),
(148,674,o),
(122,720,o),
(105,750,c),
(105,750,l),
(5,750,l),
(5,750,l),
(22,720,o),
(47,674,o),
(88,600,cs),
(266,279,l),
(266,250,ls),
(266,100,o),
(266,30,o),
(266,0,c),
(266,0,l),
(356,0,l),
(356,0,l),
(356,30,o),
(356,100,o),
(356,250,cs),
(356,278,l),
(534,600,ls),
(575,675,o),
(600,720,o),
(617,750,c),
(617,750,l),
(517,750,l),
(517,750,l),
(500,720,o),
(476,676,o),
(434,600,cs),
(311,379,l)
);
}
);
width = 622;
},
{
anchors = (
{
name = bottom;
pos = (383,0);
},
{
name = top;
pos = (383,750);
},
{
name = topleft;
pos = (20,750);
}
);
layerId = "C8CD87A0-2407-4F05-BADA-4D8336545B60";
metricLeft = "=A";
metricRight = "=A";
shapes = (
{
closed = 1;
nodes = (
(345,600,ls),
(305,675,o),
(282,720,o),
(266,750,c),
(266,750,l),
(-5,750,l),
(-5,750,l),
(11,720,o),
(36,673,o),
(75,600,cs),
(263,250,l),
(263,250,ls),
(263,100,o),
(263,30,o),
(263,0,c),
(263,0,l),
(503,0,l),
(503,0,l),
(503,30,o),
(503,99,o),
(503,250,cs),
(503,250,l),
(691,600,ls),
(730,673,o),
(755,720,o),
(771,750,c),
(771,750,l),
(500,750,l),
(500,750,l),
(484,720,o),
(461,675,o),
(421,600,cs),
(383,529,l)
);
}
);
width = 766;
},
{
anchors = (
{
name = bottom;
pos = (292,0);
},
{
name = top;
pos = (292,750);
},
{
name = topleft;
pos = (20,750);
}
);
layerId = "48DAC09D-95D4-4D70-8D14-87ABECD8575B";
metricLeft = "=A";
metricRight = "=A";
shapes = (
{
closed = 1;
nodes = (
(69,705,ls),
(58,725,o),
(52,735,o),
(43,750,c),
(43,750,l),
(25,750,l),
(25,750,l),
(34,735,o),
(40,724,o),
(51,704,cs),
(284,299,l),
(284,60,ls),
(284,30,o),
(284,10,o),
(284,0,c),
(284,0,l),
(300,0,l),
(300,0,l),
(300,10,o),
(300,30,o),
(300,60,cs),
(300,299,l),
(533,704,ls),
(544,724,o),
(550,735,o),
(559,750,c),
(559,750,l),
(541,750,l),
(541,750,l),
(532,735,o),
(526,725,o),
(515,705,cs),
(292,317,l)
);
}
);
width = 584;
}
);
metricLeft = "=A";
metricRight = "=A";
unicode = 89;
},
{
glyphname = Z;
lastChange = "2023-06-23 17:57:48 +0000";
layers = (
{
anchors = (
{
name = bottom;
pos = (332,0);
},
{
name = center;
pos = (332,375);
},
{
name = top;
pos = (332,750);
}
);
layerId = m01;
metricLeft = "=O-10";
metricRight = "=O-10";
shapes = (
{
closed = 1;
nodes = (
(604,0,l),
(623,171,l),
(568,179,l),
(554,89,o),
(503,70,o),
(410,70,cs),
(172,70,l),
(614,719,l),
(600,750,l),
(69,750,l),
(47,586,l),
(96,576,l),
(115,641,o),
(166,680,o),
(233,680,c),
(467,680,l),
(40,55,l),
(46,0,l)
);
}
);
width = 663;
},
{
anchors = (
{
name = bottom;
pos = (381,0);
},
{
name = center;
pos = (381,375);
},
{
name = top;
pos = (381,750);
}
);
layerId = "C36E42DF-D6E4-4FAF-B5BA-99700BA29EB5";
metricLeft = "=O-10";
metricRight = "=O-10";
shapes = (
{
closed = 1;
nodes = (
(706,0,l),
(741,224,l),
(621,246,l),
(599,203,o),
(577,184,o),
(508,184,cs),
(358,184,l),
(735,682,l),
(701,750,l),
(65,750,l),
(20,526,l),
(140,504,l),
(162,547,o),
(204,566,o),
(273,566,c),
(357,566,l),
(30,146,l),
(36,0,l)
);
}
);
width = 761;
},
{
anchors = (
{
name = bottom;
pos = (336,0);
},
{
name = center;
pos = (336,375);
},
{
name = top;
pos = (336,750);
}
);
layerId = "9E464B93-4987-4E25-B327-76BD95426741";
metricLeft = "=O-10";
metricRight = "=O-10";
shapes = (
{
closed = 1;
nodes = (
(574,0,l),
(611,116,l),
(601,119,l),
(562,11,o),
(562,11,o),
(492,11,cs),
(86,11,l),
(601,743,l),
(598,750,l),
(105,750,l),
(68,634,l),
(78,631,l),
(117,739,o),
(117,739,o),
(187,739,c),
(574,739,l),
(60,9,l),
(61,0,l)
);
}
);
width = 671;
},
{
anchors = (
{
name = bottom;
pos = (314,0);
},
{
name = center;
pos = (314,375);
},
{
name = top;
pos = (314,750);
}
);
layerId = "BABFB3A0-9CFA-45ED-BD0F-DD711F12EEFF";
metricLeft = "=N/2";
metricRight = "=N/2";
shapes = (
{
closed = 1;
nodes = (
(581,0,l),
(581,80,l),
(581,80,l),
(551,80,o),
(481,80,o),
(331,80,cs),
(146,80,l),
(577,670,l),
(577,750,l),
(63,750,l),
(63,670,l),
(63,670,l),
(93,670,o),
(163,670,o),
(313,670,c),
(468,670,l),
(40,80,l),
(40,0,l)
);
}
);
width = 621;
},
{
anchors = (
{
name = bottom;
pos = (354,0);
},
{
name = center;
pos = (354,375);
},
{
name = top;
pos = (354,750);
}
);
layerId = "C8CD87A0-2407-4F05-BADA-4D8336545B60";
metricLeft = "=N/2";
metricRight = "=N/2";
shapes = (
{
closed = 1;
nodes = (
(683,0,l),
(683,210,l),
(683,210,l),
(653,210,o),
(582,210,o),
(489,210,cs),
(356,210,l),
(683,550,l),
(683,750,l),
(25,750,l),
(25,540,l),
(25,540,l),
(55,540,o),
(125,540,o),
(192,540,c),
(352,540,l),
(25,200,l),
(25,0,l)
);
}
);
width = 708;
},
{
anchors = (
{
name = bottom;
pos = (321,0);
},
{
name = center;
pos = (321,375);
},
{
name = top;
pos = (321,750);
}
);
layerId = "48DAC09D-95D4-4D70-8D14-87ABECD8575B";
metricLeft = "=N/2";
metricRight = "=N/2";
shapes = (
{
closed = 1;
nodes = (
(591,0,l),
(591,14,l),
(591,14,l),
(561,14,o),
(541,14,o),
(491,14,cs),
(70,14,l),
(587,736,l),
(587,750,l),
(73,750,l),
(73,736,l),
(73,736,l),
(103,736,o),
(123,736,o),
(173,736,c),
(567,736,l),
(50,12,l),
(50,0,l)
);
}
);
width = 641;
}
);
metricLeft = "=N/2";
metricRight = "=N/2";
unicode = 90;
},
{
glyphname = a;
kernLeft = a;
lastChange = "2023-09-16 04:05:42 +0000";
layers = (
{
anchors = (
{
name = bottom;
pos = (265,0);
},
{
name = ogonek;
pos = (476,10);
},
{
name = top;
pos = (263,471);
}
);
background = {
shapes = (
{
closed = 1;
nodes = (
(235,-10,o),
(323,38,o),
(341,93,c),
(346,51,o),
(354,19,o),
(367,0,c),
(367,0,l),
(459,0,l),
(459,0,l),
(433,50,o),
(426,87,o),
(426,142,cs),
(426,299,ls),
(426,400,o),
(353,481,o),
(231,481,cs),
(102,481,o),
(39,402,o),
(26,332,c),
(26,332,l),
(111,320,l),
(120,362,o),
(157,400,o),
(226,400,cs),
(293,400,o),
(338,364,o),
(338,305,c),
(178,266,ls),
(67,239,o),
(16,185,o),
(16,123,cs),
(16,56,o),
(65,-10,o),
(165,-10,cs)
);
},
{
closed = 1;
nodes = (
(131,68,o),
(107,91,o),
(107,123,cs),
(107,153,o),
(141,180,o),
(198,195,cs),
(247,208,o),
(290,218,o),
(338,240,c),
(338,194,l),
(338,109,o),
(236,68,o),
(182,68,cs)
);
}
);
};
layerId = m01;
metricLeft = "=o";
metricRight = "=n";
shapes = (
{
closed = 1;
nodes = (
(249,-10,o),
(306,33,o),
(338,80,c),
(338,69,o),
(351,30,o),
(362,5,c),
(376,-6,l),
(508,23,l),
(514,58,l),
(453,68,o),
(432,112,o),
(432,167,cs),
(432,308,ls),
(432,403,o),
(369,481,o),
(263,481,cs),
(189,481,o),
(63,424,o),
(49,360,c),
(59,344,l),
(134,331,l),
(146,378,o),
(166,410,o),
(230,410,cs),
(299,410,o),
(326,346,o),
(335,298,c),
(170,256,ls),
(91,236,o),
(40,175,o),
(40,114,cs),
(40,60,o),
(87,-10,o),
(170,-10,cs)
);
},
{
closed = 1;
nodes = (
(162,68,o),
(141,81,o),
(141,130,cs),
(141,164,o),
(169,186,o),
(206,199,cs),
(252,214,o),
(293,222,o),
(338,239,c),
(338,113,l),
(296,90,o),
(243,68,o),
(202,68,cs)
);
}
);
width = 529;
},
{
anchors = (
{
name = bottom;
pos = (333,0);
},
{
name = ogonek;
pos = (599,10);
},
{
name = top;
pos = (333,500);
}
);
layerId = "C36E42DF-D6E4-4FAF-B5BA-99700BA29EB5";
metricLeft = "=o";
metricRight = "=n";
shapes = (
{
closed = 1;
nodes = (
(252,-10,o),
(329,31,o),
(365,52,c),
(368,43,o),
(372,36,o),
(376,30,c),
(426,-10,l),
(640,46,l),
(656,181,l),
(605,199,o),
(596,241,o),
(596,302,cs),
(596,318,ls),
(596,463,o),
(449,509,o),
(343,509,cs),
(219,509,o),
(103,481,o),
(29,387,c),
(69,337,l),
(245,320,l),
(252,352,o),
(266,394,o),
(306,394,cs),
(344,394,o),
(358,348,o),
(364,316,c),
(242,297,ls),
(101,275,o),
(20,222,o),
(20,121,cs),
(20,57,o),
(70,-10,o),
(173,-10,cs)
);
},
{
closed = 1;
nodes = (
(273,120,o),
(253,129,o),
(253,157,cs),
(253,186,o),
(271,204,o),
(300,215,cs),
(324,224,o),
(342,231,o),
(364,239,c),
(364,142,l),
(347,132,o),
(324,120,o),
(295,120,cs)
);
}
);
width = 666;
},
{
anchors = (
{
name = bottom;
pos = (277,0);
},
{
name = ogonek;
pos = (499,10);
},
{
name = top;
pos = (277,471);
}
);
layerId = "9E464B93-4987-4E25-B327-76BD95426741";
metricLeft = "=o";
metricRight = "=n";
shapes = (
{
closed = 1;
nodes = (
(279,-10,o),
(363,71,o),
(398,111,c),
(398,79,o),
(398,31,o),
(398,4,c),
(412,-7,l),
(518,5,l),
(519,14,l),
(415,14,o),
(415,14,o),
(415,46,cs),
(415,308,ls),
(415,399,o),
(379,481,o),
(266,481,cs),
(175,481,o),
(99,443,o),
(76,381,c),
(82,369,l),
(92,367,l),
(109,413,o),
(162,470,o),
(246,470,cs),
(372,470,o),
(399,380,o),
(398,309,c),
(172,255,ls),
(92,236,o),
(60,175,o),
(60,114,cs),
(60,60,o),
(107,-10,o),
(190,-10,cs)
);
},
{
closed = 1;
nodes = (
(132,5,o),
(82,67,o),
(82,126,cs),
(82,160,o),
(101,224,o),
(180,245,cs),
(254,265,o),
(353,287,o),
(398,299,c),
(398,120,l),
(356,77,o),
(263,5,o),
(202,5,cs)
);
}
);
width = 554;
},
{
anchors = (
{
name = bottom;
pos = (265,0);
},
{
name = ogonek;
pos = (471,10);
},
{
name = top;
pos = (265,471);
}
);
layerId = "BABFB3A0-9CFA-45ED-BD0F-DD711F12EEFF";
metricLeft = "=o+10";
metricRight = "=o";
shapes = (
{
closed = 1;
nodes = (
(269,-10,o),
(357,38,o),
(375,93,c),
(380,51,o),
(388,19,o),
(401,0,c),
(401,0,l),
(493,0,l),
(493,0,l),
(467,50,o),
(460,87,o),
(460,142,cs),
(460,299,ls),
(460,400,o),
(387,481,o),
(265,481,cs),
(136,481,o),
(73,402,o),
(60,332,c),
(60,332,l),
(145,320,l),
(154,362,o),
(191,397,o),
(260,397,cs),
(327,397,o),
(372,364,o),
(372,305,c),
(212,266,ls),
(101,239,o),
(50,185,o),
(50,123,cs),
(50,56,o),
(99,-10,o),
(199,-10,cs)
);
},
{
closed = 1;
nodes = (
(165,68,o),
(141,91,o),
(141,123,cs),
(141,153,o),
(175,180,o),
(232,195,cs),
(281,208,o),
(324,218,o),
(372,240,c),
(372,194,l),
(372,109,o),
(270,68,o),
(216,68,cs)
);
}
);
width = 533;
},
{
anchors = (
{
name = bottom;
pos = (318,0);
},
{
name = ogonek;
pos = (572,10);
},
{
name = top;
pos = (318,500);
}
);
layerId = "C8CD87A0-2407-4F05-BADA-4D8336545B60";
shapes = (
{
closed = 1;
nodes = (
(283,-10,o),
(341,25,o),
(365,49,c),
(368,34,o),
(376,12,o),
(384,0,c),
(384,0,l),
(626,0,l),
(626,0,l),
(598,52,o),
(591,93,o),
(591,151,cs),
(591,318,ls),
(591,424,o),
(505,510,o),
(316,510,cs),
(159,510,o),
(45,427,o),
(31,353,c),
(31,353,l),
(248,316,l),
(252,358,o),
(269,394,o),
(306,394,cs),
(347,394,o),
(361,349,o),
(361,317,c),
(242,298,ls),
(71,271,o),
(20,206,o),
(20,121,cs),
(20,50,o),
(82,-10,o),
(198,-10,cs)
);
},
{
closed = 1;
nodes = (
(266,123,o),
(246,137,o),
(246,157,cs),
(246,178,o),
(263,192,o),
(297,206,cs),
(320,216,o),
(339,223,o),
(361,237,c),
(361,205,l),
(361,151,o),
(320,123,o),
(288,123,cs)
);
}
);
width = 636;
},
{
anchors = (
{
name = bottom;
pos = (259,0);
},
{
name = ogonek;
pos = (466,10);
},
{
name = top;
pos = (259,471);
}
);
layerId = "48DAC09D-95D4-4D70-8D14-87ABECD8575B";
metricLeft = "=o+10";
metricRight = "=o";
shapes = (
{
closed = 1;
nodes = (
(305,-10,o),
(383,50,o),
(407,130,c),
(413,49,o),
(426,28,o),
(440,0,c),
(440,0,l),
(458,0,l),
(458,0,l),
(433,43,o),
(423,87,o),
(423,142,cs),
(423,299,ls),
(423,400,o),
(374,481,o),
(252,481,cs),
(136,481,o),
(96,400,o),
(82,348,c),
(82,348,l),
(97,345,l),
(109,389,o),
(145,466,o),
(252,466,cs),
(338,466,o),
(407,414,o),
(407,310,c),
(232,265,ls),
(122,237,o),
(70,186,o),
(70,123,cs),
(70,56,o),
(119,-10,o),
(219,-10,cs)
);
},
{
closed = 1;
nodes = (
(132,5,o),
(86,60,o),
(86,123,cs),
(86,178,o),
(136,224,o),
(229,250,cs),
(290,267,o),
(328,275,o),
(407,296,c),
(407,194,l),
(407,83,o),
(306,5,o),
(219,5,cs)
);
}
);
width = 518;
}
);
unicode = 97;
},
{
glyphname = ae;
lastChange = "2023-06-24 02:03:46 +0000";
layers = (
{
layerId = "9E464B93-4987-4E25-B327-76BD95426741";
shapes = (
{
closed = 1;
nodes = (
(279,-10,o),
(356,45,o),
(398,90,c),
(436,30,o),
(502,-10,o),
(587,-10,cs),
(703,-10,o),
(779,56,o),
(802,90,c),
(777,117,l),
(744,83,o),
(681,60,o),
(623,60,cs),
(524,60,o),
(477,126,o),
(465,194,c),
(556,210,o),
(696,248,o),
(790,281,c),
(800,295,l),
(782,403,o),
(696,481,o),
(592,481,cs),
(533,481,o),
(472,452,o),
(427,404,c),
(399,450,o),
(350,481,o),
(283,481,cs),
(209,481,o),
(83,424,o),
(69,360,c),
(79,344,l),
(154,331,l),
(166,378,o),
(186,410,o),
(250,410,cs),
(319,410,o),
(346,346,o),
(355,298,c),
(190,256,ls),
(111,236,o),
(60,175,o),
(60,114,cs),
(60,60,o),
(107,-10,o),
(190,-10,cs)
);
},
{
closed = 1;
nodes = (
(161,164,o),
(189,186,o),
(226,199,cs),
(272,214,o),
(313,222,o),
(358,239,c),
(358,195,o),
(366,157,o),
(381,123,c),
(337,91,o),
(260,68,o),
(222,68,cs),
(182,68,o),
(161,81,o),
(161,130,cs)
);
},
{
closed = 1;
nodes = (
(457,347,o),
(508,413,o),
(573,413,cs),
(646,413,o),
(678,360,o),
(692,315,c),
(611,289,o),
(538,267,o),
(459,257,c)
);
}
);
width = 862;
},
{
layerId = "48DAC09D-95D4-4D70-8D14-87ABECD8575B";
shapes = (
{
closed = 1;
nodes = (
(285,-10,o),
(367,21,o),
(426,109,c),
(469,38,o),
(545,-10,o),
(632,-10,cs),
(772,-10,o),
(836,77,o),
(860,114,c),
(786,159,l),
(751,112,o),
(698,72,o),
(632,72,cs),
(541,72,o),
(478,143,o),
(478,211,c),
(610,211,o),
(743,211,o),
(875,211,c),
(875,222,ls),
(875,373,o),
(772,481,o),
(632,481,cs),
(561,481,o),
(497,449,o),
(453,398,c),
(421,448,o),
(363,481,o),
(285,481,cs),
(156,481,o),
(93,402,o),
(80,332,c),
(80,332,l),
(165,320,l),
(174,362,o),
(211,397,o),
(280,397,cs),
(347,397,o),
(392,364,o),
(392,305,c),
(232,266,ls),
(121,239,o),
(70,185,o),
(70,123,cs),
(70,56,o),
(119,-10,o),
(219,-10,cs)
);
},
{
closed = 1;
nodes = (
(161,153,o),
(195,180,o),
(252,195,cs),
(301,208,o),
(344,218,o),
(392,240,c),
(392,225,o),
(392,209,o),
(392,194,cs),
(392,109,o),
(290,68,o),
(236,68,cs),
(185,68,o),
(161,91,o),
(161,123,cs)
);
},
{
closed = 1;
nodes = (
(482,325,o),
(534,397,o),
(632,397,cs),
(731,397,o),
(781,325,o),
(781,288,c),
(681,288,o),
(582,288,o),
(482,288,c)
);
}
);
width = 935;
},
{
layerId = m01;
shapes = (
{
closed = 1;
nodes = (
(259,-10,o),
(336,45,o),
(378,90,c),
(416,30,o),
(482,-10,o),
(567,-10,cs),
(683,-10,o),
(759,56,o),
(782,90,c),
(757,117,l),
(724,83,o),
(661,60,o),
(603,60,cs),
(504,60,o),
(457,126,o),
(445,194,c),
(536,210,o),
(676,248,o),
(770,281,c),
(780,295,l),
(762,403,o),
(676,481,o),
(572,481,cs),
(513,481,o),
(452,452,o),
(407,404,c),
(379,450,o),
(330,481,o),
(263,481,cs),
(189,481,o),
(63,424,o),
(49,360,c),
(59,344,l),
(134,331,l),
(146,378,o),
(166,410,o),
(230,410,cs),
(299,410,o),
(326,346,o),
(335,298,c),
(170,256,ls),
(91,236,o),
(40,175,o),
(40,114,cs),
(40,60,o),
(87,-10,o),
(170,-10,cs)
);
},
{
closed = 1;
nodes = (
(141,164,o),
(169,186,o),
(206,199,cs),
(252,214,o),
(293,222,o),
(338,239,c),
(338,195,o),
(346,157,o),
(361,123,c),
(317,91,o),
(240,68,o),
(202,68,cs),
(162,68,o),
(141,81,o),
(141,130,cs)
);
},
{
closed = 1;
nodes = (
(437,347,o),
(488,413,o),
(553,413,cs),
(626,413,o),
(658,360,o),
(672,315,c),
(591,289,o),
(518,267,o),
(439,257,c)
);
}
);
width = 822;
},
{
layerId = "BABFB3A0-9CFA-45ED-BD0F-DD711F12EEFF";
shapes = (
{
closed = 1;
nodes = (
(265,-10,o),
(347,21,o),
(406,109,c),
(449,38,o),
(525,-10,o),
(612,-10,cs),
(752,-10,o),
(816,77,o),
(840,114,c),
(766,159,l),
(731,112,o),
(678,72,o),
(612,72,cs),
(521,72,o),
(458,143,o),
(458,211,c),
(590,211,o),
(723,211,o),
(855,211,c),
(855,222,ls),
(855,373,o),
(752,481,o),
(612,481,cs),
(541,481,o),
(477,449,o),
(433,398,c),
(401,448,o),
(343,481,o),
(265,481,cs),
(136,481,o),
(73,402,o),
(60,332,c),
(60,332,l),
(145,320,l),
(154,362,o),
(191,397,o),
(260,397,cs),
(327,397,o),
(372,364,o),
(372,305,c),
(212,266,ls),
(101,239,o),
(50,185,o),
(50,123,cs),
(50,56,o),
(99,-10,o),
(199,-10,cs)
);
},
{
closed = 1;
nodes = (
(141,153,o),
(175,180,o),
(232,195,cs),
(281,208,o),
(324,218,o),
(372,240,c),
(372,225,o),
(372,209,o),
(372,194,cs),
(372,109,o),
(270,68,o),
(216,68,cs),
(165,68,o),
(141,91,o),
(141,123,cs)
);
},
{
closed = 1;
nodes = (
(462,325,o),
(514,397,o),
(612,397,cs),
(711,397,o),
(761,325,o),
(761,288,c),
(661,288,o),
(562,288,o),
(462,288,c)
);
}
);
width = 895;
},
{
layerId = "C36E42DF-D6E4-4FAF-B5BA-99700BA29EB5";
shapes = (
{
closed = 1;
nodes = (
(239,-10,o),
(316,45,o),
(358,90,c),
(396,30,o),
(462,-10,o),
(547,-10,cs),
(663,-10,o),
(739,56,o),
(762,90,c),
(737,117,l),
(704,83,o),
(641,60,o),
(583,60,cs),
(484,60,o),
(437,126,o),
(425,194,c),
(516,210,o),
(656,248,o),
(750,281,c),
(760,295,l),
(742,403,o),
(656,481,o),
(552,481,cs),
(493,481,o),
(432,452,o),
(387,404,c),
(359,450,o),
(310,481,o),
(243,481,cs),
(169,481,o),
(43,424,o),
(29,360,c),
(39,344,l),
(114,331,l),
(126,378,o),
(146,410,o),
(210,410,cs),
(279,410,o),
(306,346,o),
(315,298,c),
(150,256,ls),
(71,236,o),
(20,175,o),
(20,114,cs),
(20,60,o),
(67,-10,o),
(150,-10,cs)
);
},
{
closed = 1;
nodes = (
(121,164,o),
(149,186,o),
(186,199,cs),
(232,214,o),
(273,222,o),
(318,239,c),
(318,195,o),
(326,157,o),
(341,123,c),
(297,91,o),
(220,68,o),
(182,68,cs),
(142,68,o),
(121,81,o),
(121,130,cs)
);
},
{
closed = 1;
nodes = (
(417,347,o),
(468,413,o),
(533,413,cs),
(606,413,o),
(638,360,o),
(652,315,c),
(571,289,o),
(498,267,o),
(419,257,c)
);
}
);
width = 782;
},
{
layerId = "C8CD87A0-2407-4F05-BADA-4D8336545B60";
shapes = (
{
closed = 1;
nodes = (
(235,-10,o),
(317,21,o),
(376,109,c),
(419,38,o),
(495,-10,o),
(582,-10,cs),
(722,-10,o),
(786,77,o),
(810,114,c),
(736,159,l),
(701,112,o),
(648,72,o),
(582,72,cs),
(491,72,o),
(428,143,o),
(428,211,c),
(560,211,o),
(693,211,o),
(825,211,c),
(825,222,ls),
(825,373,o),
(722,481,o),
(582,481,cs),
(511,481,o),
(447,449,o),
(403,398,c),
(371,448,o),
(313,481,o),
(235,481,cs),
(106,481,o),
(43,402,o),
(30,332,c),
(30,332,l),
(115,320,l),
(124,362,o),
(161,397,o),
(230,397,cs),
(297,397,o),
(342,364,o),
(342,305,c),
(182,266,ls),
(71,239,o),
(20,185,o),
(20,123,cs),
(20,56,o),
(69,-10,o),
(169,-10,cs)
);
},
{
closed = 1;
nodes = (
(111,153,o),
(145,180,o),
(202,195,cs),
(251,208,o),
(294,218,o),
(342,240,c),
(342,225,o),
(342,209,o),
(342,194,cs),
(342,109,o),
(240,68,o),
(186,68,cs),
(135,68,o),
(111,91,o),
(111,123,cs)
);
},
{
closed = 1;
nodes = (
(432,325,o),
(484,397,o),
(582,397,cs),
(681,397,o),
(731,325,o),
(731,288,c),
(631,288,o),
(532,288,o),
(432,288,c)
);
}
);
width = 845;
}
);
metricLeft = "=a";
metricRight = "=e";
unicode = 230;
},
{
glyphname = b;
lastChange = "2023-06-14 13:47:08 +0000";
layers = (
{
anchors = (
{
name = bottom;
pos = (299,0);
},
{
name = center;
pos = (299,236);
},
{
name = top;
pos = (299,471);
}
);
layerId = m01;
metricRight = "=o";
shapes = (
{
closed = 1;
nodes = (
(419,-10,o),
(559,80,o),
(559,239,cs),
(559,392,o),
(467,481,o),
(379,481,cs),
(310,481,o),
(249,427,o),
(191,388,c),
(191,769,l),
(177,780,l),
(21,734,l),
(15,699,l),
(71,680,o),
(96,649,o),
(96,618,cs),
(96,11,l),
(110,0,l),
(191,35,l),
(223,12,o),
(267,-10,o),
(325,-10,cs)
);
},
{
closed = 1;
nodes = (
(277,60,o),
(226,96,o),
(191,134,c),
(191,330,l),
(222,355,o),
(293,402,o),
(328,402,cs),
(420,402,o),
(462,317,o),
(462,205,cs),
(462,104,o),
(419,60,o),
(350,60,cs)
);
}
);
width = 599;
},
{
anchors = (
{
name = bottom;
pos = (359,0);
},
{
name = center;
pos = (359,250);
},
{
name = top;
pos = (359,500);
}
);
layerId = "C36E42DF-D6E4-4FAF-B5BA-99700BA29EB5";
metricLeft = "=n-10";
metricRight = "=o";
shapes = (
{
closed = 1;
nodes = (
(568,-10,o),
(698,100,o),
(698,265,cs),
(698,411,o),
(606,510,o),
(488,510,cs),
(429,510,o),
(358,466,o),
(300,437,c),
(300,740,l),
(250,780,l),
(21,724,l),
(5,590,l),
(50,582,o),
(65,549,o),
(65,478,cs),
(65,41,l),
(117,0,l),
(280,38,l),
(348,4,o),
(406,-10,o),
(455,-10,cs)
);
},
{
closed = 1;
nodes = (
(344,156,o),
(322,170,o),
(300,192,c),
(300,298,l),
(324,319,o),
(356,344,o),
(385,344,cs),
(419,344,o),
(434,310,o),
(434,244,cs),
(434,193,o),
(415,156,o),
(371,156,cs)
);
}
);
width = 718;
},
{
anchors = (
{
name = bottom;
pos = (313,0);
},
{
name = center;
pos = (313,236);
},
{
name = top;
pos = (313,471);
}
);
layerId = "9E464B93-4987-4E25-B327-76BD95426741";
metricRight = "=o";
shapes = (
{
closed = 1;
nodes = (
(447,-10,o),
(566,97,o),
(566,240,cs),
(566,367,o),
(486,481,o),
(381,481,cs),
(296,481,o),
(220,418,o),
(156,361,c),
(156,769,l),
(142,780,l),
(36,768,l),
(35,759,l),
(139,759,o),
(139,759,o),
(139,727,cs),
(139,4,l),
(151,0,l),
(156,99,l),
(200,34,o),
(261,-10,o),
(333,-10,cs)
);
},
{
closed = 1;
nodes = (
(268,4,o),
(203,57,o),
(156,140,c),
(156,347,l),
(202,387,o),
(292,468,o),
(366,468,cs),
(464,468,o),
(544,353,o),
(544,226,cs),
(544,102,o),
(445,4,o),
(351,4,cs)
);
}
);
width = 626;
},
{
anchors = (
{
name = bottom;
pos = (292,0);
},
{
name = center;
pos = (292,236);
},
{
name = top;
pos = (292,471);
}
);
layerId = "BABFB3A0-9CFA-45ED-BD0F-DD711F12EEFF";
metricLeft = "=n";
metricRight = "=o";
shapes = (
{
closed = 1;
nodes = (
(447,-10,o),
(544,89,o),
(544,239,cs),
(544,389,o),
(436,481,o),
(329,481,cs),
(247,481,o),
(183,447,o),
(158,393,c),
(158,750,l),
(158,750,l),
(70,750,l),
(70,750,l),
(70,720,o),
(70,675,o),
(70,550,cs),
(70,0,l),
(158,0,l),
(158,78,l),
(190,23,o),
(251,-10,o),
(329,-10,cs)
);
},
{
closed = 1;
nodes = (
(237,71,o),
(155,115,o),
(155,233,c),
(155,233,l),
(155,351,o),
(237,395,o),
(304,395,cs),
(381,395,o),
(456,337,o),
(456,233,cs),
(456,129,o),
(381,71,o),
(304,71,cs)
);
}
);
width = 584;
},
{
anchors = (
{
name = bottom;
pos = (350,0);
},
{
name = center;
pos = (350,250);
},
{
name = top;
pos = (350,500);
}
);
layerId = "C8CD87A0-2407-4F05-BADA-4D8336545B60";
metricLeft = "=n";
metricRight = "=o";
shapes = (
{
closed = 1;
nodes = (
(574,-10,o),
(680,86,o),
(680,251,cs),
(680,415,o),
(570,510,o),
(454,510,cs),
(377,510,o),
(320,485,o),
(270,439,c),
(270,750,l),
(270,750,l),
(40,750,l),
(40,750,l),
(40,720,o),
(40,675,o),
(40,550,c),
(40,0,l),
(270,0,l),
(270,83,l),
(314,25,o),
(377,-10,o),
(454,-10,cs)
);
},
{
closed = 1;
nodes = (
(291,156,o),
(268,199,o),
(268,251,c),
(268,251,l),
(268,302,o),
(291,345,o),
(333,345,cs),
(375,345,o),
(398,302,o),
(398,251,cs),
(398,199,o),
(375,156,o),
(333,156,cs)
);
}
);
width = 700;
},
{
anchors = (
{
name = bottom;
pos = (306,0);
},
{
name = center;
pos = (306,236);
},
{
name = top;
pos = (306,471);
}
);
layerId = "48DAC09D-95D4-4D70-8D14-87ABECD8575B";
metricLeft = "=n";
metricRight = "=o";
shapes = (
{
closed = 1;
nodes = (
(450,-10,o),
(551,75,o),
(551,235,cs),
(551,395,o),
(450,481,o),
(324,481,cs),
(206,481,o),
(131,396,o),
(106,323,c),
(106,749,l),
(106,749,l),
(90,749,l),
(90,749,l),
(90,719,o),
(90,699,o),
(90,649,cs),
(90,0,l),
(106,0,l),
(106,151,l),
(131,73,o),
(206,-10,o),
(324,-10,cs)
);
},
{
closed = 1;
nodes = (
(219,5,o),
(105,85,o),
(105,236,c),
(105,236,l),
(105,385,o),
(219,466,o),
(324,466,cs),
(439,466,o),
(535,385,o),
(535,235,cs),
(535,85,o),
(439,5,o),
(324,5,cs)
);
}
);
width = 611;
}
);
metricLeft = "=n-10";
metricRight = "=o";
unicode = 98;
},
{
glyphname = c;
lastChange = "2023-06-23 17:55:15 +0000";
layers = (
{
anchors = (
{
name = bottom;
pos = (270,0);
},
{
name = top;
pos = (270,471);
}
);
layerId = m01;
metricLeft = "=o";
metricRight = "=o-10";
shapes = (
{
closed = 1;
nodes = (
(373,-10,o),
(425,44,o),
(449,79,c),
(426,106,l),
(399,84,o),
(353,60,o),
(289,60,cs),
(177,60,o),
(142,175,o),
(142,264,cs),
(142,350,o),
(178,412,o),
(269,412,cs),
(316,412,o),
(359,373,o),
(381,340,c),
(448,406,l),
(408,452,o),
(353,481,o),
(286,481,cs),
(171,481,o),
(40,374,o),
(40,235,cs),
(40,102,o),
(116,-10,o),
(269,-10,cs)
);
}
);
width = 479;
},
{
anchors = (
{
name = bottom;
pos = (298,0);
},
{
name = top;
pos = (298,500);
}
);
layerId = "C36E42DF-D6E4-4FAF-B5BA-99700BA29EB5";
metricLeft = "=o";
metricRight = "=o-10";
shapes = (
{
closed = 1;
nodes = (
(438,-10,o),
(530,55,o),
(585,127,c),
(493,239,l),
(448,184,o),
(403,160,o),
(357,154,cs),
(310,148,o),
(260,157,o),
(252,240,cs),
(244,319,o),
(278,344,o),
(314,347,cs),
(356,350,o),
(375,315,o),
(385,287,c),
(576,413,l),
(516,492,o),
(423,510,o),
(338,510,cs),
(192,510,o),
(20,405,o),
(20,249,cs),
(20,107,o),
(134,-10,o),
(312,-10,cs)
);
}
);
width = 595;
},
{
anchors = (
{
name = bottom;
pos = (259,0);
},
{
name = top;
pos = (259,471);
}
);
layerId = "9E464B93-4987-4E25-B327-76BD95426741";
metricLeft = "=o";
metricRight = "=o-10";
shapes = (
{
closed = 1;
nodes = (
(394,-10,o),
(444,37,o),
(468,72,c),
(461,79,l),
(440,47,o),
(383,4,o),
(299,4,cs),
(158,4,o),
(80,124,o),
(80,250,cs),
(80,377,o),
(194,468,o),
(294,468,cs),
(371,468,o),
(426,423,o),
(448,390,c),
(468,406,l),
(428,452,o),
(373,481,o),
(306,481,cs),
(184,481,o),
(60,384,o),
(60,235,cs),
(60,102,o),
(138,-10,o),
(290,-10,cs)
);
}
);
width = 518;
},
{
anchors = (
{
name = bottom;
pos = (280,0);
},
{
name = top;
pos = (280,471);
}
);
layerId = "BABFB3A0-9CFA-45ED-BD0F-DD711F12EEFF";
metricLeft = "=o";
metricRight = "=o-10";
shapes = (
{
closed = 1;
nodes = (
(420,-10,o),
(474,77,o),
(498,114,c),
(424,159,l),
(389,107,o),
(344,77,o),
(280,77,cs),
(198,77,o),
(127,146,o),
(127,235,cs),
(127,321,o),
(198,393,o),
(280,393,cs),
(346,393,o),
(391,360,o),
(422,313,c),
(498,360,l),
(470,400,o),
(410,481,o),
(280,481,cs),
(149,481,o),
(40,370,o),
(40,235,cs),
(40,99,o),
(149,-10,o),
(280,-10,cs)
);
}
);
width = 528;
},
{
anchors = (
{
name = bottom;
pos = (303,0);
},
{
name = top;
pos = (303,500);
}
);
layerId = "C8CD87A0-2407-4F05-BADA-4D8336545B60";
metricLeft = "=o";
metricRight = "=o-5";
shapes = (
{
closed = 1;
nodes = (
(489,-10,o),
(558,85,o),
(590,141,c),
(380,216,l),
(368,185,o),
(354,155,o),
(315,155,cs),
(273,155,o),
(250,198,o),
(250,249,cs),
(250,301,o),
(273,344,o),
(315,344,cs),
(357,344,o),
(375,305,o),
(380,276,c),
(590,355,l),
(565,400,o),
(496,510,o),
(315,510,cs),
(112,510,o),
(20,374,o),
(20,250,cs),
(20,125,o),
(112,-10,o),
(315,-10,cs)
);
}
);
width = 605;
},
{
anchors = (
{
name = bottom;
pos = (284,0);
},
{
name = top;
pos = (284,471);
}
);
layerId = "48DAC09D-95D4-4D70-8D14-87ABECD8575B";
metricLeft = "=o";
metricRight = "=o-10";
shapes = (
{
closed = 1;
nodes = (
(440,-10,o),
(494,77,o),
(518,114,c),
(506,124,l),
(484,90,o),
(434,5,o),
(301,5,cs),
(179,5,o),
(76,105,o),
(76,235,cs),
(76,365,o),
(179,466,o),
(301,466,cs),
(434,466,o),
(482,385,o),
(505,351,c),
(518,360,l),
(491,400,o),
(441,481,o),
(301,481,cs),
(170,481,o),
(60,370,o),
(60,235,cs),
(60,99,o),
(169,-10,o),
(300,-10,cs)
);
}
);
width = 568;
}
);
metricLeft = "=o";
metricRight = "=o-5";
unicode = 99;
},
{
glyphname = d;
lastChange = "2023-06-24 02:22:07 +0000";
layers = (
{
anchors = (
{
name = bottom;
pos = (305,0);
},
{
name = center;
pos = (431,565);
},
{
name = top;
pos = (305,780);
},
{
name = topright;
pos = (589,780);
}
);
layerId = m01;
metricLeft = "=o";
metricRight = "=n";
shapes = (
{
closed = 1;
nodes = (
(299,-10,o),
(360,45,o),
(418,84,c),
(417,72,o),
(430,30,o),
(442,5,c),
(456,-6,l),
(587,23,l),
(593,58,l),
(532,68,o),
(513,112,o),
(513,167,cs),
(513,769,l),
(498,780,l),
(344,734,l),
(338,699,l),
(393,680,o),
(418,649,o),
(418,618,c),
(418,424,l),
(386,460,o),
(342,481,o),
(283,481,cs),
(180,481,o),
(40,392,o),
(40,233,cs),
(40,80,o),
(132,-10,o),
(230,-10,cs)
);
},
{
closed = 1;
nodes = (
(179,70,o),
(137,155,o),
(137,267,cs),
(137,358,o),
(190,412,o),
(259,412,cs),
(332,412,o),
(383,376,o),
(418,337,c),
(418,142,l),
(387,117,o),
(316,70,o),
(279,70,cs)
);
}
);
width = 608;
},
{
anchors = (
{
name = bottom;
pos = (357,0);
},
{
name = center;
pos = (431,565);
},
{
name = top;
pos = (357,780);
},
{
name = topright;
pos = (693,780);
}
);
layerId = "C36E42DF-D6E4-4FAF-B5BA-99700BA29EB5";
metricLeft = "=o";
metricRight = "=n";
shapes = (
{
closed = 1;
nodes = (
(299,-10,o),
(363,44,o),
(418,83,c),
(431,71,o),
(433,50,o),
(433,30,c),
(483,-10,l),
(687,46,l),
(703,181,l),
(652,199,o),
(643,241,o),
(643,302,cs),
(643,740,l),
(593,780,l),
(374,724,l),
(358,590,l),
(403,582,o),
(418,549,o),
(418,478,c),
(418,452,l),
(386,488,o),
(332,510,o),
(254,510,cs),
(150,510,o),
(20,400,o),
(20,235,cs),
(20,89,o),
(112,-10,o),
(230,-10,cs)
);
},
{
closed = 1;
nodes = (
(299,156,o),
(284,190,o),
(284,256,cs),
(284,307,o),
(303,344,o),
(347,344,cs),
(374,344,o),
(396,330,o),
(418,308,c),
(418,202,l),
(394,181,o),
(362,156,o),
(333,156,cs)
);
}
);
width = 713;
},
{
anchors = (
{
name = bottom;
pos = (313,0);
},
{
name = center;
pos = (431,565);
},
{
name = top;
pos = (313,780);
},
{
name = topright;
pos = (606,780);
}
);
layerId = "9E464B93-4987-4E25-B327-76BD95426741";
metricLeft = "=o";
metricRight = "=n";
shapes = (
{
closed = 1;
nodes = (
(330,-10,o),
(406,53,o),
(470,110,c),
(470,81,o),
(470,28,o),
(470,1,c),
(484,-10,l),
(590,2,l),
(591,11,l),
(487,11,o),
(487,11,o),
(487,41,cs),
(487,769,l),
(473,780,l),
(367,768,l),
(366,759,l),
(470,759,o),
(470,759,o),
(470,727,c),
(470,372,l),
(426,437,o),
(365,481,o),
(293,481,cs),
(179,481,o),
(60,374,o),
(60,231,cs),
(60,104,o),
(140,-10,o),
(245,-10,cs)
);
},
{
closed = 1;
nodes = (
(162,3,o),
(82,118,o),
(82,245,cs),
(82,369,o),
(181,467,o),
(275,467,cs),
(358,467,o),
(423,414,o),
(470,331,c),
(470,124,l),
(424,84,o),
(334,3,o),
(260,3,cs)
);
}
);
width = 626;
},
{
anchors = (
{
name = bottom;
pos = (292,0);
},
{
name = center;
pos = (431,565);
},
{
name = top;
pos = (292,780);
},
{
name = topright;
pos = (564,780);
}
);
layerId = "BABFB3A0-9CFA-45ED-BD0F-DD711F12EEFF";
metricLeft = "=o";
metricRight = "=n";
shapes = (
{
closed = 1;
nodes = (
(333,-10,o),
(394,23,o),
(426,78,c),
(426,78,o),
(426,30,o),
(426,0,c),
(426,0,l),
(514,0,l),
(514,0,l),
(514,30,o),
(514,76,o),
(514,201,cs),
(514,750,l),
(514,750,l),
(426,750,l),
(426,750,l),
(426,720,o),
(426,675,o),
(426,550,c),
(426,393,l),
(401,447,o),
(337,481,o),
(255,481,cs),
(152,481,o),
(40,389,o),
(40,239,cs),
(40,89,o),
(137,-10,o),
(255,-10,cs)
);
},
{
closed = 1;
nodes = (
(203,71,o),
(128,129,o),
(128,233,cs),
(128,337,o),
(203,395,o),
(280,395,cs),
(347,395,o),
(429,351,o),
(429,233,c),
(429,233,l),
(429,115,o),
(347,71,o),
(280,71,cs)
);
}
);
width = 584;
},
{
anchors = (
{
name = bottom;
pos = (350,0);
},
{
name = center;
pos = (431,565);
},
{
name = top;
pos = (350,780);
},
{
name = topright;
pos = (680,780);
}
);
layerId = "C8CD87A0-2407-4F05-BADA-4D8336545B60";
metricLeft = "=o";
metricRight = "=n";
shapes = (
{
closed = 1;
nodes = (
(323,-10,o),
(386,25,o),
(430,73,c),
(430,62,o),
(430,0,o),
(430,0,c),
(430,0,l),
(660,0,l),
(660,0,l),
(660,31,o),
(660,79,o),
(660,209,c),
(660,750,l),
(660,750,l),
(430,750,l),
(430,750,l),
(430,718,o),
(430,675,o),
(430,550,c),
(430,439,l),
(380,485,o),
(323,510,o),
(246,510,cs),
(130,510,o),
(20,415,o),
(20,251,cs),
(20,86,o),
(126,-10,o),
(246,-10,cs)
);
},
{
closed = 1;
nodes = (
(325,156,o),
(302,199,o),
(302,251,cs),
(302,302,o),
(325,345,o),
(367,345,cs),
(409,345,o),
(432,302,o),
(432,251,c),
(432,251,l),
(432,199,o),
(409,156,o),
(367,156,cs)
);
}
);
width = 700;
},
{
anchors = (
{
name = bottom;
pos = (306,0);
},
{
name = center;
pos = (431,565);
},
{
name = top;
pos = (306,780);
},
{
name = topright;
pos = (591,780);
}
);
layerId = "48DAC09D-95D4-4D70-8D14-87ABECD8575B";
metricLeft = "=o";
metricRight = "=n";
shapes = (
{
closed = 1;
nodes = (
(405,-10,o),
(480,73,o),
(505,151,c),
(505,50,o),
(505,30,o),
(505,0,c),
(505,0,l),
(521,0,l),
(521,0,l),
(521,30,o),
(521,50,o),
(521,100,c),
(521,750,l),
(521,750,l),
(505,750,l),
(505,750,l),
(505,720,o),
(505,700,o),
(505,650,c),
(505,323,l),
(480,396,o),
(405,481,o),
(287,481,cs),
(161,481,o),
(60,395,o),
(60,235,cs),
(60,75,o),
(161,-10,o),
(287,-10,cs)
);
},
{
closed = 1;
nodes = (
(172,5,o),
(76,85,o),
(76,235,cs),
(76,385,o),
(172,466,o),
(287,466,cs),
(392,466,o),
(506,385,o),
(506,236,c),
(506,236,l),
(506,85,o),
(392,5,o),
(287,5,cs)
);
}
);
width = 611;
}
);
metricLeft = "=o";
unicode = 100;
},
{
glyphname = eth;
lastChange = "2023-06-24 02:03:47 +0000";
layers = (
{
layerId = "9E464B93-4987-4E25-B327-76BD95426741";
shapes = (
{
closed = 1;
nodes = (
(555,492,o),
(403,695,o),
(192,738,c),
(176,697,l),
(334,636,o),
(405,535,o),
(430,413,c),
(391,443,o),
(340,454,o),
(299,454,cs),
(157,454,o),
(65,362,o),
(65,244,cs),
(65,91,o),
(187,-10,o),
(318,-10,cs),
(460,-10,o),
(555,105,o),
(555,277,cs)
);
},
{
closed = 1;
nodes = (
(175,310,o),
(206,395,o),
(304,395,cs),
(392,395,o),
(448,318,o),
(448,213,cs),
(448,102,o),
(381,54,o),
(316,54,cs),
(232,54,o),
(175,144,o),
(175,228,cs)
);
},
{
closed = 1;
nodes = (
(188,521,l),
(254,540,l),
(481,750,l),
(467,761,l),
(401,742,l),
(174,532,l)
);
}
);
width = 625;
},
{
layerId = "48DAC09D-95D4-4D70-8D14-87ABECD8575B";
shapes = (
{
closed = 1;
nodes = (
(564,526,o),
(408,705,o),
(197,738,c),
(179,664,l),
(337,629,o),
(433,504,o),
(470,381,c),
(423,433,o),
(365,454,o),
(304,454,cs),
(164,454,o),
(70,352,o),
(70,222,cs),
(70,92,o),
(172,-10,o),
(312,-10,cs),
(465,-10,o),
(564,105,o),
(564,277,cs)
);
},
{
closed = 1;
nodes = (
(160,320,o),
(231,370,o),
(313,370,cs),
(395,370,o),
(467,318,o),
(467,222,cs),
(467,124,o),
(395,74,o),
(313,74,cs),
(231,74,o),
(160,124,o),
(160,222,cs)
);
},
{
closed = 1;
nodes = (
(199,562,l),
(267,522,l),
(474,702,l),
(474,702,l),
(406,742,l),
(199,562,l)
);
}
);
width = 634;
},
{
layerId = m01;
shapes = (
{
closed = 1;
nodes = (
(535,492,o),
(383,695,o),
(172,738,c),
(156,697,l),
(314,636,o),
(385,535,o),
(410,413,c),
(371,443,o),
(320,454,o),
(279,454,cs),
(137,454,o),
(45,362,o),
(45,244,cs),
(45,91,o),
(167,-10,o),
(298,-10,cs),
(440,-10,o),
(535,105,o),
(535,277,cs)
);
},
{
closed = 1;
nodes = (
(155,310,o),
(186,395,o),
(284,395,cs),
(372,395,o),
(428,318,o),
(428,213,cs),
(428,102,o),
(361,54,o),
(296,54,cs),
(212,54,o),
(155,144,o),
(155,228,cs)
);
},
{
closed = 1;
nodes = (
(168,521,l),
(234,540,l),
(461,750,l),
(447,761,l),
(381,742,l),
(154,532,l)
);
}
);
width = 585;
},
{
layerId = "BABFB3A0-9CFA-45ED-BD0F-DD711F12EEFF";
shapes = (
{
closed = 1;
nodes = (
(544,526,o),
(388,705,o),
(177,738,c),
(159,664,l),
(317,629,o),
(413,504,o),
(450,381,c),
(403,433,o),
(345,454,o),
(284,454,cs),
(144,454,o),
(50,352,o),
(50,222,cs),
(50,92,o),
(152,-10,o),
(292,-10,cs),
(445,-10,o),
(544,105,o),
(544,277,cs)
);
},
{
closed = 1;
nodes = (
(140,320,o),
(211,370,o),
(293,370,cs),
(375,370,o),
(447,318,o),
(447,222,cs),
(447,124,o),
(375,74,o),
(293,74,cs),
(211,74,o),
(140,124,o),
(140,222,cs)
);
},
{
closed = 1;
nodes = (
(179,562,l),
(247,522,l),
(454,702,l),
(454,702,l),
(386,742,l),
(179,562,l)
);
}
);
width = 594;
},
{
layerId = "C36E42DF-D6E4-4FAF-B5BA-99700BA29EB5";
shapes = (
{
closed = 1;
nodes = (
(515,492,o),
(363,695,o),
(152,738,c),
(136,697,l),
(294,636,o),
(365,535,o),
(390,413,c),
(351,443,o),
(300,454,o),
(259,454,cs),
(117,454,o),
(25,362,o),
(25,244,cs),
(25,91,o),
(147,-10,o),
(278,-10,cs),
(420,-10,o),
(515,105,o),
(515,277,cs)
);
},
{
closed = 1;
nodes = (
(135,310,o),
(166,395,o),
(264,395,cs),
(352,395,o),
(408,318,o),
(408,213,cs),
(408,102,o),
(341,54,o),
(276,54,cs),
(192,54,o),
(135,144,o),
(135,228,cs)
);
},
{
closed = 1;
nodes = (
(148,521,l),
(214,540,l),
(441,750,l),
(427,761,l),
(361,742,l),
(134,532,l)
);
}
);
width = 545;
},
{
layerId = "C8CD87A0-2407-4F05-BADA-4D8336545B60";
shapes = (
{
closed = 1;
nodes = (
(534,526,o),
(378,705,o),
(167,738,c),
(149,664,l),
(307,629,o),
(403,504,o),
(440,381,c),
(393,433,o),
(335,454,o),
(274,454,cs),
(134,454,o),
(40,352,o),
(40,222,cs),
(40,92,o),
(142,-10,o),
(282,-10,cs),
(435,-10,o),
(534,105,o),
(534,277,cs)
);
},
{
closed = 1;
nodes = (
(130,320,o),
(201,370,o),
(283,370,cs),
(365,370,o),
(437,318,o),
(437,222,cs),
(437,124,o),
(365,74,o),
(283,74,cs),
(201,74,o),
(130,124,o),
(130,222,cs)
);
},
{
closed = 1;
nodes = (
(169,562,l),
(237,522,l),
(444,702,l),
(444,702,l),
(376,742,l),
(169,562,l)
);
}
);
width = 574;
}
);
metricLeft = "=|six";
metricRight = "=|six";
unicode = 240;
},
{
glyphname = e;
lastChange = "2024-10-01 00:34:34 +0000";
layers = (
{
anchors = (
{
name = bottom;
pos = (272,0);
},
{
name = ogonek;
pos = (365,10);
},
{
name = top;
pos = (271,471);
}
);
layerId = m01;
metricLeft = "=o";
metricRight = "=o";
shapes = (
{
closed = 1;
nodes = (
(385,-10,o),
(461,56,o),
(484,90,c),
(459,117,l),
(426,83,o),
(363,60,o),
(305,60,cs),
(206,60,o),
(159,126,o),
(147,194,c),
(238,210,o),
(378,248,o),
(472,281,c),
(482,295,l),
(464,403,o),
(378,481,o),
(274,481,cs),
(161,481,o),
(40,373,o),
(40,235,cs),
(40,102,o),
(126,-10,o),
(269,-10,cs)
);
},
{
closed = 1;
nodes = (
(139,347,o),
(190,413,o),
(255,413,cs),
(328,413,o),
(360,360,o),
(374,315,c),
(293,289,o),
(220,267,o),
(141,257,c)
);
}
);
width = 524;
},
{
anchors = (
{
name = bottom;
pos = (315,0);
},
{
name = ogonek;
pos = (566,10);
},
{
name = top;
pos = (315,500);
}
);
layerId = "C36E42DF-D6E4-4FAF-B5BA-99700BA29EB5";
metricLeft = "=o";
metricRight = "=o";
shapes = (
{
closed = 1;
nodes = (
(468,-10,o),
(550,73,o),
(609,167,c),
(534,254,l),
(487,201,o),
(425,168,o),
(371,158,cs),
(314,147,o),
(260,160,o),
(251,195,c),
(364,221,o),
(507,262,o),
(572,289,c),
(598,341,l),
(564,426,o),
(474,510,o),
(338,510,cs),
(189,510,o),
(20,405,o),
(20,249,cs),
(20,108,o),
(134,-10,o),
(312,-10,cs)
);
},
{
closed = 1;
nodes = (
(237,334,o),
(267,368,o),
(303,371,cs),
(345,374,o),
(361,342,o),
(369,308,c),
(329,292,o),
(290,282,o),
(242,275,c)
);
}
);
width = 629;
},
{
anchors = (
{
name = bottom;
pos = (282,0);
},
{
name = ogonek;
pos = (508,10);
},
{
name = top;
pos = (282,471);
}
);
background = {
shapes = (
{
closed = 1;
nodes = (
(60,373,o),
(181,481,o),
(294,481,cs),
(398,481,o),
(484,403,o),
(502,295,c),
(492,281,l),
(398,248,o),
(258,210,o),
(167,194,c),
(179,126,o),
(226,60,o),
(307,60,cs),
(383,60,o),
(446,83,o),
(479,117,c),
(504,90,l),
(481,56,o),
(405,-10,o),
(289,-10,cs),
(146,-10,o),
(60,102,o),
(60,235,cs)
);
},
{
closed = 1;
nodes = (
(240,267,o),
(313,289,o),
(394,315,c),
(380,360,o),
(348,413,o),
(275,413,cs),
(210,413,o),
(159,347,o),
(161,257,c)
);
}
);
};
layerId = "9E464B93-4987-4E25-B327-76BD95426741";
metricLeft = "=o";
metricRight = "=o";
shapes = (
{
closed = 1;
nodes = (
(401,-10,o),
(479,58,o),
(504,90,c),
(498,95,l),
(462,53,o),
(386,4,o),
(291,4,cs),
(192,4,o),
(101,95,o),
(84,201,c),
(173,219,o),
(392,272,o),
(484,305,c),
(494,319,l),
(477,410,o),
(392,481,o),
(290,481,cs),
(180,481,o),
(60,373,o),
(60,235,cs),
(60,102,o),
(147,-10,o),
(287,-10,cs)
);
},
{
closed = 1;
nodes = (
(69,372,o),
(181,466,o),
(271,466,cs),
(390,466,o),
(458,381,o),
(477,313,c),
(364,279,o),
(192,233,o),
(82,212,c)
);
}
);
width = 564;
},
{
anchors = (
{
name = bottom;
pos = (280,0);
},
{
name = ogonek;
pos = (335,10);
},
{
name = top;
pos = (280,471);
}
);
layerId = "BABFB3A0-9CFA-45ED-BD0F-DD711F12EEFF";
metricLeft = "=o";
metricRight = "=o";
shapes = (
{
closed = 1;
nodes = (
(420,-10,o),
(484,77,o),
(508,114,c),
(434,159,l),
(399,112,o),
(346,74,o),
(280,74,cs),
(189,74,o),
(126,143,o),
(126,211,c),
(226,211,o),
(423,211,o),
(523,211,c),
(523,222,l),
(523,373,o),
(420,481,o),
(280,481,cs),
(149,481,o),
(40,370,o),
(40,235,cs),
(40,99,o),
(149,-10,o),
(280,-10,cs)
);
},
{
closed = 1;
nodes = (
(130,325,o),
(182,397,o),
(280,397,cs),
(379,397,o),
(429,325,o),
(429,288,c),
(329,288,o),
(230,288,o),
(130,288,c)
);
}
);
width = 563;
},
{
anchors = (
{
name = bottom;
pos = (315,0);
},
{
name = ogonek;
pos = (567,10);
},
{
name = top;
pos = (315,500);
}
);
layerId = "C8CD87A0-2407-4F05-BADA-4D8336545B60";
metricLeft = "=o";
metricRight = "=o";
shapes = (
{
closed = 1;
nodes = (
(498,-10,o),
(565,87,o),
(592,143,c),
(379,193,l),
(370,172,o),
(353,139,o),
(315,139,cs),
(280,139,o),
(257,173,o),
(257,216,c),
(347,216,o),
(508,216,o),
(610,216,c),
(610,243,l),
(610,368,o),
(518,510,o),
(315,510,cs),
(112,510,o),
(20,374,o),
(20,250,cs),
(20,125,o),
(112,-10,o),
(315,-10,cs)
);
},
{
closed = 1;
nodes = (
(257,335,o),
(280,371,o),
(316,371,cs),
(351,371,o),
(377,336,o),
(377,292,c),
(337,292,o),
(297,292,o),
(257,292,c)
);
}
);
width = 630;
},
{
anchors = (
{
name = bottom;
pos = (304,0);
},
{
name = ogonek;
pos = (547,10);
},
{
name = top;
pos = (304,471);
}
);
background = {
shapes = (
{
closed = 1;
nodes = (
(60,353,o),
(148,481,o),
(304,481,cs),
(460,481,o),
(548,349,o),
(548,246,c),
(548,240,l),
(398,240,o),
(226,240,o),
(76,240,c),
(76,135,o),
(154,5,o),
(303,5,cs),
(427,5,o),
(482,81,o),
(515,129,c),
(528,120,l),
(503,81,o),
(444,-10,o),
(303,-10,cs),
(148,-10,o),
(60,117,o),
(60,235,cs)
);
},
{
closed = 1;
nodes = (
(252,255,o),
(357,255,o),
(532,255,c),
(532,325,o),
(457,466,o),
(304,466,cs),
(152,466,o),
(77,325,o),
(77,255,c)
);
}
);
};
layerId = "48DAC09D-95D4-4D70-8D14-87ABECD8575B";
metricLeft = "=o";
metricRight = "=o";
shapes = (
{
closed = 1;
nodes = (
(444,-10,o),
(503,81,o),
(528,120,c),
(515,129,l),
(482,81,o),
(427,5,o),
(303,5,cs),
(154,5,o),
(76,135,o),
(76,240,c),
(226,240,o),
(398,240,o),
(548,240,c),
(548,246,l),
(548,349,o),
(460,481,o),
(304,481,cs),
(148,481,o),
(60,353,o),
(60,235,cs),
(60,117,o),
(148,-10,o),
(303,-10,cs)
);
},
{
closed = 1;
nodes = (
(77,325,o),
(152,466,o),
(304,466,cs),
(457,466,o),
(532,325,o),
(532,255,c),
(357,255,o),
(252,255,o),
(77,255,c)
);
}
);
width = 608;
}
);
metricLeft = "=o";
metricRight = "=o";
unicode = 101;
},
{
glyphname = ezh;
lastChange = "2023-06-24 02:04:10 +0000";
layers = (
{
anchors = (
{
name = bottom;
pos = (296,0);
},
{
name = top;
pos = (296,471);
}
);
layerId = "9E464B93-4987-4E25-B327-76BD95426741";
shapes = (
{
closed = 1;
nodes = (
(402,-220,o),
(541,-129,o),
(541,8,cs),
(541,111,o),
(423,203,o),
(328,198,c),
(516,443,l),
(503,471,l),
(70,471,l),
(50,316,l),
(107,307,l),
(125,366,o),
(171,401,o),
(232,401,cs),
(385,401,l),
(216,165,l),
(241,134,l),
(369,141,o),
(437,54,o),
(437,-21,cs),
(437,-98,o),
(377,-139,o),
(291,-139,cs),
(227,-139,o),
(153,-84,o),
(124,-43,c),
(51,-120,l),
(92,-173,o),
(187,-220,o),
(267,-220,cs)
);
}
);
width = 591;
},
{
anchors = (
{
name = bottom;
pos = (303,0);
},
{
name = top;
pos = (303,471);
}
);
layerId = "48DAC09D-95D4-4D70-8D14-87ABECD8575B";
shapes = (
{
closed = 1;
nodes = (
(434,-219,o),
(544,-140,o),
(544,-10,cs),
(544,110,o),
(467,187,o),
(344,197,c),
(512,391,l),
(512,471,l),
(94,471,l),
(94,394,l),
(94,394,l),
(123,394,o),
(190,394,o),
(334,394,cs),
(409,394,l),
(245,202,l),
(245,134,l),
(406,134,o),
(459,77,o),
(459,-2,cs),
(459,-75,o),
(395,-139,o),
(302,-139,cs),
(206,-139,o),
(154,-83,o),
(136,-11,c),
(60,-45,l),
(82,-152,o),
(171,-219,o),
(302,-219,cs)
);
}
);
width = 604;
},
{
anchors = (
{
name = bottom;
pos = (276,0);
},
{
name = top;
pos = (276,471);
}
);
layerId = m01;
shapes = (
{
closed = 1;
nodes = (
(382,-220,o),
(521,-129,o),
(521,8,cs),
(521,111,o),
(403,203,o),
(308,198,c),
(496,443,l),
(483,471,l),
(50,471,l),
(30,316,l),
(87,307,l),
(105,366,o),
(151,401,o),
(212,401,cs),
(365,401,l),
(196,165,l),
(221,134,l),
(349,141,o),
(417,54,o),
(417,-21,cs),
(417,-98,o),
(357,-139,o),
(271,-139,cs),
(207,-139,o),
(133,-84,o),
(104,-43,c),
(31,-120,l),
(72,-173,o),
(167,-220,o),
(247,-220,cs)
);
}
);
width = 551;
},
{
anchors = (
{
name = bottom;
pos = (283,0);
},
{
name = top;
pos = (283,471);
}
);
layerId = "BABFB3A0-9CFA-45ED-BD0F-DD711F12EEFF";
shapes = (
{
closed = 1;
nodes = (
(414,-219,o),
(524,-140,o),
(524,-10,cs),
(524,110,o),
(447,187,o),
(324,197,c),
(492,391,l),
(492,471,l),
(74,471,l),
(74,394,l),
(74,394,l),
(103,394,o),
(170,394,o),
(314,394,cs),
(389,394,l),
(225,202,l),
(225,134,l),
(386,134,o),
(439,77,o),
(439,-2,cs),
(439,-75,o),
(375,-139,o),
(282,-139,cs),
(186,-139,o),
(134,-83,o),
(116,-11,c),
(40,-45,l),
(62,-152,o),
(151,-219,o),
(282,-219,cs)
);
}
);
width = 564;
},
{
anchors = (
{
name = bottom;
pos = (256,0);
},
{
name = top;
pos = (256,471);
}
);
layerId = "C36E42DF-D6E4-4FAF-B5BA-99700BA29EB5";
shapes = (
{
closed = 1;
nodes = (
(362,-220,o),
(501,-129,o),
(501,8,cs),
(501,111,o),
(383,203,o),
(288,198,c),
(476,443,l),
(463,471,l),
(30,471,l),
(10,316,l),
(67,307,l),
(85,366,o),
(131,401,o),
(192,401,cs),
(345,401,l),
(176,165,l),
(201,134,l),
(329,141,o),
(397,54,o),
(397,-21,cs),
(397,-98,o),
(337,-139,o),
(251,-139,cs),
(187,-139,o),
(113,-84,o),
(84,-43,c),
(11,-120,l),
(52,-173,o),
(147,-220,o),
(227,-220,cs)
);
}
);
width = 511;
},
{
anchors = (
{
name = bottom;
pos = (263,0);
},
{
name = top;
pos = (263,471);
}
);
layerId = "C8CD87A0-2407-4F05-BADA-4D8336545B60";
shapes = (
{
closed = 1;
nodes = (
(394,-219,o),
(504,-140,o),
(504,-10,cs),
(504,110,o),
(427,187,o),
(304,197,c),
(472,391,l),
(472,471,l),
(54,471,l),
(54,394,l),
(54,394,l),
(83,394,o),
(150,394,o),
(294,394,cs),
(369,394,l),
(205,202,l),
(205,134,l),
(366,134,o),
(419,77,o),
(419,-2,cs),
(419,-75,o),
(355,-139,o),
(262,-139,cs),
(166,-139,o),
(114,-83,o),
(96,-11,c),
(20,-45,l),
(42,-152,o),
(131,-219,o),
(262,-219,cs)
);
}
);
width = 524;
}
);
metricLeft = "=z";
metricRight = "=z";
unicode = 658;
},
{
glyphname = f;
lastChange = "2023-06-21 18:47:52 +0000";
layers = (
{
anchors = (
{
name = bottom;
pos = (196,0);
},
{
name = top;
pos = (196,780);
}
);
layerId = m01;
metricLeft = "=n";
shapes = (
{
closed = 1;
nodes = (
(281,0,l),
(287,35,l),
(241,54,o),
(207,65,o),
(207,101,c),
(207,399,l),
(353,397,l),
(380,471,l),
(207,471,l),
(207,565,ls),
(207,642,o),
(217,690,o),
(270,690,cs),
(303,690,o),
(355,653,o),
(374,641,c),
(421,706,l),
(393,731,o),
(358,760,o),
(284,760,cs),
(178,760,o),
(112,667,o),
(112,583,cs),
(112,471,l),
(25,471,l),
(25,402,l),
(112,400,l),
(112,120,l),
(112,75,o),
(82,53,o),
(32,35,c),
(32,0,l)
);
}
);
width = 391;
},
{
anchors = (
{
name = bottom;
pos = (267,0);
},
{
name = top;
pos = (267,780);
}
);
layerId = "C36E42DF-D6E4-4FAF-B5BA-99700BA29EB5";
metricLeft = "=n";
shapes = (
{
closed = 1;
nodes = (
(376,0,l),
(392,132,l),
(346,151,o),
(337,175,o),
(337,211,c),
(337,355,l),
(483,346,l),
(510,500,l),
(337,500,l),
(337,500,ls),
(337,566,o),
(340,600,o),
(380,600,cs),
(418,600,o),
(445,565,o),
(462,539,c),
(594,693,l),
(561,719,o),
(498,759,o),
(399,759,cs),
(249,759,o),
(102,664,o),
(102,500,cs),
(102,500,l),
(15,500,l),
(15,371,l),
(102,366,l),
(102,220,l),
(102,175,o),
(92,153,o),
(42,135,c),
(42,0,l)
);
}
);
width = 534;
},
{
anchors = (
{
name = bottom;
pos = (176,0);
},
{
name = top;
pos = (176,780);
}
);
layerId = "9E464B93-4987-4E25-B327-76BD95426741";
metricLeft = "=n";
shapes = (
{
closed = 1;
nodes = (
(258,0,l),
(262,8,l),
(212,8,o),
(162,8,o),
(162,38,c),
(162,460,l),
(327,458,l),
(335,471,l),
(162,471,l),
(162,615,ls),
(162,693,o),
(194,745,o),
(248,745,cs),
(294,745,o),
(331,716,o),
(348,695,c),
(362,711,l),
(343,734,o),
(313,760,o),
(257,760,cs),
(201,760,o),
(145,707,o),
(145,624,cs),
(145,471,l),
(58,471,l),
(58,461,l),
(145,460,l),
(145,38,l),
(145,8,o),
(95,8,o),
(45,8,c),
(45,0,l)
);
}
);
width = 352;
},
{
anchors = (
{
name = bottom;
pos = (195,0);
},
{
name = top;
pos = (195,780);
}
);
layerId = "BABFB3A0-9CFA-45ED-BD0F-DD711F12EEFF";
metricLeft = "=o-10";
shapes = (
{
closed = 1;
nodes = (
(205,0,l),
(205,0,l),
(205,30,o),
(205,75,o),
(205,200,c),
(205,394,l),
(351,394,l),
(351,471,l),
(205,471,l),
(205,585,ls),
(205,633,o),
(244,671,o),
(291,671,cs),
(318,671,o),
(336,663,o),
(352,652,c),
(400,722,l),
(375,742,o),
(339,760,o),
(291,760,cs),
(194,760,o),
(117,682,o),
(117,585,cs),
(117,471,l),
(30,471,l),
(30,394,l),
(117,394,l),
(117,200,l),
(117,75,o),
(117,30,o),
(117,0,c),
(117,0,l)
);
}
);
width = 390;
},
{
anchors = (
{
name = bottom;
pos = (265,0);
},
{
name = top;
pos = (265,780);
}
);
layerId = "C8CD87A0-2407-4F05-BADA-4D8336545B60";
metricLeft = "=o-10";
shapes = (
{
closed = 1;
nodes = (
(337,0,l),
(337,0,l),
(337,30,o),
(337,75,o),
(337,200,c),
(337,340,l),
(493,340,l),
(493,500,l),
(337,500,l),
(337,500,ls),
(337,560,o),
(362,583,o),
(399,583,cs),
(436,583,o),
(461,560,o),
(481,527,c),
(569,711,l),
(526,737,o),
(476,760,o),
(390,760,cs),
(185,760,o),
(107,617,o),
(107,500,cs),
(107,500,l),
(10,500,l),
(10,340,l),
(107,340,l),
(107,200,l),
(107,75,o),
(107,30,o),
(107,0,c),
(107,0,l)
);
}
);
width = 529;
},
{
anchors = (
{
name = bottom;
pos = (177,0);
},
{
name = top;
pos = (177,780);
}
);
layerId = "48DAC09D-95D4-4D70-8D14-87ABECD8575B";
metricLeft = "=o-10";
shapes = (
{
closed = 1;
nodes = (
(153,0,l),
(153,0,l),
(153,10,o),
(153,30,o),
(153,60,c),
(153,457,l),
(299,457,l),
(299,471,l),
(153,471,l),
(153,630,ls),
(153,693,o),
(204,745,o),
(267,745,cs),
(308,745,o),
(330,725,o),
(334,722,c),
(344,735,l),
(333,743,o),
(310,760,o),
(267,760,cs),
(195,760,o),
(137,702,o),
(137,630,cs),
(137,471,l),
(50,471,l),
(50,457,l),
(137,457,l),
(137,60,l),
(137,30,o),
(137,10,o),
(137,0,c),
(137,0,l)
);
}
);
width = 354;
}
);
metricLeft = "=o-10";
unicode = 102;
},
{
glyphname = g;
lastChange = "2023-09-16 04:05:31 +0000";
layers = (
{
anchors = (
{
name = bottom;
pos = (272,-220);
},
{
name = center;
pos = (445,-80);
},
{
name = top;
pos = (250,471);
}
);
layerId = m01;
shapes = (
{
closed = 1;
nodes = (
(374,-220,o),
(514,-164,o),
(514,-70,cs),
(514,0,o),
(455,40,o),
(376,51,cs),
(250,68,ls),
(210,73,o),
(190,80,o),
(183,90,c),
(272,127,ls),
(343,157,o),
(438,192,o),
(438,298,cs),
(438,328,o),
(430,361,o),
(416,388,c),
(430,388,o),
(519,405,o),
(529,412,c),
(486,481,l),
(472,469,o),
(409,436,o),
(389,433,c),
(358,461,o),
(311,481,o),
(252,481,cs),
(145,481,o),
(41,411,o),
(41,303,cs),
(41,223,o),
(98,156,o),
(188,135,c),
(86,93,l),
(75,79,l),
(80,62,o),
(97,35,o),
(117,25,c),
(64,-4,o),
(25,-41,o),
(25,-82,cs),
(25,-153,o),
(86,-220,o),
(249,-220,cs)
);
},
{
closed = 1;
nodes = (
(117,-29,o),
(138,-9,o),
(165,11,c),
(299,-11,ls),
(403,-28,o),
(425,-38,o),
(425,-71,cs),
(425,-111,o),
(395,-144,o),
(285,-144,cs),
(171,-144,o),
(117,-96,o),
(117,-58,cs)
);
},
{
closed = 1;
nodes = (
(139,381,o),
(173,422,o),
(234,422,cs),
(298,422,o),
(340,367,o),
(340,286,cs),
(340,223,o),
(300,186,o),
(244,186,cs),
(175,186,o),
(139,263,o),
(139,324,cs)
);
}
);
width = 544;
},
{
anchors = (
{
name = bottom;
pos = (347,-220);
},
{
name = center;
pos = (445,-80);
},
{
name = top;
pos = (347,500);
}
);
layerId = "C36E42DF-D6E4-4FAF-B5BA-99700BA29EB5";
shapes = (
{
closed = 1;
nodes = (
(490,-220,o),
(634,-154,o),
(634,-50,cs),
(634,10,o),
(577,67,o),
(478,78,cs),
(398,87,ls),
(328,95,o),
(307,101,o),
(291,109,c),
(406,137,ls),
(531,167,o),
(578,237,o),
(578,303,cs),
(578,326,o),
(567,355,o),
(562,362,c),
(600,364,o),
(656,378,o),
(689,393,c),
(616,510,l),
(591,489,o),
(548,462,o),
(510,452,c),
(481,477,o),
(426,510,o),
(312,510,cs),
(179,510,o),
(44,431,o),
(44,313,cs),
(44,213,o),
(120,161,o),
(196,145,c),
(81,108,l),
(59,77,l),
(66,60,o),
(85,35,o),
(110,25,c),
(44,3,o),
(15,-34,o),
(15,-82,cs),
(15,-153,o),
(120,-220,o),
(304,-220,cs)
);
},
{
closed = 1;
nodes = (
(234,-41,o),
(248,-31,o),
(264,-21,c),
(349,-32,ls),
(414,-40,o),
(429,-53,o),
(429,-67,cs),
(429,-80,o),
(410,-93,o),
(340,-93,cs),
(268,-93,o),
(234,-72,o),
(234,-56,cs)
);
},
{
closed = 1;
nodes = (
(267,368,o),
(281,395,o),
(312,395,cs),
(343,395,o),
(362,359,o),
(362,305,cs),
(362,264,o),
(344,240,o),
(317,240,cs),
(283,240,o),
(267,291,o),
(267,330,cs)
);
}
);
width = 694;
},
{
anchors = (
{
name = bottom;
pos = (255,-220);
},
{
name = center;
pos = (445,-80);
},
{
name = top;
pos = (255,471);
}
);
layerId = "9E464B93-4987-4E25-B327-76BD95426741";
shapes = (
{
closed = 1;
nodes = (
(384,-220,o),
(474,-164,o),
(474,-90,cs),
(474,-30,o),
(425,-15,o),
(346,-1,cs),
(218,21,ls),
(169,29,o),
(146,33,o),
(122,59,c),
(262,124,ls),
(357,168,o),
(419,199,o),
(419,308,cs),
(419,348,o),
(400,392,o),
(378,419,c),
(395,422,o),
(454,449,o),
(464,456,c),
(453,478,l),
(437,457,o),
(392,430,o),
(372,426,c),
(355,443,o),
(310,481,o),
(243,481,cs),
(156,481,o),
(56,421,o),
(56,303,cs),
(56,230,o),
(109,121,o),
(261,134,c),
(117,70,l),
(106,56,l),
(111,39,o),
(125,28,o),
(147,19,c),
(94,-10,o),
(45,-61,o),
(45,-112,cs),
(45,-143,o),
(86,-220,o),
(239,-220,cs)
);
},
{
closed = 1;
nodes = (
(64,-49,o),
(124,-4,o),
(158,14,c),
(289,-8,ls),
(392,-25,o),
(455,-38,o),
(455,-91,cs),
(455,-145,o),
(403,-206,o),
(265,-206,cs),
(151,-206,o),
(64,-169,o),
(64,-100,cs)
);
},
{
closed = 1;
nodes = (
(77,406,o),
(153,469,o),
(228,469,cs),
(341,469,o),
(399,381,o),
(399,299,cs),
(399,204,o),
(327,145,o),
(247,145,cs),
(126,145,o),
(77,229,o),
(77,317,cs)
);
}
);
width = 509;
},
{
anchors = (
{
name = bottom;
pos = (278,-220);
},
{
name = center;
pos = (445,-77);
},
{
name = top;
pos = (278,471);
}
);
layerId = "BABFB3A0-9CFA-45ED-BD0F-DD711F12EEFF";
metricLeft = "=o";
metricRight = "=o-20";
shapes = (
{
closed = 1;
nodes = (
(435,-220,o),
(524,-167,o),
(524,-76,cs),
(524,10,o),
(449,60,o),
(334,60,cs),
(211,60,ls),
(151,60,o),
(153,126,o),
(193,138,c),
(193,138,l),
(382,104,o),
(469,206,o),
(469,304,cs),
(469,328,o),
(465,346,o),
(459,358,c),
(488,368,o),
(529,391,o),
(557,415,c),
(516,481,l),
(494,463,o),
(454,438,o),
(419,426,c),
(388,460,o),
(326,481,o),
(267,481,cs),
(166,481,o),
(63,411,o),
(63,311,cs),
(63,251,o),
(94,202,o),
(131,177,c),
(131,177,l),
(131,177,l),
(69,146,o),
(68,64,o),
(126,39,c),
(76,23,o),
(40,-20,o),
(40,-76,cs),
(40,-167,o),
(129,-220,o),
(282,-220,cs)
);
},
{
closed = 1;
nodes = (
(121,-25,o),
(199,-14,o),
(272,-14,c),
(292,-14,ls),
(371,-14,o),
(443,-25,o),
(443,-76,cs),
(443,-127,o),
(371,-142,o),
(282,-142,cs),
(199,-142,o),
(121,-127,o),
(121,-76,cs)
);
},
{
closed = 1;
nodes = (
(147,357,o),
(191,406,o),
(267,406,cs),
(343,406,o),
(386,357,o),
(386,307,cs),
(386,256,o),
(343,203,o),
(267,203,cs),
(191,203,o),
(147,252,o),
(147,307,cs)
);
}
);
width = 577;
},
{
anchors = (
{
name = bottom;
pos = (340,-220);
},
{
name = center;
pos = (445,-77);
},
{
name = top;
pos = (340,500);
}
);
layerId = "C8CD87A0-2407-4F05-BADA-4D8336545B60";
metricLeft = "=o";
shapes = (
{
closed = 1;
nodes = (
(512,-220,o),
(634,-165,o),
(634,-63,cs),
(634,29,o),
(547,93,o),
(300,89,cs),
(300,89,ls),
(238,88,o),
(242,133,o),
(300,130,c),
(300,130,l),
(506,120,o),
(579,214,o),
(579,306,cs),
(579,315,o),
(578,323,o),
(577,329,c),
(619,344,o),
(657,363,o),
(689,393,c),
(616,510,l),
(585,486,o),
(548,467,o),
(509,453,c),
(459,484,o),
(384,510,o),
(312,510,cs),
(191,510,o),
(43,437,o),
(43,313,cs),
(43,261,o),
(74,210,o),
(111,194,c),
(111,194,l),
(111,194,l),
(49,161,o),
(48,76,o),
(106,50,c),
(56,33,o),
(20,-5,o),
(20,-63,cs),
(20,-165,o),
(147,-220,o),
(329,-220,cs)
);
},
{
closed = 1;
nodes = (
(225,-37,o),
(266,-28,o),
(327,-28,c),
(327,-28,ls),
(392,-28,o),
(429,-37,o),
(429,-63,cs),
(429,-87,o),
(392,-100,o),
(327,-100,cs),
(266,-100,o),
(225,-87,o),
(225,-63,cs)
);
},
{
closed = 1;
nodes = (
(265,361,o),
(280,397,o),
(315,397,cs),
(350,397,o),
(364,361,o),
(364,323,cs),
(364,285,o),
(350,246,o),
(315,246,cs),
(280,246,o),
(265,285,o),
(265,323,cs)
);
}
);
width = 679;
},
{
anchors = (
{
name = bottom;
pos = (288,-220);
},
{
name = center;
pos = (445,-77);
},
{
name = top;
pos = (288,471);
}
);
background = {
shapes = (
{
closed = 1;
nodes = (
(445,-220,o),
(514,-161,o),
(514,-97,cs),
(514,-31,o),
(445,23,o),
(312,23,cs),
(221,23,ls),
(82,23,o),
(115,145,o),
(191,169,c),
(191,169,l),
(298,127,o),
(479,168,o),
(479,316,cs),
(479,355,o),
(454,393,o),
(443,407,c),
(466,420,o),
(511,448,o),
(535,469,c),
(526,481,l),
(504,462,o),
(458,431,o),
(434,419,c),
(403,454,o),
(348,481,o),
(277,481,cs),
(175,481,o),
(76,413,o),
(76,316,cs),
(76,266,o),
(110,201,o),
(176,175,c),
(176,175,l),
(176,175,l),
(100,146,o),
(77,36,o),
(179,16,c),
(123,3,o),
(70,-38,o),
(70,-97,cs),
(70,-161,o),
(139,-220,o),
(292,-220,cs)
);
},
{
closed = 1;
nodes = (
(86,-33,o),
(160,9,o),
(242,9,c),
(312,9,ls),
(416,9,o),
(498,-30,o),
(498,-97,cs),
(498,-162,o),
(416,-205,o),
(292,-205,cs),
(168,-205,o),
(86,-162,o),
(86,-97,cs)
);
},
{
closed = 1;
nodes = (
(92,392,o),
(170,466,o),
(277,466,cs),
(388,466,o),
(463,392,o),
(463,316,cs),
(463,229,o),
(390,169,o),
(277,169,cs),
(170,169,o),
(92,234,o),
(92,316,cs)
);
}
);
};
layerId = "48DAC09D-95D4-4D70-8D14-87ABECD8575B";
metricLeft = "=o";
metricRight = "=o-20";
shapes = (
{
closed = 1;
nodes = (
(445,-220,o),
(514,-161,o),
(514,-97,cs),
(514,-31,o),
(445,23,o),
(309,23,cs),
(221,23,ls),
(84,23,o),
(121,159,o),
(205,163,c),
(205,163,l),
(381,126,o),
(479,221,o),
(479,316,cs),
(479,360,o),
(455,394,o),
(443,407,c),
(466,420,o),
(511,448,o),
(535,469,c),
(526,481,l),
(504,462,o),
(458,431,o),
(434,419,c),
(403,454,o),
(348,481,o),
(277,481,cs),
(175,481,o),
(76,413,o),
(76,316,cs),
(76,236,o),
(127,189,o),
(186,169,c),
(186,169,l),
(186,169,l),
(107,155,o),
(76,41,o),
(179,16,c),
(123,3,o),
(60,-38,o),
(60,-97,cs),
(60,-161,o),
(139,-220,o),
(287,-220,cs)
);
},
{
closed = 1;
nodes = (
(76,-33,o),
(160,9,o),
(242,9,c),
(309,9,ls),
(416,9,o),
(498,-30,o),
(498,-97,cs),
(498,-162,o),
(416,-205,o),
(287,-205,cs),
(168,-205,o),
(76,-162,o),
(76,-97,cs)
);
},
{
closed = 1;
nodes = (
(92,392,o),
(170,466,o),
(277,466,cs),
(388,466,o),
(463,392,o),
(463,316,cs),
(463,206,o),
(360,169,o),
(277,169,cs),
(194,169,o),
(92,206,o),
(92,316,cs)
);
}
);
width = 575;
}
);
unicode = 103;
},
{
glyphname = h;
lastChange = "2023-06-23 18:26:51 +0000";
layers = (
{
anchors = (
{
name = bottom;
pos = (318,0);
},
{
name = center;
pos = (190,569);
},
{
name = top;
pos = (318,780);
}
);
layerId = m01;
metricLeft = "=n-5";
metricRight = "=n";
shapes = (
{
closed = 1;
nodes = (
(259,0,l),
(265,35,l),
(211,61,o),
(195,68,o),
(195,100,c),
(195,340,l),
(236,365,o),
(297,400,o),
(332,400,cs),
(409,400,o),
(441,350,o),
(441,266,cs),
(441,120,l),
(441,75,o),
(442,57,o),
(381,35,c),
(381,0,l),
(616,0,l),
(621,35,l),
(569,56,o),
(541,65,o),
(541,100,c),
(541,298,ls),
(541,411,o),
(487,481,o),
(388,481,cs),
(345,481,o),
(253,427,o),
(195,388,c),
(195,769,l),
(181,780,l),
(26,734,l),
(20,699,l),
(75,680,o),
(100,649,o),
(100,618,c),
(100,120,l),
(100,75,o),
(80,53,o),
(30,35,c),
(30,0,l)
);
}
);
width = 636;
},
{
anchors = (
{
name = bottom;
pos = (369,0);
},
{
name = center;
pos = (369,390);
},
{
name = top;
pos = (369,780);
}
);
layerId = "C36E42DF-D6E4-4FAF-B5BA-99700BA29EB5";
metricLeft = "=n-5";
metricRight = "=n";
shapes = (
{
closed = 1;
nodes = (
(334,0,l),
(350,126,l),
(315,142,o),
(305,159,o),
(305,205,c),
(305,271,l),
(325,297,o),
(360,328,o),
(385,328,cs),
(416,328,o),
(424,304,o),
(424,265,cs),
(424,211,l),
(424,165,o),
(422,145,o),
(389,126,c),
(389,0,l),
(722,0,l),
(727,135,l),
(675,153,o),
(664,155,o),
(664,230,c),
(664,317,ls),
(664,430,o),
(613,510,o),
(490,510,cs),
(435,510,o),
(362,457,o),
(305,417,c),
(305,740,l),
(255,780,l),
(26,724,l),
(10,590,l),
(55,582,o),
(70,549,o),
(70,478,c),
(70,250,l),
(70,175,o),
(60,153,o),
(10,135,c),
(10,0,l)
);
}
);
width = 737;
},
{
anchors = (
{
name = bottom;
pos = (320,0);
},
{
name = center;
pos = (320,390);
},
{
name = top;
pos = (320,780);
}
);
layerId = "9E464B93-4987-4E25-B327-76BD95426741";
metricLeft = "=n-5";
metricRight = "=n";
shapes = (
{
closed = 1;
nodes = (
(257,0,l),
(261,8,l),
(211,8,o),
(161,8,o),
(161,38,c),
(161,354,l),
(207,389,o),
(303,463,o),
(365,463,cs),
(459,463,o),
(488,380,o),
(488,286,cs),
(488,38,l),
(488,8,o),
(438,8,o),
(388,8,c),
(388,0,l),
(601,0,l),
(605,8,l),
(555,8,o),
(505,8,o),
(505,38,c),
(505,298,ls),
(505,411,o),
(477,481,o),
(378,481,cs),
(315,481,o),
(216,411,o),
(161,368,c),
(161,769,l),
(147,780,l),
(41,768,l),
(40,759,l),
(144,759,o),
(144,759,o),
(144,727,c),
(144,38,l),
(144,8,o),
(94,8,o),
(44,8,c),
(44,0,l)
);
}
);
width = 640;
},
{
anchors = (
{
name = bottom;
pos = (275,0);
},
{
name = center;
pos = (157,569);
},
{
name = top;
pos = (275,780);
}
);
layerId = "BABFB3A0-9CFA-45ED-BD0F-DD711F12EEFF";
metricLeft = "=n";
metricRight = "=n";
shapes = (
{
closed = 1;
nodes = (
(158,0,l),
(158,0,l),
(158,30,o),
(158,75,o),
(158,200,c),
(158,245,l),
(158,338,o),
(211,400,o),
(295,400,cs),
(362,400,o),
(410,360,o),
(410,266,cs),
(410,200,l),
(410,75,o),
(410,30,o),
(410,0,c),
(410,0,l),
(498,0,l),
(498,0,l),
(498,30,o),
(498,75,o),
(498,200,c),
(498,298,ls),
(498,420,o),
(416,481,o),
(321,481,cs),
(267,481,o),
(200,461,o),
(158,388,c),
(158,750,l),
(158,750,l),
(70,750,l),
(70,750,l),
(70,720,o),
(70,675,o),
(70,550,c),
(70,200,l),
(70,75,o),
(70,30,o),
(70,0,c),
(70,0,l)
);
}
);
width = 568;
},
{
anchors = (
{
name = bottom;
pos = (330,0);
},
{
name = center;
pos = (330,390);
},
{
name = top;
pos = (330,780);
}
);
layerId = "C8CD87A0-2407-4F05-BADA-4D8336545B60";
metricLeft = "=n";
metricRight = "=n";
shapes = (
{
closed = 1;
nodes = (
(270,0,l),
(270,0,l),
(270,32,o),
(270,75,o),
(270,149,c),
(270,216,l),
(270,268,o),
(290,309,o),
(332,309,cs),
(374,309,o),
(389,268,o),
(389,216,cs),
(389,149,l),
(389,75,o),
(389,32,o),
(389,0,c),
(389,0,l),
(619,0,l),
(619,0,l),
(619,32,o),
(619,68,o),
(619,200,c),
(619,278,ls),
(619,411,o),
(565,510,o),
(439,510,cs),
(365,510,o),
(312,475,o),
(270,417,c),
(270,750,l),
(270,750,l),
(40,750,l),
(40,750,l),
(40,720,o),
(40,675,o),
(40,550,c),
(40,200,l),
(40,75,o),
(40,30,o),
(40,0,c),
(40,0,l)
);
}
);
width = 659;
},
{
anchors = (
{
name = bottom;
pos = (289,0);
},
{
name = center;
pos = (289,390);
},
{
name = top;
pos = (289,780);
}
);
layerId = "48DAC09D-95D4-4D70-8D14-87ABECD8575B";
metricLeft = "=n";
metricRight = "=n";
shapes = (
{
closed = 1;
nodes = (
(106,0,l),
(106,0,l),
(106,10,o),
(106,30,o),
(106,60,c),
(106,261,l),
(106,311,o),
(165,466,o),
(305,466,cs),
(398,466,o),
(471,399,o),
(471,270,cs),
(471,60,l),
(471,30,o),
(471,10,o),
(471,0,c),
(471,0,l),
(487,0,l),
(487,0,l),
(487,10,o),
(487,30,o),
(487,60,c),
(487,273,ls),
(487,403,o),
(414,481,o),
(306,481,cs),
(206,481,o),
(140,414,o),
(106,317,c),
(106,750,l),
(106,750,l),
(90,750,l),
(90,750,l),
(90,720,o),
(90,700,o),
(90,650,c),
(90,60,l),
(90,30,o),
(90,10,o),
(90,0,c),
(90,0,l)
);
}
);
width = 577;
}
);
unicode = 104;
},
{
glyphname = i;
lastChange = "2023-09-16 01:21:42 +0000";
layers = (
{
layerId = m01;
metricLeft = "=n";
metricRight = "=n";
shapes = (
{
ref = idotless;
},
{
pos = (88,0);
ref = dotaccentcomb;
}
);
width = 285;
},
{
background = {
shapes = (
{
closed = 1;
nodes = (
(260,510,l),
(310,470,l),
(310,211,l),
(310,165,o),
(330,148,o),
(365,132,c),
(349,0,l),
(15,0,l),
(15,135,l),
(65,153,o),
(75,175,o),
(75,220,c),
(75,238,l),
(75,279,o),
(60,312,o),
(15,320,c),
(31,454,l)
);
},
{
closed = 1;
nodes = (
(116,533,o),
(62,587,o),
(62,650,cs),
(62,722,o),
(113,769,o),
(182,769,cs),
(262,769,o),
(316,715,o),
(316,650,cs),
(316,575,o),
(267,533,o),
(204,533,cs)
);
}
);
};
layerId = "C36E42DF-D6E4-4FAF-B5BA-99700BA29EB5";
metricLeft = "=n";
metricRight = "=n";
shapes = (
{
ref = idotless;
},
{
pos = (62,0);
ref = dotaccentcomb;
}
);
width = 375;
},
{
layerId = "9E464B93-4987-4E25-B327-76BD95426741";
metricLeft = "=n";
metricRight = "=n";
shapes = (
{
ref = idotless;
},
{
pos = (135,0);
ref = dotaccentcomb;
}
);
width = 301;
},
{
layerId = "BABFB3A0-9CFA-45ED-BD0F-DD711F12EEFF";
metricLeft = "=n-20";
metricRight = "=n-20";
shapes = (
{
ref = idotless;
},
{
pos = (48,0);
ref = dotaccentcomb;
}
);
width = 228;
},
{
layerId = "C8CD87A0-2407-4F05-BADA-4D8336545B60";
metricLeft = "=n-5";
metricRight = "=n-5";
shapes = (
{
ref = idotless;
},
{
pos = (35,0);
ref = dotaccentcomb;
}
);
width = 320;
},
{
layerId = "48DAC09D-95D4-4D70-8D14-87ABECD8575B";
metricLeft = "=n-5";
metricRight = "=n-5";
shapes = (
{
ref = idotless;
},
{
pos = (84,0);
ref = dotaccentcomb;
}
);
width = 206;
}
);
unicode = 105;
},
